<svg xmlns="http://www.w3.org/2000/svg" xmlns:xlink="http://www.w3.org/1999/xlink" width="461" height="381" viewBox="0 0 461 381">
  <defs>
    <clipPath id="clip-path">
      <rect id="Rectangle_111" data-name="Rectangle 111" width="461" height="381" transform="translate(-0.297 -103)" fill="#fff"/>
    </clipPath>
    <clipPath id="clip-path-2">
      <rect id="Rectangle_110" data-name="Rectangle 110" width="568.136" height="568.136" fill="none"/>
    </clipPath>
  </defs>
  <g id="Mask_Group_13" data-name="Mask Group 13" transform="translate(0.297 103)" clip-path="url(#clip-path)">
    <g id="Group_144" data-name="Group 144" transform="translate(64.018 -326.467)">
      <g id="Group_143" data-name="Group 143" clip-path="url(#clip-path-2)">
        <path id="Path_1630" data-name="Path 1630" d="M0,0C.678.415,1.355.83,2.028,1.25V96.786Q1.022,95.744,0,94.716Z" transform="translate(431.813 42.532)" fill="#d1d3d4"/>
        <path id="Path_1631" data-name="Path 1631" d="M2.028,95.536q-1.011.63-2.028,1.25V2.072Q1.021,1.044,2.028,0Z" transform="translate(431.813 428.817)" fill="#d1d3d4"/>
        <path id="Path_1632" data-name="Path 1632" d="M2.028,91.025Q1.016,91.588,0,92.144V1.758Q1.019.886,2.028,0Z" transform="translate(419.41 440.64)" fill="#d1d3d4"/>
        <path id="Path_1633" data-name="Path 1633" d="M0,0Q1.017.555,2.028,1.118V92.143Q1.02,91.258,0,90.384Z" transform="translate(419.41 35.352)" fill="#d1d3d4"/>
        <path id="Path_1634" data-name="Path 1634" d="M2.029,101.355q-1.011.709-2.029,1.407V2.472Q1.024,1.244,2.029,0Z" transform="translate(444.215 414.786)" fill="#d1d3d4"/>
        <path id="Path_1635" data-name="Path 1635" d="M0,0Q1.018.7,2.029,1.407V102.762q-1-1.245-2.029-2.472Z" transform="translate(444.215 50.587)" fill="#d1d3d4"/>
        <path id="Path_1636" data-name="Path 1636" d="M2.029,82.2Q1.017,82.586,0,82.96V1.1Q1.018.556,2.029,0Z" transform="translate(382.201 466.737)" fill="#d1d3d4"/>
        <path id="Path_1637" data-name="Path 1637" d="M0,0C.678.251,1.354.5,2.029.757v82.2Q1.017,82.4,0,81.86Z" transform="translate(382.201 18.438)" fill="#d1d3d4"/>
        <path id="Path_1638" data-name="Path 1638" d="M0,0Q1.018.784,2.028,1.575V110.8q-1-1.536-2.028-3.054Z" transform="translate(456.618 59.612)" fill="#d1d3d4"/>
        <path id="Path_1639" data-name="Path 1639" d="M2.028,109.229Q1.018,110.022,0,110.8V3.054Q1.028,1.537,2.028,0Z" transform="translate(456.619 397.72)" fill="#d1d3d4"/>
        <path id="Path_1640" data-name="Path 1640" d="M2.029,77.468c-.676.153-1.352.307-2.029.455V.63Q1.016.321,2.029,0Z" transform="translate(344.993 482.674)" fill="#d1d3d4"/>
        <path id="Path_1641" data-name="Path 1641" d="M0,0C.678.148,1.353.3,2.029.455V77.923Q1.017,77.6,0,77.293Z" transform="translate(344.993 7.538)" fill="#d1d3d4"/>
        <path id="Path_1642" data-name="Path 1642" d="M0,0C.678.287,1.353.58,2.028.872V85.425Q1.019,84.774,0,84.137Z" transform="translate(394.605 23.357)" fill="#d1d3d4"/>
        <path id="Path_1643" data-name="Path 1643" d="M2.028,84.552q-1.012.44-2.028.872V1.289Q1.018.65,2.028,0Z" transform="translate(394.605 459.353)" fill="#d1d3d4"/>
        <path id="Path_1644" data-name="Path 1644" d="M0,0Q1.018.492,2.029.993V88.435Q1.018,87.676,0,86.93Z" transform="translate(407.007 28.979)" fill="#d1d3d4"/>
        <path id="Path_1645" data-name="Path 1645" d="M2.029,87.442q-1.014.5-2.029.993V1.5Q1.019.759,2.029,0Z" transform="translate(407.006 450.721)" fill="#d1d3d4"/>
        <path id="Path_1646" data-name="Path 1646" d="M2.029,2.6V348.381q-1.008,1.3-2.029,2.6V0Q1.022,1.291,2.029,2.6" transform="translate(506.228 108.579)" fill="#d1d3d4"/>
        <path id="Path_1647" data-name="Path 1647" d="M2.028,80.281c-.675.22-1.352.434-2.028.649v-80Q1.017.472,2.028,0Z" transform="translate(369.799 473.024)" fill="#d1d3d4"/>
        <path id="Path_1648" data-name="Path 1648" d="M0,0C.677.215,1.354.429,2.028.649v80.28Q1.018,80.459,0,80Z" transform="translate(369.798 14.182)" fill="#d1d3d4"/>
        <path id="Path_1649" data-name="Path 1649" d="M2.028,120.688Q1.018,121.578,0,122.46V4.009Q1.034,2.017,2.028,0Z" transform="translate(469.021 375.947)" fill="#d1d3d4"/>
        <path id="Path_1650" data-name="Path 1650" d="M0,0Q1.019.881,2.028,1.772V122.46Q1.036,120.443,0,118.451Z" transform="translate(469.021 69.728)" fill="#d1d3d4"/>
        <path id="Path_1651" data-name="Path 1651" d="M2.028,2.259V378Q1.02,379.136,0,380.259V0Q1.019,1.124,2.028,2.259" transform="translate(493.827 93.939)" fill="#d1d3d4"/>
        <path id="Path_1652" data-name="Path 1652" d="M2.028,78.719Q1.015,79,0,79.271V.776Q1.017.393,2.028,0Z" transform="translate(357.396 478.308)" fill="#d1d3d4"/>
        <path id="Path_1653" data-name="Path 1653" d="M0,0Q1.016.272,2.028.551v78.72Q1.017,78.878,0,78.5Z" transform="translate(357.396 10.557)" fill="#d1d3d4"/>
        <path id="Path_1654" data-name="Path 1654" d="M0,0Q1.019.992,2.028,2V142.529Q1.062,139.335,0,136.185Z" transform="translate(481.424 81.097)" fill="#d1d3d4"/>
        <path id="Path_1655" data-name="Path 1655" d="M2.028,140.534q-1.009,1-2.028,2V6.343Q1.064,3.2,2.028,0Z" transform="translate(481.424 344.509)" fill="#d1d3d4"/>
        <path id="Path_1656" data-name="Path 1656" d="M0,2q1.009-1,2.028-2V136.492Q.964,139.662,0,142.875Z" transform="translate(84.534 81.242)" fill="#d1d3d4"/>
        <path id="Path_1657" data-name="Path 1657" d="M2.029,142.875q-1.022-.993-2.029-2V0Q.963,3.213,2.029,6.384Z" transform="translate(84.534 344.018)" fill="#d1d3d4"/>
        <path id="Path_1658" data-name="Path 1658" d="M0,.757C.675.5,1.352.251,2.028,0V81.884q-1.017.545-2.028,1.1Z" transform="translate(183.756 18.494)" fill="#d1d3d4"/>
        <path id="Path_1659" data-name="Path 1659" d="M2.028,82.986c-.677-.251-1.354-.5-2.028-.757V0Q1.011.557,2.028,1.1Z" transform="translate(183.757 466.656)" fill="#d1d3d4"/>
        <path id="Path_1660" data-name="Path 1660" d="M0,221.838V4.772Q.995,2.376,2.028,0V226.609Q.991,224.235,0,221.838" transform="translate(22.52 170.764)" fill="#d1d3d4"/>
        <path id="Path_1661" data-name="Path 1661" d="M2.028,75.411C1.351,75.354.675,75.3,0,75.237V0C.675.084,1.351.168,2.028.245Z" transform="translate(258.173 490.763)" fill="#d1d3d4"/>
        <path id="Path_1662" data-name="Path 1662" d="M2.029,76.025C1.352,75.938.677,75.846,0,75.754V0Q1.014.188,2.029.367Z" transform="translate(245.77 488.844)" fill="#d1d3d4"/>
        <path id="Path_1663" data-name="Path 1663" d="M2.028,110.918Q1.012,110.135,0,109.343V0Q1,1.541,2.028,3.066Z" transform="translate(109.34 397.49)" fill="#d1d3d4"/>
        <path id="Path_1664" data-name="Path 1664" d="M0,1.574Q1.009.782,2.028,0V107.852Q1,109.375,0,110.917Z" transform="translate(109.339 59.728)" fill="#d1d3d4"/>
        <path id="Path_1665" data-name="Path 1665" d="M0,1.776Q1.011.885,2.029,0V118.611q-1.037,2-2.029,4.028Z" transform="translate(96.937 69.855)" fill="#d1d3d4"/>
        <path id="Path_1666" data-name="Path 1666" d="M2.029,122.638Q1.01,121.756,0,120.862V0Q.993,2.026,2.029,4.028Z" transform="translate(96.937 375.643)" fill="#d1d3d4"/>
        <path id="Path_1667" data-name="Path 1667" d="M2.029,0V74.812c-.313,0-.626.006-.94.006-.363,0-.726-.006-1.089-.007V0C.363,0,.726.007,1.089.007c.314,0,.627,0,.94-.006" transform="translate(282.979 492.354)" fill="#d1d3d4"/>
        <path id="Path_1668" data-name="Path 1668" d="M2.029,75.011Q1.014,74.97,0,74.921V0C.676.043,1.352.08,2.029.117Z" transform="translate(270.576 491.931)" fill="#d1d3d4"/>
        <path id="Path_1669" data-name="Path 1669" d="M2.029,80.95C1.353,80.735.675,80.52,0,80.3V0Q1.012.471,2.029.932Z" transform="translate(196.159 472.956)" fill="#d1d3d4"/>
        <path id="Path_1670" data-name="Path 1670" d="M0,.651C.675.431,1.351.216,2.029,0V80.019Q1.011,80.48,0,80.951Z" transform="translate(196.159 14.229)" fill="#d1d3d4"/>
        <path id="Path_1671" data-name="Path 1671" d="M2.029,77.937Q1.013,77.715,0,77.482V0Q1.012.322,2.029.633Z" transform="translate(220.964 482.626)" fill="#d1d3d4"/>
        <path id="Path_1672" data-name="Path 1672" d="M0,.455Q1.014.224,2.029,0V77.3q-1.017.311-2.029.633Z" transform="translate(220.964 7.572)" fill="#d1d3d4"/>
        <path id="Path_1673" data-name="Path 1673" d="M2.028,96.849Q1.012,96.226,0,95.6V0Q1.006,1.044,2.028,2.074Z" transform="translate(134.146 428.663)" fill="#d1d3d4"/>
        <path id="Path_1674" data-name="Path 1674" d="M0,1.253Q1.011.621,2.028,0V94.774Q1.007,95.805,0,96.849Z" transform="translate(134.146 42.624)" fill="#d1d3d4"/>
        <path id="Path_1675" data-name="Path 1675" d="M0,.553C.675.367,1.351.181,2.027,0V78.511q-1.017.383-2.027.778Z" transform="translate(208.563 10.596)" fill="#d1d3d4"/>
        <path id="Path_1676" data-name="Path 1676" d="M2.028,79.29C1.351,79.109.675,78.923,0,78.737V0Q1.012.395,2.028.778Z" transform="translate(208.563 478.25)" fill="#d1d3d4"/>
        <path id="Path_1677" data-name="Path 1677" d="M0,.872Q1.012.433,2.029,0V84.166Q1.01,84.806,0,85.458Z" transform="translate(171.354 23.422)" fill="#d1d3d4"/>
        <path id="Path_1678" data-name="Path 1678" d="M2.029,85.458Q1.013,85.025,0,84.585V0Q1.011.651,2.029,1.291Z" transform="translate(171.353 459.256)" fill="#d1d3d4"/>
        <path id="Path_1679" data-name="Path 1679" d="M2.029,102.843q-1.018-.7-2.029-1.41V0Q1,1.246,2.029,2.476Z" transform="translate(121.742 414.603)" fill="#d1d3d4"/>
        <path id="Path_1680" data-name="Path 1680" d="M0,1.41Q1.012.7,2.029,0V100.367Q1.005,101.6,0,102.843Z" transform="translate(121.742 50.689)" fill="#d1d3d4"/>
        <path id="Path_1681" data-name="Path 1681" d="M0,150.686V7.361Q.966,3.661,2.028,0V158.047Q.967,154.387,0,150.686" transform="translate(10.117 205.044)" fill="#d1d3d4"/>
        <path id="Path_1682" data-name="Path 1682" d="M2.028,76.855Q1.013,76.678,0,76.5V0Q1.012.253,2.028.5Z" transform="translate(233.368 486.144)" fill="#d1d3d4"/>
        <path id="Path_1683" data-name="Path 1683" d="M0,377.665V2.262Q1.008,1.124,2.028,0V379.927Q1.009,378.8,0,377.665" transform="translate(72.131 94.104)" fill="#d1d3d4"/>
        <path id="Path_1684" data-name="Path 1684" d="M0,348V2.6Q1.006,1.294,2.029,0V350.6Q1.007,349.308,0,348" transform="translate(59.729 108.767)" fill="#d1d3d4"/>
        <path id="Path_1685" data-name="Path 1685" d="M2.028,75.232c-.675.061-1.352.116-2.028.172V.242C.677.165,1.352.083,2.028,0Z" transform="translate(307.785 490.782)" fill="#d1d3d4"/>
        <path id="Path_1686" data-name="Path 1686" d="M0,.993Q1.012.492,2.029,0V86.967Q1.01,87.715,0,88.475Z" transform="translate(158.951 29.053)" fill="#d1d3d4"/>
        <path id="Path_1687" data-name="Path 1687" d="M2.029,88.475Q1.013,87.983,0,87.482V0Q1.011.759,2.029,1.508Z" transform="translate(158.95 450.608)" fill="#d1d3d4"/>
        <path id="Path_1688" data-name="Path 1688" d="M2.028,92.192Q1.012,91.637,0,91.074V0Q1.008.888,2.028,1.761Z" transform="translate(146.548 440.51)" fill="#d1d3d4"/>
        <path id="Path_1689" data-name="Path 1689" d="M0,1.118Q1.012.554,2.028,0V90.431Q1.009,91.305,0,92.192Z" transform="translate(146.548 35.434)" fill="#d1d3d4"/>
        <path id="Path_1690" data-name="Path 1690" d="M2.029,75.746c-.676.091-1.352.184-2.029.271V.365Q1.016.187,2.029,0Z" transform="translate(320.187 488.872)" fill="#d1d3d4"/>
        <path id="Path_1691" data-name="Path 1691" d="M0,313.646V3.044Q1,1.514,2.028,0V316.69Q1,315.175,0,313.646" transform="translate(47.325 125.723)" fill="#d1d3d4"/>
        <path id="Path_1692" data-name="Path 1692" d="M2.028,76.489c-.675.121-1.351.238-2.028.355V.495Q1.015.253,2.028,0Z" transform="translate(332.59 486.18)" fill="#d1d3d4"/>
        <path id="Path_1693" data-name="Path 1693" d="M2.029,74.917c-.676.032-1.352.064-2.029.09V.116C.678.079,1.354.042,2.029,0Z" transform="translate(295.381 491.94)" fill="#d1d3d4"/>
        <path id="Path_1694" data-name="Path 1694" d="M0,272.786V3.684Q1,1.834,2.029,0V276.471Q1,274.637,0,272.786" transform="translate(34.922 145.833)" fill="#d1d3d4"/>
        <path id="Path_1695" data-name="Path 1695" d="M2.086,2.955v323.2Q1.052,327.638,0,329.107V0Q1.051,1.47,2.086,2.955" transform="translate(514.46 119.514)" fill="#d1d3d4"/>
        <path id="Path_1696" data-name="Path 1696" d="M2.086,2.805v334.7Q1.051,338.919,0,340.315V0Q1.051,1.4,2.086,2.805" transform="translate(510.345 113.911)" fill="#d1d3d4"/>
        <path id="Path_1697" data-name="Path 1697" d="M2.086,2.545V358.736Q1.049,360.014,0,361.28V0Q1.05,1.265,2.086,2.545" transform="translate(502.057 103.427)" fill="#d1d3d4"/>
        <path id="Path_1698" data-name="Path 1698" d="M2.086,2.432v366.12Q1.049,369.774,0,370.985V0Q1.05,1.209,2.086,2.432" transform="translate(497.942 98.575)" fill="#d1d3d4"/>
        <path id="Path_1699" data-name="Path 1699" d="M2.086,176.215Q1.048,177.334,0,178.44V17.461Q1.4,8.843,2.086,0Z" transform="translate(489.655 300.256)" fill="#d1d3d4"/>
        <path id="Path_1700" data-name="Path 1700" d="M0,0Q1.048,1.108,2.086,2.225V178.44Q1.407,169.6,0,160.979Z" transform="translate(489.654 89.44)" fill="#d1d3d4"/>
        <path id="Path_1701" data-name="Path 1701" d="M0,0Q1.048,1.063,2.086,2.135V154.518q-.95-4.381-2.086-8.692Z" transform="translate(485.538 85.185)" fill="#d1d3d4"/>
        <path id="Path_1702" data-name="Path 1702" d="M2.086,152.382Q1.048,153.455,0,154.518V8.692Q1.132,4.382,2.086,0Z" transform="translate(485.539 328.433)" fill="#d1d3d4"/>
        <path id="Path_1703" data-name="Path 1703" d="M2.086,132.334Q1.048,133.323,0,134.3V5.377Q1.079,2.706,2.086,0Z" transform="translate(477.251 356.716)" fill="#d1d3d4"/>
        <path id="Path_1704" data-name="Path 1704" d="M0,0Q1.047.979,2.086,1.966V134.3Q1.08,131.593,0,128.923Z" transform="translate(477.251 77.12)" fill="#d1d3d4"/>
        <path id="Path_1705" data-name="Path 1705" d="M2.086,125.955q-1.038.951-2.086,1.891V4.649Q1.07,2.34,2.086,0Z" transform="translate(473.137 366.934)" fill="#d1d3d4"/>
        <path id="Path_1706" data-name="Path 1706" d="M0,0Q1.048.941,2.086,1.891V127.846Q1.071,125.506,0,123.2Z" transform="translate(473.136 73.356)" fill="#d1d3d4"/>
        <path id="Path_1707" data-name="Path 1707" d="M2.086,116.321C1.394,116.907.7,117.486,0,118.066V3.727Q1.063,1.874,2.086,0Z" transform="translate(464.848 383.873)" fill="#d1d3d4"/>
        <path id="Path_1708" data-name="Path 1708" d="M0,0Q1.047.869,2.086,1.747V118.067Q1.061,116.192,0,114.34Z" transform="translate(464.848 66.196)" fill="#d1d3d4"/>
        <path id="Path_1709" data-name="Path 1709" d="M2.086,112.558q-1.04.847-2.086,1.685V3.41Q1.06,1.716,2.086,0Z" transform="translate(460.733 391.05)" fill="#d1d3d4"/>
        <path id="Path_1710" data-name="Path 1710" d="M0,0Q1.047.837,2.086,1.685V114.242Q1.058,112.527,0,110.834Z" transform="translate(460.733 62.842)" fill="#d1d3d4"/>
        <path id="Path_1711" data-name="Path 1711" d="M2.086,106.321q-1.04.785-2.086,1.561V2.918Q1.056,1.469,2.086,0Z" transform="translate(452.446 403.791)" fill="#d1d3d4"/>
        <path id="Path_1712" data-name="Path 1712" d="M0,0Q1.047.777,2.086,1.561V107.882Q1.054,106.414,0,104.964Z" transform="translate(452.446 56.463)" fill="#d1d3d4"/>
        <path id="Path_1713" data-name="Path 1713" d="M2.086,103.729q-1.04.756-2.086,1.5V2.718Q1.054,1.368,2.086,0Z" transform="translate(448.33 409.437)" fill="#d1d3d4"/>
        <path id="Path_1714" data-name="Path 1714" d="M0,0Q1.047.748,2.086,1.5V105.232Q1.054,103.864,0,102.513Z" transform="translate(448.33 53.467)" fill="#d1d3d4"/>
        <path id="Path_1715" data-name="Path 1715" d="M2.086,99.247q-1.04.7-2.086,1.391V2.4Q1.053,1.207,2.086,0Z" transform="translate(440.043 419.725)" fill="#d1d3d4"/>
        <path id="Path_1716" data-name="Path 1716" d="M0,0Q1.045.691,2.086,1.391v99.247q-1.035-1.2-2.086-2.4Z" transform="translate(440.043 47.772)" fill="#d1d3d4"/>
        <path id="Path_1717" data-name="Path 1717" d="M2.086,97.315Q1.045,97.99,0,98.657V2.252Q1.05,1.134,2.086,0Z" transform="translate(435.928 424.376)" fill="#d1d3d4"/>
        <path id="Path_1718" data-name="Path 1718" d="M0,0Q1.047.667,2.086,1.343V98.657Q1.052,97.522,0,96.405Z" transform="translate(435.928 45.102)" fill="#d1d3d4"/>
        <path id="Path_1719" data-name="Path 1719" d="M0,0C.7.412,1.391.828,2.085,1.245V95.154Q1.051,94.141,0,93.141Z" transform="translate(427.64 40.02)" fill="#d1d3d4"/>
        <path id="Path_1720" data-name="Path 1720" d="M2.086,93.909Q1.045,94.535,0,95.154V2.014Q1.05,1.013,2.086,0Z" transform="translate(427.64 432.962)" fill="#d1d3d4"/>
        <path id="Path_1721" data-name="Path 1721" d="M0,0Q1.045.593,2.086,1.192V93.614Q1.049,92.652,0,91.707Z" transform="translate(423.525 37.645)" fill="#d1d3d4"/>
        <path id="Path_1722" data-name="Path 1722" d="M2.086,92.42q-1.04.6-2.086,1.193V1.906Q1.048.96,2.086,0Z" transform="translate(423.525 436.878)" fill="#d1d3d4"/>
        <path id="Path_1723" data-name="Path 1723" d="M2.086,89.746Q1.045,90.3,0,90.852V1.716Q1.048.866,2.086,0Z" transform="translate(415.238 444.16)" fill="#d1d3d4"/>
        <path id="Path_1724" data-name="Path 1724" d="M0,0Q1.045.548,2.086,1.106V90.852Q1.049,89.987,0,89.135Z" transform="translate(415.237 33.124)" fill="#d1d3d4"/>
        <path id="Path_1725" data-name="Path 1725" d="M2.086,88.563Q1.046,89.1,0,89.62V1.629Q1.048.821,2.086,0Z" transform="translate(411.122 447.503)" fill="#d1d3d4"/>
        <path id="Path_1726" data-name="Path 1726" d="M0,0C.7.351,1.393.7,2.086,1.057V89.62Q1.049,88.8,0,87.991Z" transform="translate(411.122 31.012)" fill="#d1d3d4"/>
        <path id="Path_1727" data-name="Path 1727" d="M2.086,86.415q-1.041.492-2.086.977V1.47Q1.047.741,2.086,0Z" transform="translate(402.834 453.734)" fill="#d1d3d4"/>
        <path id="Path_1728" data-name="Path 1728" d="M0,0Q1.045.485,2.086.977V87.391Q1.048,86.65,0,85.921Z" transform="translate(402.834 27.01)" fill="#d1d3d4"/>
        <path id="Path_1729" data-name="Path 1729" d="M0,0C.7.309,1.393.617,2.086.931V86.393Q1.048,85.688,0,85Z" transform="translate(398.719 25.146)" fill="#d1d3d4"/>
        <path id="Path_1730" data-name="Path 1730" d="M2.086,85.46c-.693.314-1.39.623-2.086.931V1.4Q1.047.7,2.086,0Z" transform="translate(398.72 456.598)" fill="#d1d3d4"/>
        <path id="Path_1731" data-name="Path 1731" d="M0,0Q1.045.424,2.086.858V84.575Q1.048,83.941,0,83.317Z" transform="translate(390.431 21.627)" fill="#d1d3d4"/>
        <path id="Path_1732" data-name="Path 1732" d="M2.086,83.717Q1.045,84.15,0,84.575V1.258Q1.047.635,2.086,0Z" transform="translate(390.431 461.933)" fill="#d1d3d4"/>
        <path id="Path_1733" data-name="Path 1733" d="M0,0C.7.27,1.393.54,2.086.815V83.756Q1.048,83.153,0,82.563Z" transform="translate(386.316 19.998)" fill="#d1d3d4"/>
        <path id="Path_1734" data-name="Path 1734" d="M2.086,82.941c-.694.276-1.39.546-2.086.816V1.193Q1.047.6,2.086,0Z" transform="translate(386.317 464.382)" fill="#d1d3d4"/>
        <path id="Path_1735" data-name="Path 1735" d="M0,0C.7.245,1.392.5,2.086.748V82.267Q1.046,81.724,0,81.195Z" transform="translate(378.029 16.93)" fill="#d1d3d4"/>
        <path id="Path_1736" data-name="Path 1736" d="M2.086,81.519c-.7.251-1.389.5-2.086.748V1.071Q1.047.542,2.086,0Z" transform="translate(378.029 468.94)" fill="#d1d3d4"/>
        <path id="Path_1737" data-name="Path 1737" d="M2.086,80.881q-1.041.357-2.086.708V1.014Q1.047.512,2.086,0Z" transform="translate(373.913 471.025)" fill="#d1d3d4"/>
        <path id="Path_1738" data-name="Path 1738" d="M0,0Q1.045.35,2.086.708V81.589Q1.046,81.077,0,80.575Z" transform="translate(373.913 15.523)" fill="#d1d3d4"/>
        <path id="Path_1739" data-name="Path 1739" d="M0,0Q1.045.314,2.086.634V80.359Q1.046,79.9,0,79.459Z" transform="translate(365.626 12.892)" fill="#d1d3d4"/>
        <path id="Path_1740" data-name="Path 1740" d="M2.086,79.725Q1.045,80.046,0,80.36V.9Q1.045.456,2.086,0Z" transform="translate(365.626 474.884)" fill="#d1d3d4"/>
        <path id="Path_1741" data-name="Path 1741" d="M0,0C.7.2,1.391.4,2.086.605V79.813Q1.046,79.383,0,78.964Z" transform="translate(361.511 11.687)" fill="#d1d3d4"/>
        <path id="Path_1742" data-name="Path 1742" d="M2.086,79.207c-.695.2-1.389.408-2.086.605V.848Q1.046.429,2.086,0Z" transform="translate(361.511 476.636)" fill="#d1d3d4"/>
        <path id="Path_1743" data-name="Path 1743" d="M2.086,78.273c-.694.18-1.39.355-2.086.529V.749Q1.046.38,2.086,0Z" transform="translate(353.223 479.857)" fill="#d1d3d4"/>
        <path id="Path_1744" data-name="Path 1744" d="M0,0Q1.044.262,2.086.529V78.8Q1.045,78.423,0,78.054Z" transform="translate(353.223 9.477)" fill="#d1d3d4"/>
        <path id="Path_1745" data-name="Path 1745" d="M2.086,77.858c-.694.169-1.39.332-2.086.5V.7Q1.045.352,2.086,0Z" transform="translate(349.108 481.306)" fill="#d1d3d4"/>
        <path id="Path_1746" data-name="Path 1746" d="M0,0C.7.164,1.392.327,2.086.5V78.354Q1.046,78,0,77.658Z" transform="translate(349.108 8.476)" fill="#d1d3d4"/>
        <path id="Path_1747" data-name="Path 1747" d="M2.086,77.112c-.7.147-1.389.295-2.086.437V.6Q1.045.307,2.086,0Z" transform="translate(340.821 483.931)" fill="#d1d3d4"/>
        <path id="Path_1748" data-name="Path 1748" d="M2.086,76.785q-1.043.2-2.086.4V.553Q1.044.281,2.086,0Z" transform="translate(336.705 485.097)" fill="#d1d3d4"/>
        <path id="Path_1749" data-name="Path 1749" d="M2.086,76.218C1.392,76.332.7,76.44,0,76.55V.466Q1.045.239,2.086,0Z" transform="translate(328.417 487.163)" fill="#d1d3d4"/>
        <path id="Path_1750" data-name="Path 1750" d="M2.086,75.969c-.7.1-1.39.206-2.086.3V.416Q1.044.213,2.086,0Z" transform="translate(324.303 488.057)" fill="#d1d3d4"/>
        <path id="Path_1751" data-name="Path 1751" d="M2.086,75.549c-.7.083-1.39.167-2.086.245V.333Q1.044.171,2.086,0Z" transform="translate(316.014 489.593)" fill="#d1d3d4"/>
        <path id="Path_1752" data-name="Path 1752" d="M2.086,75.38q-1.043.11-2.086.211V.288Q1.044.149,2.086,0Z" transform="translate(311.9 490.225)" fill="#d1d3d4"/>
        <path id="Path_1753" data-name="Path 1753" d="M2.086,75.107c-.694.052-1.391.1-2.086.146V.2Q1.044.106,2.086,0Z" transform="translate(303.612 491.25)" fill="#d1d3d4"/>
        <path id="Path_1754" data-name="Path 1754" d="M2.086,75q-1.042.062-2.086.119V.165Q1.044.088,2.086,0Z" transform="translate(299.497 491.631)" fill="#d1d3d4"/>
        <path id="Path_1755" data-name="Path 1755" d="M2.086,74.862c-.695.022-1.39.046-2.086.064V.081Q1.044.045,2.086,0Z" transform="translate(291.209 492.156)" fill="#d1d3d4"/>
        <path id="Path_1756" data-name="Path 1756" d="M2.086,74.823q-1.043.019-2.086.032V.04Q1.044.025,2.086,0Z" transform="translate(287.094 492.298)" fill="#d1d3d4"/>
        <path id="Path_1757" data-name="Path 1757" d="M2.086,74.857C1.39,74.849.7,74.835,0,74.823V0C.694.017,1.39.029,2.086.04Z" transform="translate(278.806 492.295)" fill="#d1d3d4"/>
        <path id="Path_1758" data-name="Path 1758" d="M2.086,74.93C1.389,74.912.7,74.886,0,74.864V0C.694.03,1.39.059,2.086.083Z" transform="translate(274.691 492.149)" fill="#d1d3d4"/>
        <path id="Path_1759" data-name="Path 1759" d="M2.086,75.127Q1.042,75.071,0,75.009V0Q1.041.088,2.086.167Z" transform="translate(266.404 491.618)" fill="#d1d3d4"/>
        <path id="Path_1760" data-name="Path 1760" d="M2.086,75.259C1.39,75.21.694,75.166,0,75.113V0Q1.041.108,2.086.2Z" transform="translate(262.289 491.234)" fill="#d1d3d4"/>
        <path id="Path_1761" data-name="Path 1761" d="M2.086,75.6Q1.042,75.5,0,75.386V0Q1.041.15,2.086.29Z" transform="translate(254.001 490.203)" fill="#d1d3d4"/>
        <path id="Path_1762" data-name="Path 1762" d="M2.086,75.8C1.389,75.722.7,75.638,0,75.554V0Q1.041.172,2.086.333Z" transform="translate(249.886 489.569)" fill="#d1d3d4"/>
        <path id="Path_1763" data-name="Path 1763" d="M2.086,76.284Q1.042,76.135,0,75.979V0Q1.041.215,2.086.42Z" transform="translate(241.598 488.025)" fill="#d1d3d4"/>
        <path id="Path_1764" data-name="Path 1764" d="M2.086,76.56c-.7-.11-1.392-.217-2.086-.333V0Q1.041.239,2.086.468Z" transform="translate(237.483 487.129)" fill="#d1d3d4"/>
        <path id="Path_1765" data-name="Path 1765" d="M2.086,77.2Q1.041,77,0,76.8V0Q1.04.283,2.086.555Z" transform="translate(229.195 485.055)" fill="#d1d3d4"/>
        <path id="Path_1766" data-name="Path 1766" d="M2.086,77.562C1.389,77.42.7,77.271,0,77.124V0Q1.041.307,2.086.6Z" transform="translate(225.081 483.888)" fill="#d1d3d4"/>
        <path id="Path_1767" data-name="Path 1767" d="M0,.5C.694.326,1.391.164,2.086,0V77.672q-1.045.344-2.086.7Z" transform="translate(216.792 8.511)" fill="#d1d3d4"/>
        <path id="Path_1768" data-name="Path 1768" d="M2.086,78.37c-.7-.164-1.393-.326-2.086-.5V0Q1.04.356,2.086.7Z" transform="translate(216.792 481.254)" fill="#d1d3d4"/>
        <path id="Path_1769" data-name="Path 1769" d="M0,.531Q1.041.261,2.086,0V78.068q-1.045.369-2.086.75Z" transform="translate(212.677 9.515)" fill="#d1d3d4"/>
        <path id="Path_1770" data-name="Path 1770" d="M2.086,78.819c-.7-.175-1.392-.351-2.086-.531V0Q1.041.38,2.086.75Z" transform="translate(212.677 479.803)" fill="#d1d3d4"/>
        <path id="Path_1771" data-name="Path 1771" d="M0,.606C.7.4,1.389.2,2.086,0V78.982Q1.041,79.4,0,79.833Z" transform="translate(204.389 11.73)" fill="#d1d3d4"/>
        <path id="Path_1772" data-name="Path 1772" d="M2.086,79.833c-.7-.2-1.391-.4-2.086-.606V0Q1.04.431,2.086.851Z" transform="translate(204.389 476.573)" fill="#d1d3d4"/>
        <path id="Path_1773" data-name="Path 1773" d="M0,.634Q1.041.312,2.086,0V79.477q-1.045.445-2.086.9Z" transform="translate(200.274 12.938)" fill="#d1d3d4"/>
        <path id="Path_1774" data-name="Path 1774" d="M2.086,80.38Q1.042,80.066,0,79.745V0Q1.04.457,2.086.9Z" transform="translate(200.274 474.818)" fill="#d1d3d4"/>
        <path id="Path_1775" data-name="Path 1775" d="M2.086,81.613Q1.041,81.263,0,80.9V0Q1.04.515,2.086,1.017Z" transform="translate(191.987 470.95)" fill="#d1d3d4"/>
        <path id="Path_1776" data-name="Path 1776" d="M0,.709Q1.041.351,2.086,0V80.6Q1.041,81.1,0,81.613Z" transform="translate(191.987 15.572)" fill="#d1d3d4"/>
        <path id="Path_1777" data-name="Path 1777" d="M2.086,82.293c-.7-.246-1.392-.5-2.086-.749V0Q1.04.544,2.086,1.074Z" transform="translate(187.872 468.86)" fill="#d1d3d4"/>
        <path id="Path_1778" data-name="Path 1778" d="M0,.749C.7.5,1.389.246,2.086,0V81.218Q1.039,81.749,0,82.292Z" transform="translate(187.872 16.983)" fill="#d1d3d4"/>
        <path id="Path_1779" data-name="Path 1779" d="M2.086,83.785c-.7-.27-1.393-.542-2.086-.817V0Q1.04.6,2.086,1.2Z" transform="translate(179.584 464.295)" fill="#d1d3d4"/>
        <path id="Path_1780" data-name="Path 1780" d="M0,.817Q1.041.4,2.086,0V82.59q-1.047.591-2.086,1.2Z" transform="translate(179.584 20.056)" fill="#d1d3d4"/>
        <path id="Path_1781" data-name="Path 1781" d="M2.086,84.607Q1.041,84.182,0,83.747V0Q1.038.636,2.086,1.26Z" transform="translate(175.469 461.842)" fill="#d1d3d4"/>
        <path id="Path_1782" data-name="Path 1782" d="M0,.86C.694.572,1.389.283,2.086,0V83.346Q1.039,83.971,0,84.607Z" transform="translate(175.469 21.688)" fill="#d1d3d4"/>
        <path id="Path_1783" data-name="Path 1783" d="M0,.933C.693.618,1.39.309,2.086,0V85.029q-1.047.694-2.086,1.4Z" transform="translate(167.181 25.214)" fill="#d1d3d4"/>
        <path id="Path_1784" data-name="Path 1784" d="M2.086,86.428Q1.041,85.964,0,85.5V0Q1.038.706,2.086,1.4Z" transform="translate(167.181 456.494)" fill="#d1d3d4"/>
        <path id="Path_1785" data-name="Path 1785" d="M2.086,87.43Q1.041,86.945,0,86.45V0Q1.038.742,2.086,1.472Z" transform="translate(163.066 453.626)" fill="#d1d3d4"/>
        <path id="Path_1786" data-name="Path 1786" d="M0,.979Q1.04.486,2.085,0V85.958Q1.038,86.688,0,87.431Z" transform="translate(163.066 27.078)" fill="#d1d3d4"/>
        <path id="Path_1787" data-name="Path 1787" d="M0,1.059C.693.7,1.39.351,2.086,0V88.03Q1.038,88.84,0,89.663Z" transform="translate(154.778 31.089)" fill="#d1d3d4"/>
        <path id="Path_1788" data-name="Path 1788" d="M2.086,89.664Q1.039,89.138,0,88.6V0Q1.037.823,2.086,1.633Z" transform="translate(154.779 447.384)" fill="#d1d3d4"/>
        <path id="Path_1789" data-name="Path 1789" d="M0,1.108Q1.041.551,2.086,0V89.179Q1.038,90.033,0,90.9Z" transform="translate(150.663 33.202)" fill="#d1d3d4"/>
        <path id="Path_1790" data-name="Path 1790" d="M2.086,90.9c-.7-.365-1.392-.736-2.086-1.108V0Q1.037.866,2.086,1.719Z" transform="translate(150.664 444.036)" fill="#d1d3d4"/>
        <path id="Path_1791" data-name="Path 1791" d="M2.086,93.666Q1.041,93.072,0,92.471V0Q1.035.962,2.086,1.909Z" transform="translate(142.375 436.741)" fill="#d1d3d4"/>
        <path id="Path_1792" data-name="Path 1792" d="M0,1.2Q1.04.592,2.086,0V91.757Q1.038,92.7,0,93.666Z" transform="translate(142.375 37.729)" fill="#d1d3d4"/>
        <path id="Path_1793" data-name="Path 1793" d="M0,1.248Q1.041.621,2.086,0V93.2Q1.035,94.2,0,95.215Z" transform="translate(138.26 40.107)" fill="#d1d3d4"/>
        <path id="Path_1794" data-name="Path 1794" d="M2.086,95.215Q1.039,94.595,0,93.966V0Q1.037,1.017,2.086,2.02Z" transform="translate(138.26 432.814)" fill="#d1d3d4"/>
        <path id="Path_1795" data-name="Path 1795" d="M0,1.346Q1.041.669,2.086,0V96.469Q1.036,97.591,0,98.725Z" transform="translate(129.973 45.197)" fill="#d1d3d4"/>
        <path id="Path_1796" data-name="Path 1796" d="M2.086,98.725Q1.039,98.057,0,97.379V0Q1.034,1.137,2.086,2.256Z" transform="translate(129.973 424.214)" fill="#d1d3d4"/>
        <path id="Path_1797" data-name="Path 1797" d="M2.086,100.714c-.7-.462-1.394-.923-2.086-1.391V0Q1.034,1.207,2.086,2.4Z" transform="translate(125.857 419.551)" fill="#d1d3d4"/>
        <path id="Path_1798" data-name="Path 1798" d="M0,1.391Q1.04.69,2.086,0V98.313Q1.033,99.5,0,100.714Z" transform="translate(125.857 47.873)" fill="#d1d3d4"/>
        <path id="Path_1799" data-name="Path 1799" d="M2.086,105.321q-1.045-.748-2.086-1.5V0Q1.031,1.371,2.086,2.723Z" transform="translate(117.57 409.24)" fill="#d1d3d4"/>
        <path id="Path_1800" data-name="Path 1800" d="M0,1.5Q1.04.747,2.086,0V102.6Q1.032,103.952,0,105.321Z" transform="translate(117.57 53.575)" fill="#d1d3d4"/>
        <path id="Path_1801" data-name="Path 1801" d="M2.086,107.984Q1.039,107.207,0,106.42V0Q1.031,1.471,2.086,2.924Z" transform="translate(113.455 403.579)" fill="#d1d3d4"/>
        <path id="Path_1802" data-name="Path 1802" d="M0,1.564Q1.04.777,2.086,0V105.06Q1.03,106.512,0,107.984Z" transform="translate(113.455 56.572)" fill="#d1d3d4"/>
        <path id="Path_1803" data-name="Path 1803" d="M2.086,114.372Q1.038,113.534,0,112.683V0Q1.028,1.719,2.086,3.421Z" transform="translate(105.167 390.803)" fill="#d1d3d4"/>
        <path id="Path_1804" data-name="Path 1804" d="M0,1.688Q1.04.839,2.086,0V110.951q-1.06,1.7-2.086,3.421Z" transform="translate(105.167 62.962)" fill="#d1d3d4"/>
        <path id="Path_1805" data-name="Path 1805" d="M0,1.75Q1.038.869,2.086,0V114.479Q1.025,116.334,0,118.214Z" transform="translate(101.052 66.32)" fill="#d1d3d4"/>
        <path id="Path_1806" data-name="Path 1806" d="M2.086,118.214q-1.047-.871-2.086-1.75V0Q1.024,1.88,2.086,3.734Z" transform="translate(101.052 383.602)" fill="#d1d3d4"/>
        <path id="Path_1807" data-name="Path 1807" d="M0,1.894Q1.038.941,2.086,0V123.388Q1.016,125.707,0,128.059Z" transform="translate(92.764 73.489)" fill="#d1d3d4"/>
        <path id="Path_1808" data-name="Path 1808" d="M2.086,128.059Q1.038,127.116,0,126.165V0Q1.015,2.351,2.086,4.671Z" transform="translate(92.765 366.587)" fill="#d1d3d4"/>
        <path id="Path_1809" data-name="Path 1809" d="M2.086,134.559Q1.039,133.58,0,132.592V0Q1,2.721,2.086,5.405Z" transform="translate(88.649 356.316)" fill="#d1d3d4"/>
        <path id="Path_1810" data-name="Path 1810" d="M0,1.967Q1.037.977,2.086,0V129.154Q1.007,131.838,0,134.559Z" transform="translate(88.649 77.261)" fill="#d1d3d4"/>
        <path id="Path_1811" data-name="Path 1811" d="M0,2.139Q1.037,1.065,2.085,0V146.24Q.95,150.62,0,155.074Z" transform="translate(80.362 85.336)" fill="#d1d3d4"/>
        <path id="Path_1812" data-name="Path 1812" d="M2.086,155.074Q1.038,154.01,0,152.935V0Q.95,4.452,2.086,8.834Z" transform="translate(80.362 327.726)" fill="#d1d3d4"/>
        <path id="Path_1813" data-name="Path 1813" d="M0,2.229Q1.037,1.108,2.086,0V161.759Q.637,170.95,0,180.394Z" transform="translate(76.247 89.598)" fill="#d1d3d4"/>
        <path id="Path_1814" data-name="Path 1814" d="M2.086,180.395Q1.038,179.286,0,178.166V0Q.629,9.439,2.086,18.636Z" transform="translate(76.247 298.143)" fill="#d1d3d4"/>
        <path id="Path_1815" data-name="Path 1815" d="M0,368.208V2.437Q1.037,1.212,2.086,0V370.644Q1.036,369.432,0,368.208" transform="translate(67.958 98.746)" fill="#d1d3d4"/>
        <path id="Path_1816" data-name="Path 1816" d="M0,358.374V2.55Q1.034,1.269,2.085,0V360.924q-1.05-1.268-2.085-2.55" transform="translate(63.844 103.606)" fill="#d1d3d4"/>
        <path id="Path_1817" data-name="Path 1817" d="M0,337.11V2.81Q1.034,1.4,2.086,0V339.92q-1.051-1.4-2.086-2.81" transform="translate(55.556 114.107)" fill="#d1d3d4"/>
        <path id="Path_1818" data-name="Path 1818" d="M0,325.732V2.959Q1.034,1.473,2.086,0V328.692Q1.035,327.218,0,325.732" transform="translate(51.44 119.721)" fill="#d1d3d4"/>
        <path id="Path_1819" data-name="Path 1819" d="M0,300.829V3.323Q1.032,1.654,2.086,0V304.152Q1.032,302.5,0,300.829" transform="translate(43.153 131.992)" fill="#d1d3d4"/>
        <path id="Path_1820" data-name="Path 1820" d="M0,287.31V3.535Q1.031,1.759,2.086,0V290.845Q1.031,289.085,0,287.31" transform="translate(39.038 138.645)" fill="#d1d3d4"/>
        <path id="Path_1821" data-name="Path 1821" d="M0,257.15V4.082Q1.027,2.031,2.086,0V261.233Q1.028,259.2,0,257.15" transform="translate(30.75 153.451)" fill="#d1d3d4"/>
        <path id="Path_1822" data-name="Path 1822" d="M0,240.35V4.452Q1.027,2.216,2.086,0V244.8Q1.023,242.587,0,240.35" transform="translate(26.635 161.667)" fill="#d1d3d4"/>
        <path id="Path_1823" data-name="Path 1823" d="M0,201.263V5.485Q1.015,2.729,2.086,0V206.749q-1.07-2.73-2.086-5.486" transform="translate(18.348 180.694)" fill="#d1d3d4"/>
        <path id="Path_1824" data-name="Path 1824" d="M0,178.075V6.3Q1.008,3.134,2.086,0V184.378q-1.079-3.135-2.086-6.3" transform="translate(14.232 191.879)" fill="#d1d3d4"/>
        <path id="Path_1825" data-name="Path 1825" d="M0,116.253V9.989Q.953,4.963,2.085,0V126.242Q.956,121.279,0,116.253" transform="translate(5.945 220.947)" fill="#d1d3d4"/>
        <path id="Path_1826" data-name="Path 1826" d="M.866,63.26Q.008,52.24,0,40.993T.866,18.728Q1.6,9.273,2.952,0V81.987Q1.607,72.718.866,63.26" transform="translate(0.964 243.074)" fill="#d1d3d4"/>
      </g>
    </g>
  </g>
</svg>
