<svg xmlns="http://www.w3.org/2000/svg" xmlns:xlink="http://www.w3.org/1999/xlink" width="40" height="40" viewBox="0 0 40 40">
  <defs>
    <clipPath id="clip-path">
      <rect id="Rectangle_8" data-name="Rectangle 8" width="40" height="40" fill="none"/>
    </clipPath>
  </defs>
  <g id="Group_3" data-name="Group 3" clip-path="url(#clip-path)">
    <path id="Path_32" data-name="Path 32" d="M25.116,21.31c-.807.109-2.39.271-3.153.347-.694.071-1.444.108-2.225.151-.7.04-1.422.007-2.162.013a18.279,18.279,0,0,1-2.233-.084,17.528,17.528,0,0,1-2.248-.449c-.845-.1-1.485-.258-2.2-.413A11.249,11.249,0,0,0,9.353,20.6a2.169,2.169,0,0,1-.191-.346,12.548,12.548,0,0,1-.773-2.122,27.739,27.739,0,0,1-.582-2.868,4.1,4.1,0,0,0-.3-1.071,6.314,6.314,0,0,1-.166-1.8C7.3,11.665,7.27,9.882,7.3,9.146A7.885,7.885,0,0,1,7.6,7.123a11.442,11.442,0,0,1,.835-2.107,7.763,7.763,0,0,1,.8-1.6,12.923,12.923,0,0,1,.785-1.053,1.132,1.132,0,0,1,.212-.063c.551-.18,1.053-.238,1.341-.326.068-.007.357.024.424.024.123,0,.918.027,2.1.056.618.015,1.342.073,2.129.088.706.017,1.466.024,2.248.038.715.012,1.45-.021,2.182-.012.674.009,1.346.062,2,.064.705,0,1.388-.023,2.026-.029.718-.007,1.38-.035,1.955-.056a17.266,17.266,0,0,0,1.916-.1,8.8,8.8,0,0,1,1.67-.21,1.316,1.316,0,0,1,.277.123,6.542,6.542,0,0,1,.927.576A26.975,26.975,0,0,0,31.449,5.6c.068.66.186,1.407.287,2.178.1.724.142,1.3.245,2s.356,1.713.441,2.278c.16,1.028.2.473.347,1.333a22.49,22.49,0,0,1,.206,2.276,16.32,16.32,0,0,1-.168,3.008,2.1,2.1,0,0,1-.679,1.441,11.673,11.673,0,0,1-1.826.4c-.836.134-.77.035-1.272.134a15.8,15.8,0,0,1-2.478.288c-.83.08-.2.147-1.165.279-.073.011-.171.08-.271.093" transform="translate(0.668 0.167)" fill="#293896"/>
    <path id="Path_33" data-name="Path 33" d="M11.175,3.47c.29-.64.544-.593,1.153-.635A7.348,7.348,0,0,1,13.7,3a3.924,3.924,0,0,1,.9.082,7.5,7.5,0,0,0,1.034.167c.46.07,1.854.376,2.4.433.488.05,1,.307,1.527.346.5.037,1.009.081,1.515.1s1.015.039,1.505.052c.525.009,1.037-.095,1.515-.1.526-.007,1.013-.1,1.445-.133a6.727,6.727,0,0,0,1.392-.227,3.127,3.127,0,0,1,1.515-.079,1.357,1.357,0,0,1,1.127.8,6.373,6.373,0,0,1,.167,1.427c.048.324-.1.868-.111,1.533-.007.452.019.963.024,1.5,0,.492.079,1.007.088,1.532.011.509.007,1.023.02,1.526.015.534.041,1.047.058,1.531.017.544.029,1.041.045,1.466a6.311,6.311,0,0,1,.078,1.46c-.075.734.165.87-.534,1.418a2.521,2.521,0,0,1-1.34.556c-.188.019-.669.172-1.383.346-.4.1-.866.2-1.389.321-.422.1-.908.162-1.4.259-.441.086-.9.135-1.392.214-.442.071-.921.091-1.4.15-.445.056-.914.011-1.382.052-.431.038-.869.078-1.314.1-.362.015.008.118-.189.182a3.5,3.5,0,0,1-1.415.079c-.427-.005-.847,0-1.371-.032-.453-.026-.956-.067-1.429-.119s-.929-.194-1.371-.282a8.707,8.707,0,0,1-1.4-.249,2.063,2.063,0,0,1-1.082-.722,5.023,5.023,0,0,1-.234-1.5c-.035-.416-.008-.9-.012-1.43,0-.44-.083-.91-.069-1.406.011-.462.005-.942.031-1.434.026-.461.046-.933.079-1.405s.166-.936.207-1.4.128-.931.172-1.385.037-.922.086-1.355c.058-.478.177-.924.236-1.343.071-.516.021-1,.092-1.381a2.6,2.6,0,0,1,.439-1.176" transform="translate(0.902 0.258)" fill="#fff"/>
    <path id="Path_34" data-name="Path 34" d="M35.852,28.593a8.448,8.448,0,0,1-2.355.353c-.5-.012-1.228.062-2.129.1-.636.025-1.3-.09-2.09-.044-.642.036-1.332.027-2.052.078s-1.462.134-2.233.192c-.7.055-1.094-.028-1.82.034s-1.3-.176-2.049-.1c-.675.068-1.845.078-2.52.15-.691.073-1.485.346-2.164.428-.7.08-1.275.028-1.945.117-.7.094-1.5.322-2.16.422-.692.106-1.356.218-1.979.332-.672.121-1.311.192-1.878.323-.525.118-.986.3-1.4.427a15.579,15.579,0,0,1-2.362.565c-1.286.179-1.862-.084-2.216-.6a4.6,4.6,0,0,1-.51-1.849,10.375,10.375,0,0,0-.207-1.143c-.2-1.059-.372-1.733.263-2.4a5.407,5.407,0,0,1,1.6-1.064A10.328,10.328,0,0,1,5.624,23.9c.548-.221,1.225-.46,2.024-.719.621-.2,1.342-.333,2.122-.548.646-.174,1.345-.347,2.1-.52.671-.152,1.374-.362,2.139-.508.678-.132,1.393-.257,2.145-.378.723-.118,1.486-.2,2.281-.306.706-.093,1.443-.158,2.209-.241.678-.071,1.374-.2,2.1-.265.7-.059,1.681.01,2.429-.039.663-.043,1.095-.176,1.794-.21.68-.035,1.381-.048,2.1-.07.7-.021,1.416-.041,2.151-.051.608-.011,1.23-.046,1.866-.05a5.41,5.41,0,0,1,2.555.393c.779.5.691.794.723,1.776a6.527,6.527,0,0,0,.111,1.663c.192,1.18.217,2.211.3,3.238.04.531-.314.993-.912,1.533" transform="translate(0.147 1.832)" fill="#293896"/>
    <path id="Path_35" data-name="Path 35" d="M7.046,26.359a.66.66,0,0,0,.664-.69.719.719,0,0,0-.664-.754.683.683,0,0,0-.617.754.624.624,0,0,0,.617.69" transform="translate(0.59 2.284)" fill="#fff"/>
    <path id="Path_36" data-name="Path 36" d="M10.7,28.166a.666.666,0,0,0,.682-.687.634.634,0,0,0-.682-.612.61.61,0,0,0-.652.612c-.015.9.474.659.652.687" transform="translate(0.922 2.463)" fill="#fff"/>
    <path id="Path_37" data-name="Path 37" d="M8.635,28.608a.723.723,0,0,0,.688-.711.679.679,0,0,0-.688-.659.622.622,0,0,0-.619.659.667.667,0,0,0,.619.711" transform="translate(0.735 2.497)" fill="#fff"/>
    <path id="Path_38" data-name="Path 38" d="M16.668,26a.727.727,0,0,0,.694-.71.643.643,0,0,0-.694-.608c-.369,0-.818.148-.658.63.118.347.289.688.658.688" transform="translate(1.465 2.262)" fill="#fff"/>
    <path id="Path_39" data-name="Path 39" d="M13.182,26.727A.619.619,0,0,0,13.8,26.1a.6.6,0,0,0-.615-.6.557.557,0,0,0-.562.6.578.578,0,0,0,.562.623" transform="translate(1.157 2.337)" fill="#fff"/>
    <path id="Path_40" data-name="Path 40" d="M11.554,26.283c.359.081.643-.31.643-.676a.654.654,0,0,0-.643-.678.666.666,0,0,0-.659.678c0,.366-.01.528.659.676" transform="translate(0.999 2.285)" fill="#fff"/>
    <path id="Path_41" data-name="Path 41" d="M15.2,24.067c.369,0,.655-.095.655-.465a.692.692,0,0,0-.718-.641.672.672,0,0,0-.7.641c0,.37.393.465.762.465" transform="translate(1.324 2.104)" fill="#fff"/>
    <path id="Path_42" data-name="Path 42" d="M16.917,23.186a.687.687,0,0,0,.7-.656.7.7,0,0,0-1.394,0,.68.68,0,0,0,.694.656" transform="translate(1.488 2.007)" fill="#fff"/>
    <path id="Path_43" data-name="Path 43" d="M6.514,28.618a.476.476,0,0,0,.478-.5.518.518,0,0,0-.478-.544.492.492,0,0,0-.445.544.45.45,0,0,0,.445.5" transform="translate(0.557 2.528)" fill="#fff203"/>
    <path id="Path_44" data-name="Path 44" d="M11.779,23.78a.522.522,0,0,0,.5-.513.49.49,0,0,0-.5-.476.447.447,0,0,0-.447.476.48.48,0,0,0,.447.513" transform="translate(1.039 2.089)" fill="#fff203"/>
    <path id="Path_45" data-name="Path 45" d="M9.716,25.864c.267,0,.475-.069.475-.335a.5.5,0,0,0-.52-.463.485.485,0,0,0-.5.463c0,.266.284.335.549.335" transform="translate(0.841 2.297)" fill="#fff203"/>
    <path id="Path_46" data-name="Path 46" d="M15.093,26.948a.494.494,0,0,0,.505-.472.505.505,0,0,0-1.007,0,.49.49,0,0,0,.5.472" transform="translate(1.338 2.385)" fill="#fff203"/>
    <path id="Path_47" data-name="Path 47" d="M23.865,27.25a.966.966,0,0,0,.942-.957.979.979,0,0,0-.963-.951.9.9,0,0,0-.858.955.91.91,0,0,0,.879.953" transform="translate(2.108 2.323)" fill="#fff203"/>
    <path id="Path_48" data-name="Path 48" d="M22.85,24.316a1.009,1.009,0,0,0,.983-.967.963.963,0,0,0-.983-.91.888.888,0,0,0-.9.91.935.935,0,0,0,.9.967" transform="translate(2.013 2.056)" fill="#fff203"/>
    <path id="Path_49" data-name="Path 49" d="M27.874,24.531a.883.883,0,0,0,.914-.888.861.861,0,0,0-.914-.862.809.809,0,0,0-.849.862.831.831,0,0,0,.849.888" transform="translate(2.478 2.088)" fill="#fff203"/>
    <path id="Path_50" data-name="Path 50" d="M26.1,26.193a.983.983,0,0,0,.926-.993.854.854,0,0,0-.926-.838.936.936,0,0,0-1.015.838,1.063,1.063,0,0,0,1.015.993" transform="translate(2.3 2.233)" fill="#fff203"/>
    <rect id="Rectangle_2" data-name="Rectangle 2" width="1.462" height="1.46" transform="translate(15.351 6.871)" fill="none" stroke="#293896" stroke-width="0.266"/>
    <rect id="Rectangle_3" data-name="Rectangle 3" width="1.462" height="1.461" transform="translate(26.333 5.695)" fill="none" stroke="#293896" stroke-width="0.266"/>
    <rect id="Rectangle_4" data-name="Rectangle 4" width="1.462" height="1.457" transform="translate(28.403 12.381)" fill="none" stroke="#293896" stroke-width="0.266"/>
    <rect id="Rectangle_5" data-name="Rectangle 5" width="1.463" height="1.46" transform="translate(21.847 13.891)" fill="none" stroke="#293896" stroke-width="0.266"/>
    <rect id="Rectangle_6" data-name="Rectangle 6" width="1.46" height="1.46" transform="translate(18.621 13.505)" fill="none" stroke="#293896" stroke-width="0.266"/>
    <path id="Path_51" data-name="Path 51" d="M12.415,15.662l.663-1.3-1.3-.663L11.112,15Z" transform="translate(1.019 1.255)" fill="none" stroke="#293896" stroke-width="0.266"/>
    <path id="Path_52" data-name="Path 52" d="M14.644,8.966,12.7,13.524l5.6-1.883,7.592-4.314v-.79" transform="translate(1.164 0.598)" fill="none" stroke="#293896" stroke-width="0.266"/>
    <path id="Path_53" data-name="Path 53" d="M14.816,8.514l5.237.791,5.539-1.825,2.184,2.656-3,.568" transform="translate(1.359 0.685)" fill="none" stroke="#293896" stroke-width="0.266"/>
    <path id="Path_54" data-name="Path 54" d="M24.109,10.311l-3.592,1.823L19.7,9.765" transform="translate(1.806 0.894)" fill="none" stroke="#293896" stroke-width="0.266"/>
    <line id="Line_1" data-name="Line 1" x2="2.67" y2="0.203" transform="translate(19.644 12.481)" fill="none" stroke="#293896" stroke-width="0.266"/>
    <path id="Path_55" data-name="Path 55" d="M20.965,11.981,14.717,8.47V7.68" transform="translate(1.35 0.703)" fill="none" stroke="#293896" stroke-width="0.266"/>
    <line id="Line_2" data-name="Line 2" x1="0.881" y2="2.858" transform="translate(26.13 7.814)" fill="none" stroke="#293896" stroke-width="0.266"/>
    <line id="Line_3" data-name="Line 3" x1="0.019" y2="0.61" transform="translate(29.064 11.751)" fill="none" stroke="#293896" stroke-width="0.266"/>
    <line id="Line_4" data-name="Line 4" x1="0.3" y2="0.536" transform="translate(13.355 14.832)" fill="none" stroke="#293896" stroke-width="0.266"/>
    <line id="Line_5" data-name="Line 5" x1="0.001" y2="0.438" transform="translate(19.338 13.088)" fill="none" stroke="#293896" stroke-width="0.266"/>
    <line id="Line_6" data-name="Line 6" y2="0.486" transform="translate(22.518 13.47)" fill="none" stroke="#293896" stroke-width="0.266"/>
    <path id="Path_56" data-name="Path 56" d="M24.784,8.412a.68.68,0,1,0-.682-.679.679.679,0,0,0,.682.679" transform="translate(2.21 0.646)" fill="#ef4056"/>
    <path id="Path_57" data-name="Path 57" d="M17.815,12.183a.717.717,0,1,0-.716-.716.718.718,0,0,0,.716.716" transform="translate(1.568 0.985)" fill="#ef4056"/>
    <path id="Path_58" data-name="Path 58" d="M19.737,10.067a.681.681,0,1,0-.681-.682.682.682,0,0,0,.681.682" transform="translate(1.747 0.797)" fill="#ef4056"/>
    <path id="Path_59" data-name="Path 59" d="M12.821,13.851a.68.68,0,1,0-.68-.68.681.681,0,0,0,.68.68" transform="translate(1.113 1.144)" fill="#f386a7"/>
    <path id="Path_60" data-name="Path 60" d="M23.976,11.031a.681.681,0,1,0-.681-.68.681.681,0,0,0,.681.68" transform="translate(2.136 0.886)" fill="#f386a7"/>
    <path id="Path_61" data-name="Path 61" d="M14.752,9.342a.68.68,0,1,0-.682-.68.679.679,0,0,0,.682.68" transform="translate(1.29 0.731)" fill="#fff203"/>
    <path id="Path_62" data-name="Path 62" d="M26.62,10.975a.681.681,0,1,0-.681-.679.679.679,0,0,0,.681.679" transform="translate(2.379 0.88)" fill="#fff203"/>
    <path id="Path_63" data-name="Path 63" d="M20.707,12.533a.68.68,0,1,0-.68-.681.681.681,0,0,0,.68.681" transform="translate(1.836 1.023)" fill="#fff203"/>
  </g>
</svg>
