<svg xmlns="http://www.w3.org/2000/svg" xmlns:xlink="http://www.w3.org/1999/xlink" width="487.805" height="487.796" viewBox="0 0 487.805 487.796">
  <defs>
    <linearGradient id="linear-gradient" x1="0.143" y1="0.222" x2="0.914" y2="0.617" gradientUnits="objectBoundingBox">
      <stop offset="0" stop-color="#00ffcf"/>
      <stop offset="1" stop-color="#992aee"/>
    </linearGradient>
    <clipPath id="clip-path">
      <path id="Path_421" data-name="Path 421" d="M405.359,599.317a147.49,147.49,0,0,1-89.683-73.546c-19.467-37.285-21.754-78.891-9.815-116.743a158.169,158.169,0,0,1,75.806-91.548c37.786-20.415,79.459-23.729,117.025-12.731a147.5,147.5,0,0,1,89.684,73.54c19.485,37.3,21.757,78.893,9.819,116.745a158.153,158.153,0,0,1-75.8,91.559,155.153,155.153,0,0,1-73.947,18.915,153.3,153.3,0,0,1-43.086-6.192M340.2,238.178a.283.283,0,0,1-.078.046,251.848,251.848,0,0,0-120.4,145.453c-18.981,59.757-15.237,126.634,15.6,185.551A234.942,234.942,0,0,0,377.869,686.122c59.288,17.494,126.282,12.084,185.993-20.225A251.893,251.893,0,0,0,684.344,520.381c18.984-59.744,15.225-126.625-15.6-185.542A234.95,234.95,0,0,0,526.192,217.95a241.007,241.007,0,0,0-68.216-9.815A247.107,247.107,0,0,0,340.2,238.178" transform="translate(-208.128 -208.135)" fill="url(#linear-gradient)"/>
    </clipPath>
  </defs>
  <g id="Group_25" data-name="Group 25" transform="translate(-208.128 -208.135)" style="isolation: isolate">
    <g id="Group_23" data-name="Group 23" transform="translate(208.128 208.135)" clip-path="url(#clip-path)">
      <rect id="Rectangle_37" data-name="Rectangle 37" width="705.744" height="705.744" transform="translate(-255.132 247.74) rotate(-45)" fill="url(#linear-gradient)"/>
    </g>
  </g>
</svg>
