<svg xmlns="http://www.w3.org/2000/svg" xmlns:xlink="http://www.w3.org/1999/xlink" width="907.569" height="1019.701" viewBox="0 0 907.569 1019.701">
  <defs>
    <linearGradient id="linear-gradient" x1="0.5" x2="0.425" y2="1.112" gradientUnits="objectBoundingBox">
      <stop offset="0" stop-color="#d61a69"/>
      <stop offset="0.567" stop-color="#992aee"/>
      <stop offset="1" stop-color="#65c8f2"/>
    </linearGradient>
    <linearGradient id="linear-gradient-2" x1="0.917" y1="0.326" x2="0.111" y2="0.802" gradientUnits="objectBoundingBox">
      <stop offset="0" stop-color="#d61a69"/>
      <stop offset="0.241" stop-color="#d61a69"/>
      <stop offset="0.678" stop-color="#f79743"/>
      <stop offset="1" stop-color="#f89a42"/>
    </linearGradient>
    <clipPath id="clip-path">
      <rect id="Rectangle_36" data-name="Rectangle 36" width="575.824" height="674.706" fill="url(#linear-gradient)"/>
    </clipPath>
    <clipPath id="clip-path-2">
      <path id="Path_419" data-name="Path 419" d="M55.273,148.83a93.557,93.557,0,1,1,93.557,93.557A93.557,93.557,0,0,1,55.273,148.83M1,148.83A147.83,147.83,0,1,0,148.831,1,147.831,147.831,0,0,0,1,148.83" transform="translate(-1 -1)" fill="url(#linear-gradient-2)"/>
    </clipPath>
    <clipPath id="clip-path-3">
      <rect id="Rectangle_32" data-name="Rectangle 32" width="450.765" height="450.765" fill="none"/>
    </clipPath>
  </defs>
  <g id="Group_155" data-name="Group 155" transform="translate(-845.17 -780)">
    <g id="Group_28" data-name="Group 28" transform="matrix(0.985, 0.174, -0.174, 0.985, 1132.822, 780)" style="isolation: isolate">
      <g id="Group_21" data-name="Group 21" clip-path="url(#clip-path)">
        <path id="Path_420" data-name="Path 420" d="M370.909,96.751s0,0-.006,0l0-.005a116.511,116.511,0,0,0-149.436,69.4s0,0,0,.007a116.511,116.511,0,0,0,69.409,149.433A185.171,185.171,0,1,1,53.373,425.9a115.976,115.976,0,0,0-3.754-89.089A115.988,115.988,0,0,0,0,283.723l42.877-54.389a184.951,184.951,0,0,1,69.017,78.548,184.8,184.8,0,0,1,5.967,141.6,116.507,116.507,0,1,0,149.434-69.4,185.178,185.178,0,0,1-110.312-237.5l0-.005a185.158,185.158,0,0,1,237.5-110.305l.007,0a115.954,115.954,0,0,0,89.085-3.757A116.84,116.84,0,0,0,521.853,0l53.971,42.548A185.023,185.023,0,0,1,512.5,90.783a184.756,184.756,0,0,1-141.59,5.968" fill="url(#linear-gradient)"/>
      </g>
    </g>
    <g id="Group_29" data-name="Group 29" transform="translate(844.17 1134.089)">
      <g id="Group_17" data-name="Group 17" transform="translate(1 1)" clip-path="url(#clip-path-2)">
        <rect id="Rectangle_33" data-name="Rectangle 33" width="295.661" height="295.661" transform="translate(0 0)" fill="url(#linear-gradient-2)"/>
      </g>
    </g>
    <g id="Group_30" data-name="Group 30" transform="translate(1115.261 1480.962) rotate(-45)">
      <g id="Group_15" data-name="Group 15" clip-path="url(#clip-path-3)">
        <path id="Path_222" data-name="Path 222" d="M447.944,521.628c.538-.33,1.075-.659,1.609-.992v-75.8q-.8.827-1.609,1.643Z" transform="translate(-105.339 -104.609)" fill="#d1d3d4"/>
        <path id="Path_223" data-name="Path 223" d="M449.554,45.113q-.8-.5-1.609-.992v75.148q.81.816,1.609,1.644Z" transform="translate(-105.34 -10.376)" fill="#d1d3d4"/>
        <path id="Path_224" data-name="Path 224" d="M436.687,37.56q-.8-.446-1.609-.887v71.713q.809.692,1.609,1.4Z" transform="translate(-102.314 -8.624)" fill="#d1d3d4"/>
        <path id="Path_225" data-name="Path 225" d="M435.078,530.209q.806-.441,1.609-.887V457.1q-.8.7-1.609,1.4Z" transform="translate(-102.314 -107.493)" fill="#d1d3d4"/>
        <path id="Path_226" data-name="Path 226" d="M462.42,53.595q-.8-.562-1.61-1.117v79.571q.812.974,1.61,1.961Z" transform="translate(-108.365 -12.341)" fill="#d1d3d4"/>
        <path id="Path_227" data-name="Path 227" d="M460.81,511.814q.808-.555,1.61-1.117V430.282q-.8.988-1.61,1.961Z" transform="translate(-108.365 -101.186)" fill="#d1d3d4"/>
        <path id="Path_228" data-name="Path 228" d="M398.089,19.728q-.8-.3-1.61-.6V84.076q.808.433,1.61.873Z" transform="translate(-93.237 -4.498)" fill="#d1d3d4"/>
        <path id="Path_229" data-name="Path 229" d="M396.479,550c.538-.2,1.075-.4,1.61-.6V484.174q-.8.441-1.61.873Z" transform="translate(-93.237 -113.859)" fill="#d1d3d4"/>
        <path id="Path_230" data-name="Path 230" d="M473.676,500.491q.808-.622,1.609-1.25V412.578q-.794,1.218-1.609,2.423Z" transform="translate(-111.391 -97.023)" fill="#d1d3d4"/>
        <path id="Path_231" data-name="Path 231" d="M475.286,63.088q-.8-.629-1.609-1.249v85.49q.816,1.2,1.609,2.423Z" transform="translate(-111.391 -14.542)" fill="#d1d3d4"/>
        <path id="Path_232" data-name="Path 232" d="M359.491,8.181c-.536-.122-1.072-.243-1.61-.361V69.145q.806.246,1.61.5Z" transform="translate(-84.16 -1.839)" fill="#d1d3d4"/>
        <path id="Path_233" data-name="Path 233" d="M357.881,562.531c.538-.118,1.074-.239,1.61-.361V500.706q-.8.254-1.61.5Z" transform="translate(-84.16 -117.747)" fill="#d1d3d4"/>
        <path id="Path_234" data-name="Path 234" d="M409.346,544.291c.538-.228,1.074-.46,1.609-.692V476.514q-.8.516-1.609,1.022Z" transform="translate(-96.263 -112.058)" fill="#d1d3d4"/>
        <path id="Path_235" data-name="Path 235" d="M410.955,24.923q-.8-.349-1.609-.692V90.985q.808.507,1.609,1.023Z" transform="translate(-96.263 -5.698)" fill="#d1d3d4"/>
        <path id="Path_236" data-name="Path 236" d="M422.212,537.724c.538-.26,1.074-.524,1.61-.788V467.559q-.8.6-1.61,1.194Z" transform="translate(-99.288 -109.952)" fill="#d1d3d4"/>
        <path id="Path_237" data-name="Path 237" d="M423.821,30.85q-.8-.4-1.61-.788V99.034q.809.592,1.61,1.194Z" transform="translate(-99.288 -7.069)" fill="#d1d3d4"/>
        <path id="Path_238" data-name="Path 238" d="M526.75,389.045V114.7q-.8-1.035-1.61-2.06V391.1q.811-1.024,1.61-2.06" transform="translate(-123.493 -26.487)" fill="#d1d3d4"/>
        <path id="Path_239" data-name="Path 239" d="M385.223,15.227c-.535-.174-1.072-.344-1.609-.515V78.183q.806.365,1.609.74Z" transform="translate(-90.211 -3.46)" fill="#d1d3d4"/>
        <path id="Path_240" data-name="Path 240" d="M383.613,554.906c.537-.171,1.075-.34,1.609-.515V490.7q-.8.373-1.609.739Z" transform="translate(-90.211 -115.393)" fill="#d1d3d4"/>
        <path id="Path_241" data-name="Path 241" d="M488.152,73.739q-.8-.706-1.609-1.406v93.98q.82,1.581,1.609,3.181Z" transform="translate(-114.416 -17.01)" fill="#d1d3d4"/>
        <path id="Path_242" data-name="Path 242" d="M486.543,487.153q.809-.7,1.609-1.406V389.992q-.787,1.6-1.609,3.181Z" transform="translate(-114.416 -91.711)" fill="#d1d3d4"/>
        <path id="Path_243" data-name="Path 243" d="M513.884,397.357V99.239q-.8-.9-1.609-1.792v301.7q.809-.891,1.609-1.792" transform="translate(-120.468 -22.916)" fill="#d1d3d4"/>
        <path id="Path_244" data-name="Path 244" d="M372.357,11.388q-.8-.221-1.609-.437V73.229q.806.3,1.609.616Z" transform="translate(-87.186 -2.575)" fill="#d1d3d4"/>
        <path id="Path_245" data-name="Path 245" d="M370.747,559.071q.807-.216,1.609-.437V496.176q-.8.312-1.609.616Z" transform="translate(-87.186 -116.682)" fill="#d1d3d4"/>
        <path id="Path_246" data-name="Path 246" d="M499.409,470.463q.809-.787,1.609-1.583v-111.5q-.766,2.534-1.609,5.033Z" transform="translate(-117.442 -84.042)" fill="#d1d3d4"/>
        <path id="Path_247" data-name="Path 247" d="M501.018,85.71q-.8-.8-1.609-1.583V192.179q.844,2.5,1.609,5.033Z" transform="translate(-117.442 -19.783)" fill="#d1d3d4"/>
        <path id="Path_248" data-name="Path 248" d="M87.692,468.643q.8.8,1.609,1.586V361.935q-.844-2.515-1.609-5.065Z" transform="translate(-20.622 -83.922)" fill="#d1d3d4"/>
        <path id="Path_249" data-name="Path 249" d="M89.3,84.277q-.811.788-1.61,1.586V197.636q.764-2.549,1.61-5.065Z" transform="translate(-20.622 -19.819)" fill="#d1d3d4"/>
        <path id="Path_250" data-name="Path 250" d="M190.621,549.33c.535.2,1.072.4,1.609.6V484.963q-.807-.432-1.609-.874Z" transform="translate(-44.827 -113.839)" fill="#d1d3d4"/>
        <path id="Path_251" data-name="Path 251" d="M192.231,19.185c-.537.2-1.075.4-1.609.6V85.027q.8-.442,1.609-.874Z" transform="translate(-44.827 -4.512)" fill="#d1d3d4"/>
        <path id="Path_252" data-name="Path 252" d="M23.361,180.928V353.15q.789,1.9,1.609,3.786V177.142q-.823,1.884-1.609,3.786" transform="translate(-5.494 -41.657)" fill="#d1d3d4"/>
        <path id="Path_253" data-name="Path 253" d="M269.427,2.035c-.537.045-1.074.089-1.609.138V61.867c.535-.067,1.072-.133,1.609-.194Z" transform="translate(-62.981 -0.479)" fill="#d1d3d4"/>
        <path id="Path_254" data-name="Path 254" d="M256.561,3.389c-.538.069-1.073.142-1.61.215v60.1q.8-.149,1.61-.291Z" transform="translate(-59.955 -0.797)" fill="#d1d3d4"/>
        <path id="Path_255" data-name="Path 255" d="M115.034,61.959q-.807.622-1.609,1.25v86.754q.8-1.223,1.609-2.433Z" transform="translate(-26.673 -14.57)" fill="#d1d3d4"/>
        <path id="Path_256" data-name="Path 256" d="M113.424,499.094q.8.629,1.609,1.249V414.772q-.816-1.208-1.609-2.432Z" transform="translate(-26.673 -96.967)" fill="#d1d3d4"/>
        <path id="Path_257" data-name="Path 257" d="M100.558,485.569q.8.707,1.61,1.409V392.87q-.823-1.588-1.61-3.2Z" transform="translate(-23.647 -91.637)" fill="#d1d3d4"/>
        <path id="Path_258" data-name="Path 258" d="M102.168,72.465q-.809.7-1.61,1.409v95.893q.788-1.607,1.61-3.2Z" transform="translate(-23.647 -17.041)" fill="#d1d3d4"/>
        <path id="Path_259" data-name="Path 259" d="M295.16,60.361V1c-.249,0-.5,0-.746,0-.288,0-.576,0-.864.005V60.361c.288,0,.576-.005.864-.005.249,0,.5,0,.746,0" transform="translate(-69.032 -0.235)" fill="#d1d3d4"/>
        <path id="Path_260" data-name="Path 260" d="M282.294,1.239q-.805.032-1.61.071V60.753c.536-.034,1.073-.063,1.61-.093Z" transform="translate(-66.006 -0.291)" fill="#d1d3d4"/>
        <path id="Path_261" data-name="Path 261" d="M205.1,14.762c-.537.171-1.075.341-1.61.516v63.71q.8-.374,1.61-.74Z" transform="translate(-47.852 -3.471)" fill="#d1d3d4"/>
        <path id="Path_262" data-name="Path 262" d="M203.487,554.335c.535.174,1.072.345,1.61.516V491.364q-.808-.366-1.61-.74Z" transform="translate(-47.852 -115.376)" fill="#d1d3d4"/>
        <path id="Path_263" data-name="Path 263" d="M230.829,7.855q-.807.177-1.61.361V69.691q.8-.256,1.61-.5Z" transform="translate(-53.904 -1.847)" fill="#d1d3d4"/>
        <path id="Path_264" data-name="Path 264" d="M229.219,562.131q.8.183,1.61.361V501.158q-.807-.247-1.61-.5Z" transform="translate(-53.904 -117.735)" fill="#d1d3d4"/>
        <path id="Path_265" data-name="Path 265" d="M140.766,44.216q-.806.494-1.609.994v75.847q.8-.828,1.609-1.646Z" transform="translate(-32.724 -10.398)" fill="#d1d3d4"/>
        <path id="Path_266" data-name="Path 266" d="M139.157,520.524q.8.5,1.609.994v-75.2q-.81-.818-1.609-1.646Z" transform="translate(-32.724 -104.571)" fill="#d1d3d4"/>
        <path id="Path_267" data-name="Path 267" d="M216.354,558.587c.535.148,1.072.3,1.608.439V496.734q-.807-.3-1.608-.617Z" transform="translate(-50.878 -116.668)" fill="#d1d3d4"/>
        <path id="Path_268" data-name="Path 268" d="M217.963,10.992c-.538.144-1.074.291-1.609.439V73.9q.8-.313,1.609-.617Z" transform="translate(-50.878 -2.585)" fill="#d1d3d4"/>
        <path id="Path_269" data-name="Path 269" d="M177.755,543.524q.8.349,1.61.692V477.438q-.809-.508-1.61-1.025Z" transform="translate(-41.801 -112.034)" fill="#d1d3d4"/>
        <path id="Path_270" data-name="Path 270" d="M179.364,24.3q-.806.343-1.61.692V92.1q.8-.516,1.61-1.024Z" transform="translate(-41.801 -5.714)" fill="#d1d3d4"/>
        <path id="Path_271" data-name="Path 271" d="M127.9,52.583q-.808.555-1.61,1.119V134.18q.8-.989,1.61-1.965Z" transform="translate(-29.699 -12.366)" fill="#d1d3d4"/>
        <path id="Path_272" data-name="Path 272" d="M126.29,510.57q.8.562,1.61,1.119V432.057q-.812-.977-1.61-1.965Z" transform="translate(-29.699 -101.141)" fill="#d1d3d4"/>
        <path id="Path_273" data-name="Path 273" d="M10.495,218.545V332.261q.766,2.936,1.609,5.84V212.7q-.842,2.9-1.609,5.84" transform="translate(-2.468 -50.02)" fill="#d1d3d4"/>
        <path id="Path_274" data-name="Path 274" d="M243.7,5.329q-.805.14-1.609.283V66.306q.8-.2,1.609-.394Z" transform="translate(-56.929 -1.253)" fill="#d1d3d4"/>
        <path id="Path_275" data-name="Path 275" d="M74.826,99.414V397.263q.8.9,1.609,1.8V97.62q-.809.893-1.609,1.794" transform="translate(-17.596 -22.957)" fill="#d1d3d4"/>
        <path id="Path_276" data-name="Path 276" d="M61.96,114.894V388.938q.8,1.037,1.61,2.064V112.83q-.811,1.027-1.61,2.064" transform="translate(-14.571 -26.533)" fill="#d1d3d4"/>
        <path id="Path_277" data-name="Path 277" d="M320.892,2.158c-.535-.048-1.073-.092-1.609-.136V61.656c.537.061,1.073.126,1.609.192Z" transform="translate(-75.083 -0.475)" fill="#d1d3d4"/>
        <path id="Path_278" data-name="Path 278" d="M164.889,536.851q.8.4,1.61.788v-69q-.809-.593-1.61-1.2Z" transform="translate(-38.776 -109.925)" fill="#d1d3d4"/>
        <path id="Path_279" data-name="Path 279" d="M166.5,30.138q-.807.39-1.61.788v69.409q.8-.6,1.61-1.2Z" transform="translate(-38.775 -7.087)" fill="#d1d3d4"/>
        <path id="Path_280" data-name="Path 280" d="M153.632,36.758q-.807.441-1.609.887V109.9q.8-.7,1.609-1.4Z" transform="translate(-35.75 -8.644)" fill="#d1d3d4"/>
        <path id="Path_281" data-name="Path 281" d="M152.023,529.225q.8.447,1.609.887V458.363q-.809-.694-1.609-1.4Z" transform="translate(-35.75 -107.461)" fill="#d1d3d4"/>
        <path id="Path_282" data-name="Path 282" d="M333.758,3.583c-.536-.072-1.072-.146-1.61-.215V63.391q.806.141,1.61.29Z" transform="translate(-78.109 -0.792)" fill="#d1d3d4"/>
        <path id="Path_283" data-name="Path 283" d="M49.093,132.834V379.269q.8,1.214,1.609,2.415V130.419q-.812,1.2-1.609,2.415" transform="translate(-11.545 -30.67)" fill="#d1d3d4"/>
        <path id="Path_284" data-name="Path 284" d="M346.624,5.584c-.535-.1-1.072-.189-1.609-.281V65.879q.805.192,1.609.392Z" transform="translate(-81.134 -1.247)" fill="#d1d3d4"/>
        <path id="Path_285" data-name="Path 285" d="M308.026,1.3c-.536-.025-1.072-.05-1.61-.071V60.652c.538.029,1.075.058,1.61.092Z" transform="translate(-72.057 -0.29)" fill="#d1d3d4"/>
        <path id="Path_286" data-name="Path 286" d="M36.227,154.2V367.712q.8,1.469,1.61,2.923V151.28q-.816,1.455-1.61,2.923" transform="translate(-8.519 -35.575)" fill="#d1d3d4"/>
        <path id="Path_287" data-name="Path 287" d="M535.334,382.752V126.323q-.82-1.178-1.655-2.344V385.1q.834-1.167,1.655-2.344" transform="translate(-125.501 -29.155)" fill="#d1d3d4"/>
        <path id="Path_288" data-name="Path 288" d="M531.065,385.95V120.392q-.821-1.119-1.655-2.226V388.175q.834-1.107,1.655-2.226" transform="translate(-124.497 -27.788)" fill="#d1d3d4"/>
        <path id="Path_289" data-name="Path 289" d="M522.468,391.916V109.311q-.823-1.014-1.655-2.019V393.936q.833-1,1.655-2.019" transform="translate(-122.475 -25.231)" fill="#d1d3d4"/>
        <path id="Path_290" data-name="Path 290" d="M518.2,394.672V104.188q-.823-.969-1.655-1.93V396.6q.833-.959,1.655-1.93" transform="translate(-121.472 -24.047)" fill="#d1d3d4"/>
        <path id="Path_291" data-name="Path 291" d="M509.6,94.546q-.824-.888-1.655-1.765V220.5q1.109,6.838,1.655,13.854Z" transform="translate(-119.45 -21.819)" fill="#d1d3d4"/>
        <path id="Path_292" data-name="Path 292" d="M507.946,453.049q.832-.879,1.655-1.765V311.473q-.539,7.012-1.655,13.854Z" transform="translate(-119.45 -73.247)" fill="#d1d3d4"/>
        <path id="Path_293" data-name="Path 293" d="M503.677,463.3q.832-.843,1.655-1.694V340.7q-.754,3.476-1.655,6.9Z" transform="translate(-118.446 -80.12)" fill="#d1d3d4"/>
        <path id="Path_294" data-name="Path 294" d="M505.333,90.061q-.824-.851-1.655-1.694v115.7q.9,3.42,1.655,6.9Z" transform="translate(-118.446 -20.781)" fill="#d1d3d4"/>
        <path id="Path_295" data-name="Path 295" d="M496.735,81.561q-.824-.785-1.655-1.56V182.29q.856,2.119,1.655,4.266Z" transform="translate(-116.424 -18.813)" fill="#d1d3d4"/>
        <path id="Path_296" data-name="Path 296" d="M495.08,476.6q.831-.777,1.655-1.56v-105q-.8,2.148-1.655,4.266Z" transform="translate(-116.424 -87.02)" fill="#d1d3d4"/>
        <path id="Path_297" data-name="Path 297" d="M492.467,77.6q-.824-.755-1.655-1.5v97.746q.849,1.832,1.655,3.689Z" transform="translate(-115.42 -17.895)" fill="#d1d3d4"/>
        <path id="Path_298" data-name="Path 298" d="M490.811,482.076q.832-.747,1.655-1.5V380.642q-.805,1.856-1.655,3.689Z" transform="translate(-115.42 -89.512)" fill="#d1d3d4"/>
        <path id="Path_299" data-name="Path 299" d="M483.869,70.054c-.549-.465-1.1-.925-1.655-1.385v90.718q.843,1.47,1.655,2.957Z" transform="translate(-113.398 -16.148)" fill="#d1d3d4"/>
        <path id="Path_300" data-name="Path 300" d="M482.214,491.889q.831-.689,1.655-1.386v-92.29q-.813,1.488-1.655,2.957Z" transform="translate(-113.398 -93.645)" fill="#d1d3d4"/>
        <path id="Path_301" data-name="Path 301" d="M479.6,66.527q-.825-.672-1.655-1.337v87.936q.841,1.343,1.655,2.705Z" transform="translate(-112.394 -15.33)" fill="#d1d3d4"/>
        <path id="Path_302" data-name="Path 302" d="M477.945,496.3q.831-.664,1.655-1.337v-89.3q-.816,1.361-1.655,2.7Z" transform="translate(-112.394 -95.396)" fill="#d1d3d4"/>
        <path id="Path_303" data-name="Path 303" d="M471,59.81q-.825-.623-1.655-1.238v83.279q.838,1.15,1.655,2.315Z" transform="translate(-110.373 -13.774)" fill="#d1d3d4"/>
        <path id="Path_304" data-name="Path 304" d="M469.348,504.471q.831-.616,1.655-1.238V418.876q-.819,1.164-1.655,2.315Z" transform="translate(-110.373 -98.504)" fill="#d1d3d4"/>
        <path id="Path_305" data-name="Path 305" d="M466.734,56.656q-.825-.6-1.655-1.192V136.8q.836,1.072,1.655,2.157Z" transform="translate(-109.369 -13.043)" fill="#d1d3d4"/>
        <path id="Path_306" data-name="Path 306" d="M465.079,508.225q.831-.593,1.655-1.192v-82.3q-.819,1.085-1.655,2.157Z" transform="translate(-109.369 -99.881)" fill="#d1d3d4"/>
        <path id="Path_307" data-name="Path 307" d="M458.137,50.661q-.825-.556-1.655-1.1V127.5q.835.943,1.655,1.9Z" transform="translate(-107.347 -11.654)" fill="#d1d3d4"/>
        <path id="Path_308" data-name="Path 308" d="M456.482,515.253q.829-.548,1.655-1.1V435.4q-.821.956-1.655,1.9Z" transform="translate(-107.347 -102.391)" fill="#d1d3d4"/>
        <path id="Path_309" data-name="Path 309" d="M453.868,47.852q-.826-.536-1.655-1.065v76.489q.833.887,1.655,1.787Z" transform="translate(-106.343 -11.003)" fill="#d1d3d4"/>
        <path id="Path_310" data-name="Path 310" d="M452.213,518.506q.831-.529,1.655-1.065V440.23q-.82.9-1.655,1.787Z" transform="translate(-106.343 -103.525)" fill="#d1d3d4"/>
        <path id="Path_311" data-name="Path 311" d="M443.616,524.632c.554-.327,1.1-.657,1.654-.988V449.136q-.82.8-1.654,1.6Z" transform="translate(-104.322 -105.62)" fill="#d1d3d4"/>
        <path id="Path_312" data-name="Path 312" d="M445.271,42.5q-.826-.5-1.655-.988v73.9q.833.794,1.655,1.6Z" transform="translate(-104.322 -9.763)" fill="#d1d3d4"/>
        <path id="Path_313" data-name="Path 313" d="M439.347,527.472q.83-.47,1.655-.946V453.2q-.823.763-1.655,1.513Z" transform="translate(-103.318 -106.575)" fill="#d1d3d4"/>
        <path id="Path_314" data-name="Path 314" d="M441,40q-.825-.477-1.655-.947v72.762q.832.75,1.655,1.512Z" transform="translate(-103.318 -9.183)" fill="#d1d3d4"/>
        <path id="Path_315" data-name="Path 315" d="M432.405,35.238q-.826-.442-1.655-.877v70.722q.832.675,1.655,1.361Z" transform="translate(-101.296 -8.08)" fill="#d1d3d4"/>
        <path id="Path_316" data-name="Path 316" d="M430.749,532.836q.829-.435,1.655-.877V460.753q-.823.686-1.655,1.362Z" transform="translate(-101.296 -108.352)" fill="#d1d3d4"/>
        <path id="Path_317" data-name="Path 317" d="M428.136,33.009q-.825-.423-1.655-.838v69.813q.832.641,1.655,1.293Z" transform="translate(-100.292 -7.565)" fill="#d1d3d4"/>
        <path id="Path_318" data-name="Path 318" d="M426.48,535.326c.553-.278,1.105-.556,1.655-.838V464.221q-.823.65-1.655,1.293Z" transform="translate(-100.292 -109.167)" fill="#d1d3d4"/>
        <path id="Path_319" data-name="Path 319" d="M419.538,28.795q-.826-.39-1.655-.775V96.191q.831.578,1.655,1.166Z" transform="translate(-98.27 -6.589)" fill="#d1d3d4"/>
        <path id="Path_320" data-name="Path 320" d="M417.883,540.022q.829-.384,1.655-.775V470.685q-.824.589-1.655,1.166Z" transform="translate(-98.27 -110.687)" fill="#d1d3d4"/>
        <path id="Path_321" data-name="Path 321" d="M413.614,542.2c.552-.245,1.105-.49,1.655-.739V473.654q-.824.559-1.655,1.108Z" transform="translate(-97.266 -111.385)" fill="#d1d3d4"/>
        <path id="Path_322" data-name="Path 322" d="M415.27,26.825c-.55-.249-1.1-.494-1.655-.739V93.523q.831.55,1.655,1.107Z" transform="translate(-97.266 -6.134)" fill="#d1d3d4"/>
        <path id="Path_323" data-name="Path 323" d="M405.017,546.293q.829-.336,1.655-.681V479.19q-.824.5-1.655,1Z" transform="translate(-95.245 -112.687)" fill="#d1d3d4"/>
        <path id="Path_324" data-name="Path 324" d="M406.672,23.116q-.826-.343-1.655-.681v66.1q.831.494,1.655,1Z" transform="translate(-95.245 -5.276)" fill="#d1d3d4"/>
        <path id="Path_325" data-name="Path 325" d="M400.748,548.183c.553-.214,1.105-.428,1.655-.647V481.73q-.824.478-1.655.947Z" transform="translate(-94.241 -113.285)" fill="#d1d3d4"/>
        <path id="Path_326" data-name="Path 326" d="M402.4,21.392c-.551-.219-1.1-.433-1.655-.647V86.251q.831.469,1.655.947Z" transform="translate(-94.241 -4.878)" fill="#d1d3d4"/>
        <path id="Path_327" data-name="Path 327" d="M392.151,551.728c.553-.194,1.1-.395,1.655-.594V486.457q-.825.43-1.655.851Z" transform="translate(-92.219 -114.396)" fill="#d1d3d4"/>
        <path id="Path_328" data-name="Path 328" d="M393.806,18.156c-.551-.2-1.1-.4-1.655-.594V81.984q.831.42,1.655.85Z" transform="translate(-92.219 -4.13)" fill="#d1d3d4"/>
        <path id="Path_329" data-name="Path 329" d="M389.537,16.663q-.826-.283-1.655-.561V80.031q.831.4,1.655.8Z" transform="translate(-91.215 -3.787)" fill="#d1d3d4"/>
        <path id="Path_330" data-name="Path 330" d="M387.882,553.354q.829-.278,1.655-.561V488.62q-.825.406-1.655.8Z" transform="translate(-91.215 -114.905)" fill="#d1d3d4"/>
        <path id="Path_331" data-name="Path 331" d="M379.285,556.383q.829-.249,1.655-.5V492.625q-.825.361-1.655.714Z" transform="translate(-89.193 -115.847)" fill="#d1d3d4"/>
        <path id="Path_332" data-name="Path 332" d="M380.94,13.877q-.826-.255-1.655-.5V76.416q.829.353,1.655.715Z" transform="translate(-89.193 -3.145)" fill="#d1d3d4"/>
        <path id="Path_333" data-name="Path 333" d="M375.016,557.766c.553-.157,1.1-.32,1.655-.48V494.441q-.825.342-1.655.674Z" transform="translate(-88.19 -116.274)" fill="#d1d3d4"/>
        <path id="Path_334" data-name="Path 334" d="M376.671,12.6c-.551-.161-1.1-.324-1.655-.48V74.775q.829.333,1.655.673Z" transform="translate(-88.19 -2.851)" fill="#d1d3d4"/>
        <path id="Path_335" data-name="Path 335" d="M368.074,10.251c-.551-.143-1.1-.281-1.655-.42V71.759q.829.293,1.655.594Z" transform="translate(-86.168 -2.312)" fill="#d1d3d4"/>
        <path id="Path_336" data-name="Path 336" d="M366.419,560.305q.828-.208,1.655-.42v-62.1q-.826.3-1.655.594Z" transform="translate(-86.168 -117.06)" fill="#d1d3d4"/>
        <path id="Path_337" data-name="Path 337" d="M363.805,9.185c-.551-.134-1.1-.263-1.655-.393V70.407q.829.273,1.655.552Z" transform="translate(-85.164 -2.068)" fill="#d1d3d4"/>
        <path id="Path_338" data-name="Path 338" d="M362.15,561.454c.552-.13,1.1-.259,1.655-.393V499.287q-.825.281-1.655.552Z" transform="translate(-85.164 -117.413)" fill="#d1d3d4"/>
        <path id="Path_339" data-name="Path 339" d="M355.208,7.25c-.551-.116-1.1-.234-1.655-.346V67.953q.829.235,1.655.479Z" transform="translate(-83.142 -1.624)" fill="#d1d3d4"/>
        <path id="Path_340" data-name="Path 340" d="M350.939,6.389q-.827-.162-1.655-.318v60.8q.828.216,1.655.439Z" transform="translate(-82.138 -1.428)" fill="#d1d3d4"/>
        <path id="Path_341" data-name="Path 341" d="M342.341,4.852c-.551-.091-1.1-.177-1.655-.264V64.954q.829.18,1.655.369Z" transform="translate(-80.116 -1.079)" fill="#d1d3d4"/>
        <path id="Path_342" data-name="Path 342" d="M338.073,4.189c-.552-.082-1.1-.164-1.655-.242V64.133q.828.162,1.655.33Z" transform="translate(-79.113 -0.928)" fill="#d1d3d4"/>
        <path id="Path_343" data-name="Path 343" d="M329.475,3.046c-.551-.066-1.1-.132-1.655-.194V62.724q.828.128,1.655.264Z" transform="translate(-77.091 -0.671)" fill="#d1d3d4"/>
        <path id="Path_344" data-name="Path 344" d="M325.207,2.573q-.827-.087-1.655-.167V62.152q.828.11,1.655.229Z" transform="translate(-76.087 -0.566)" fill="#d1d3d4"/>
        <path id="Path_345" data-name="Path 345" d="M316.609,1.809c-.551-.041-1.1-.078-1.655-.115V61.24q.828.077,1.655.161Z" transform="translate(-74.065 -0.398)" fill="#d1d3d4"/>
        <path id="Path_346" data-name="Path 346" d="M312.34,1.527q-.827-.049-1.655-.094V60.906q.828.061,1.655.131Z" transform="translate(-73.061 -0.337)" fill="#d1d3d4"/>
        <path id="Path_347" data-name="Path 347" d="M303.743,1.143c-.551-.018-1.1-.037-1.655-.05V60.476q.828.029,1.655.064Z" transform="translate(-71.04 -0.257)" fill="#d1d3d4"/>
        <path id="Path_348" data-name="Path 348" d="M299.474,1.045q-.827-.015-1.655-.025V60.379q.828.011,1.655.031Z" transform="translate(-70.036 -0.24)" fill="#d1d3d4"/>
        <path id="Path_349" data-name="Path 349" d="M290.877,1.021c-.552.006-1.1.017-1.655.027V60.413c.551-.014,1.1-.023,1.655-.031Z" transform="translate(-68.014 -0.24)" fill="#d1d3d4"/>
        <path id="Path_350" data-name="Path 350" d="M286.608,1.1c-.553.014-1.1.034-1.655.052v59.4c.551-.024,1.1-.047,1.655-.066Z" transform="translate(-67.01 -0.258)" fill="#d1d3d4"/>
        <path id="Path_351" data-name="Path 351" d="M278.011,1.442q-.828.045-1.655.094V61.049q.826-.07,1.655-.132Z" transform="translate(-64.988 -0.339)" fill="#d1d3d4"/>
        <path id="Path_352" data-name="Path 352" d="M273.742,1.7c-.552.038-1.1.073-1.655.115v59.6q.826-.086,1.655-.162Z" transform="translate(-63.985 -0.401)" fill="#d1d3d4"/>
        <path id="Path_353" data-name="Path 353" d="M265.145,2.421q-.828.081-1.655.169V62.4q.826-.119,1.655-.23Z" transform="translate(-61.963 -0.569)" fill="#d1d3d4"/>
        <path id="Path_354" data-name="Path 354" d="M260.876,2.869c-.553.063-1.1.129-1.655.2V63.011q.826-.137,1.655-.264Z" transform="translate(-60.959 -0.675)" fill="#d1d3d4"/>
        <path id="Path_355" data-name="Path 355" d="M252.279,3.969q-.828.118-1.655.242V64.494q.826-.171,1.655-.333Z" transform="translate(-58.937 -0.933)" fill="#d1d3d4"/>
        <path id="Path_356" data-name="Path 356" d="M248.01,4.613c-.552.087-1.1.172-1.655.264v60.48q.826-.189,1.655-.371Z" transform="translate(-57.933 -1.085)" fill="#d1d3d4"/>
        <path id="Path_357" data-name="Path 357" d="M239.412,6.1q-.83.156-1.655.32V67.351q.825-.225,1.655-.441Z" transform="translate(-55.911 -1.434)" fill="#d1d3d4"/>
        <path id="Path_358" data-name="Path 358" d="M235.144,6.935c-.553.113-1.1.231-1.655.348V68.474q.826-.243,1.655-.48Z" transform="translate(-54.908 -1.631)" fill="#d1d3d4"/>
        <path id="Path_359" data-name="Path 359" d="M224.891,561.02c.551.135,1.1.263,1.655.393V499.787q-.829-.273-1.655-.554Z" transform="translate(-52.886 -117.401)" fill="#d1d3d4"/>
        <path id="Path_360" data-name="Path 360" d="M226.546,8.829c-.552.13-1.105.259-1.655.393V71.009q.825-.282,1.655-.554Z" transform="translate(-52.886 -2.076)" fill="#d1d3d4"/>
        <path id="Path_361" data-name="Path 361" d="M220.622,559.841q.826.214,1.655.421v-61.94q-.829-.293-1.655-.6Z" transform="translate(-51.882 -117.046)" fill="#d1d3d4"/>
        <path id="Path_362" data-name="Path 362" d="M222.277,9.87c-.552.139-1.1.278-1.655.421V72.405q.826-.3,1.655-.6Z" transform="translate(-51.882 -2.321)" fill="#d1d3d4"/>
        <path id="Path_363" data-name="Path 363" d="M212.025,557.236c.551.161,1.1.324,1.655.481V495.052q-.829-.333-1.655-.675Z" transform="translate(-49.86 -116.259)" fill="#d1d3d4"/>
        <path id="Path_364" data-name="Path 364" d="M213.68,12.168c-.553.158-1.1.32-1.655.481V75.508q.825-.342,1.655-.675Z" transform="translate(-49.86 -2.861)" fill="#d1d3d4"/>
        <path id="Path_365" data-name="Path 365" d="M207.756,555.827q.826.256,1.655.5V493.273q-.829-.353-1.655-.717Z" transform="translate(-48.856 -115.83)" fill="#d1d3d4"/>
        <path id="Path_366" data-name="Path 366" d="M209.411,13.421q-.828.249-1.655.5V77.2q.825-.363,1.655-.717Z" transform="translate(-48.856 -3.156)" fill="#d1d3d4"/>
        <path id="Path_367" data-name="Path 367" d="M200.814,16.154q-.829.278-1.655.563v64.19q.825-.408,1.655-.807Z" transform="translate(-46.835 -3.799)" fill="#d1d3d4"/>
        <path id="Path_368" data-name="Path 368" d="M199.159,552.734q.826.284,1.655.563V489.351q-.829-.4-1.655-.807Z" transform="translate(-46.835 -114.887)" fill="#d1d3d4"/>
        <path id="Path_369" data-name="Path 369" d="M196.545,17.617c-.554.2-1.1.4-1.655.594v64.7q.825-.431,1.655-.852Z" transform="translate(-45.831 -4.143)" fill="#d1d3d4"/>
        <path id="Path_370" data-name="Path 370" d="M194.89,551.074c.551.2,1.1.4,1.655.594V487.229q-.831-.421-1.655-.852Z" transform="translate(-45.831 -114.377)" fill="#d1d3d4"/>
        <path id="Path_371" data-name="Path 371" d="M187.948,20.8c-.552.214-1.105.43-1.655.649V87.281q.825-.478,1.655-.948Z" transform="translate(-43.809 -4.893)" fill="#d1d3d4"/>
        <path id="Path_372" data-name="Path 372" d="M186.293,547.467q.826.328,1.655.649V482.588q-.831-.469-1.655-.948Z" transform="translate(-43.809 -113.263)" fill="#d1d3d4"/>
        <path id="Path_373" data-name="Path 373" d="M183.679,22.5q-.829.337-1.655.682V89.625q.824-.5,1.655-1Z" transform="translate(-42.805 -5.29)" fill="#d1d3d4"/>
        <path id="Path_374" data-name="Path 374" d="M182.024,545.54q.826.343,1.655.682V480.094q-.831-.5-1.655-1Z" transform="translate(-42.805 -112.665)" fill="#d1d3d4"/>
        <path id="Path_375" data-name="Path 375" d="M173.426,541.38c.55.25,1.1.495,1.655.74V474.658q-.831-.551-1.655-1.11Z" transform="translate(-40.783 -111.361)" fill="#d1d3d4"/>
        <path id="Path_376" data-name="Path 376" d="M175.082,26.155q-.829.368-1.655.74V94.728q.824-.56,1.655-1.11Z" transform="translate(-40.783 -6.151)" fill="#d1d3d4"/>
        <path id="Path_377" data-name="Path 377" d="M170.813,28.091q-.829.384-1.655.777V97.459q.824-.589,1.655-1.168Z" transform="translate(-39.78 -6.606)" fill="#d1d3d4"/>
        <path id="Path_378" data-name="Path 378" d="M169.158,539.164q.825.391,1.654.777v-68.2q-.831-.579-1.654-1.169Z" transform="translate(-39.78 -110.661)" fill="#d1d3d4"/>
        <path id="Path_379" data-name="Path 379" d="M160.56,534.4c.55.283,1.1.561,1.655.84V465.393q-.832-.643-1.655-1.3Z" transform="translate(-37.758 -109.138)" fill="#d1d3d4"/>
        <path id="Path_380" data-name="Path 380" d="M162.216,32.249q-.831.418-1.655.841v70.3q.823-.653,1.655-1.3Z" transform="translate(-37.758 -7.584)" fill="#d1d3d4"/>
        <path id="Path_381" data-name="Path 381" d="M156.291,531.865q.826.442,1.655.879V461.988q-.832-.677-1.655-1.364Z" transform="translate(-36.754 -108.321)" fill="#d1d3d4"/>
        <path id="Path_382" data-name="Path 382" d="M157.947,34.442c-.554.29-1.1.584-1.655.879v71.241q.823-.687,1.655-1.364Z" transform="translate(-36.754 -8.099)" fill="#d1d3d4"/>
        <path id="Path_383" data-name="Path 383" d="M149.349,39.138q-.829.472-1.655.948v73.367q.821-.763,1.655-1.514Z" transform="translate(-34.732 -9.204)" fill="#d1d3d4"/>
        <path id="Path_384" data-name="Path 384" d="M147.694,526.424q.825.478,1.655.948v-72.8q-.832-.751-1.655-1.514Z" transform="translate(-34.732 -106.542)" fill="#d1d3d4"/>
        <path id="Path_385" data-name="Path 385" d="M143.425,523.537q.826.5,1.655.99V450.585q-.834-.8-1.655-1.6Z" transform="translate(-33.728 -105.584)" fill="#d1d3d4"/>
        <path id="Path_386" data-name="Path 386" d="M145.08,41.6q-.831.492-1.655.991V117.15q.823-.807,1.655-1.6Z" transform="translate(-33.728 -9.784)" fill="#d1d3d4"/>
        <path id="Path_387" data-name="Path 387" d="M134.828,517.324q.826.537,1.655,1.068v-76.54q-.833-.89-1.655-1.79Z" transform="translate(-31.706 -103.486)" fill="#d1d3d4"/>
        <path id="Path_388" data-name="Path 388" d="M136.483,46.885q-.831.53-1.655,1.068v77.262q.82-.9,1.655-1.79Z" transform="translate(-31.706 -11.026)" fill="#d1d3d4"/>
        <path id="Path_389" data-name="Path 389" d="M132.214,49.66q-.829.55-1.655,1.1v78.8q.82-.958,1.655-1.9Z" transform="translate(-30.703 -11.678)" fill="#d1d3d4"/>
        <path id="Path_390" data-name="Path 390" d="M130.559,514.026q.825.556,1.655,1.1v-78q-.835-.945-1.655-1.9Z" transform="translate(-30.703 -102.348)" fill="#d1d3d4"/>
        <path id="Path_391" data-name="Path 391" d="M123.617,55.576q-.829.593-1.655,1.192v82.371q.818-1.088,1.655-2.161Z" transform="translate(-28.681 -13.069)" fill="#d1d3d4"/>
        <path id="Path_392" data-name="Path 392" d="M121.962,506.9q.825.6,1.655,1.192v-81.4q-.836-1.074-1.655-2.161Z" transform="translate(-28.681 -99.833)" fill="#d1d3d4"/>
        <path id="Path_393" data-name="Path 393" d="M119.348,58.686q-.831.616-1.655,1.241v84.435q.818-1.167,1.655-2.32Z" transform="translate(-27.677 -13.801)" fill="#d1d3d4"/>
        <path id="Path_394" data-name="Path 394" d="M117.693,503.091q.825.624,1.655,1.241V420.976q-.838-1.152-1.655-2.32Z" transform="translate(-27.677 -98.452)" fill="#d1d3d4"/>
        <path id="Path_395" data-name="Path 395" d="M110.751,65.313q-.832.665-1.655,1.34v89.4q.816-1.364,1.655-2.714Z" transform="translate(-25.655 -15.359)" fill="#d1d3d4"/>
        <path id="Path_396" data-name="Path 396" d="M109.1,494.806q.825.673,1.655,1.339v-88.03q-.841-1.347-1.655-2.714Z" transform="translate(-25.655 -95.335)" fill="#d1d3d4"/>
        <path id="Path_397" data-name="Path 397" d="M104.827,490.336q.824.7,1.655,1.388V400.895q-.842-1.472-1.655-2.963Z" transform="translate(-24.651 -93.578)" fill="#d1d3d4"/>
        <path id="Path_398" data-name="Path 398" d="M106.482,68.8q-.831.691-1.655,1.388v92.4q.812-1.491,1.655-2.963Z" transform="translate(-24.651 -16.179)" fill="#d1d3d4"/>
        <path id="Path_399" data-name="Path 399" d="M96.229,480.382q.824.756,1.655,1.5v-97.9q-.849-1.84-1.655-3.706Z" transform="translate(-22.629 -89.428)" fill="#d1d3d4"/>
        <path id="Path_400" data-name="Path 400" d="M97.885,76.235q-.832.748-1.655,1.5v100.1q.805-1.865,1.655-3.706Z" transform="translate(-22.63 -17.928)" fill="#d1d3d4"/>
        <path id="Path_401" data-name="Path 401" d="M93.616,80.147q-.831.777-1.655,1.561v105.2q.8-2.159,1.655-4.288Z" transform="translate(-21.626 -18.848)" fill="#d1d3d4"/>
        <path id="Path_402" data-name="Path 402" d="M91.961,474.827q.823.786,1.655,1.561V373.915q-.856-2.129-1.655-4.288Z" transform="translate(-21.626 -86.922)" fill="#d1d3d4"/>
        <path id="Path_403" data-name="Path 403" d="M83.364,461.309q.823.852,1.654,1.7V346.978q-.9-3.475-1.654-7.009Z" transform="translate(-19.604 -79.948)" fill="#d1d3d4"/>
        <path id="Path_404" data-name="Path 404" d="M85.019,88.524q-.832.844-1.655,1.7v121.34q.754-3.532,1.655-7.009Z" transform="translate(-19.604 -20.817)" fill="#d1d3d4"/>
        <path id="Path_405" data-name="Path 405" d="M79.1,450.64q.823.889,1.655,1.768V324.067q-1.15-7.292-1.655-14.785Z" transform="translate(-18.6 -72.731)" fill="#d1d3d4"/>
        <path id="Path_406" data-name="Path 406" d="M80.75,92.945q-.832.88-1.655,1.768V236.072q.5-7.489,1.655-14.786Z" transform="translate(-18.6 -21.857)" fill="#d1d3d4"/>
        <path id="Path_407" data-name="Path 407" d="M70.5,104.368V394.574q.823.972,1.655,1.934V102.435q-.833.961-1.655,1.933" transform="translate(-16.578 -24.089)" fill="#d1d3d4"/>
        <path id="Path_408" data-name="Path 408" d="M66.229,109.5V391.815q.82,1.016,1.654,2.023V107.477q-.833,1.006-1.654,2.023" transform="translate(-15.575 -25.274)" fill="#d1d3d4"/>
        <path id="Path_409" data-name="Path 409" d="M57.631,120.6V385.838q.82,1.12,1.655,2.229v-269.7q-.834,1.109-1.655,2.23" transform="translate(-13.553 -27.836)" fill="#d1d3d4"/>
        <path id="Path_410" data-name="Path 410" d="M53.362,126.543V382.635q.82,1.179,1.655,2.348V124.195q-.834,1.169-1.655,2.348" transform="translate(-12.549 -29.206)" fill="#d1d3d4"/>
        <path id="Path_411" data-name="Path 411" d="M44.765,139.559V375.6q.819,1.324,1.655,2.636V136.923q-.836,1.311-1.655,2.636" transform="translate(-10.527 -32.199)" fill="#d1d3d4"/>
        <path id="Path_412" data-name="Path 412" d="M40.5,146.63V371.78q.818,1.409,1.655,2.8V143.825q-.838,1.4-1.655,2.8" transform="translate(-9.523 -33.822)" fill="#d1d3d4"/>
        <path id="Path_413" data-name="Path 413" d="M31.9,162.423V363.21q.815,1.628,1.655,3.239V159.184q-.84,1.612-1.655,3.239" transform="translate(-7.501 -37.434)" fill="#d1d3d4"/>
        <path id="Path_414" data-name="Path 414" d="M27.63,171.238V358.4q.815,1.774,1.655,3.532V167.707q-.843,1.756-1.655,3.531" transform="translate(-6.498 -39.438)" fill="#d1d3d4"/>
        <path id="Path_415" data-name="Path 415" d="M19.033,191.8V347.128q.805,2.187,1.655,4.352V187.443q-.849,2.166-1.655,4.353" transform="translate(-4.476 -44.079)" fill="#d1d3d4"/>
        <path id="Path_416" data-name="Path 416" d="M14.764,204.047V340.334q.8,2.514,1.655,5V199.047q-.856,2.487-1.655,5" transform="translate(-3.472 -46.808)" fill="#d1d3d4"/>
        <path id="Path_417" data-name="Path 417" d="M6.167,237.126v84.311q.756,3.988,1.654,7.925V229.2q-.9,3.937-1.654,7.925" transform="translate(-1.45 -53.899)" fill="#d1d3d4"/>
        <path id="Path_418" data-name="Path 418" d="M1.687,267.013Q1.007,275.757,1,284.68t.687,17.665q.584,7.5,1.655,14.859V252.155q-1.067,7.354-1.655,14.859" transform="translate(-0.235 -59.297)" fill="#d1d3d4"/>
      </g>
    </g>
  </g>
</svg>
