<svg xmlns="http://www.w3.org/2000/svg" xmlns:xlink="http://www.w3.org/1999/xlink" width="1245.575" height="1221.621" viewBox="0 0 1245.575 1221.621">
  <defs>
    <style>
      .cls-1 {
        fill: url(#linear-gradient);
      }

      .cls-2 {
        isolation: isolate;
      }

      .cls-3 {
        clip-path: url(#clip-path);
      }
    </style>
    <linearGradient id="linear-gradient" x1="0.475" y1="0.729" x2="0.27" y2="-0.273" gradientUnits="objectBoundingBox">
      <stop offset="0" stop-color="#d61a69"/>
      <stop offset="1" stop-color="#f89a42"/>
    </linearGradient>
    <clipPath id="clip-path">
      <rect id="Rectangle_36" data-name="Rectangle 36" class="cls-1" width="809.345" height="948.328"/>
    </clipPath>
  </defs>
  <g id="Group_158" data-name="Group 158" transform="translate(421.826 -2288.906)">
    <g id="Group_37" data-name="Group 37" class="cls-2" transform="translate(823.749 2872.755) rotate(128)">
      <g id="Group_21" data-name="Group 21" class="cls-3" transform="translate(0 0)">
        <path id="Path_420" data-name="Path 420" class="cls-1" d="M521.327,812.34s0,0-.009,0l0,.007a163.761,163.761,0,0,1-210.039-97.547s0,0,0-.01A163.761,163.761,0,0,1,408.84,504.75,260.265,260.265,0,1,0,75.017,349.707a163.009,163.009,0,0,1-5.276,125.218A163.026,163.026,0,0,1,0,549.542l60.265,76.446a259.956,259.956,0,0,0,97.006-110.4,259.742,259.742,0,0,0,8.386-199.026,163.756,163.756,0,1,1,210.036,97.55A260.276,260.276,0,0,0,220.646,747.929l.006.007A260.247,260.247,0,0,0,554.466,902.975l.01,0a164,164,0,0,1,179.01,45.348l75.858-59.8A260.464,260.464,0,0,0,521.327,812.34" transform="translate(0 0)"/>
      </g>
    </g>
  </g>
</svg>
