<svg xmlns="http://www.w3.org/2000/svg" width="42.103" height="53.379" viewBox="0 0 42.103 53.379">
  <g id="Group_74" data-name="Group 74" transform="translate(337 -3771)">
    <path id="Path_1023" data-name="Path 1023" d="M0,21.868Q0,15.692,0,9.516C0,8.31.155,8.171,1.383,8.079A31.8,31.8,0,0,0,15.639,3.966a38.128,38.128,0,0,0,4.4-3.385c.919-.754,1.179-.808,2.017.038,3.612,3.645,8.12,5.558,13.022,6.641a54.632,54.632,0,0,0,5.578.791c1.245.143,1.407.254,1.407,1.51,0,7.657-.077,15.316.041,22.971a12.112,12.112,0,0,1-2.345,7.3,31.084,31.084,0,0,1-7.379,7.247A55.675,55.675,0,0,1,21.71,53.238a1.827,1.827,0,0,1-1.339.027A53.632,53.632,0,0,1,5.763,43.833,18.524,18.524,0,0,1,.2,35.473,5.048,5.048,0,0,1,.01,34.145C0,30.053,0,25.96,0,21.868M1.676,9.779V10.81c0,7.634-.01,15.267.015,22.9a6.243,6.243,0,0,0,.375,2.049,18.048,18.048,0,0,0,5.1,7.082,51.78,51.78,0,0,0,13.484,8.7,1.1,1.1,0,0,0,.822-.025,55.558,55.558,0,0,0,11.125-6.71,25.247,25.247,0,0,0,6.633-7.313A8.979,8.979,0,0,0,40.413,32.9c-.061-7.382-.027-14.764-.027-22.147V9.779C33.134,9.063,26.468,7.1,21.029,2.05,15.568,7.109,8.923,9.06,1.676,9.779" transform="translate(-337 3771)"/>
    <path id="Path_1024" data-name="Path 1024" d="M56.785,55.575c1.83.494,2.492,1.347,2.5,3.2q.012,4.067,0,8.134c-.006,2.19-1.049,3.217-3.253,3.219q-5.987,0-11.975,0c-2.136,0-3.213-1.07-3.217-3.191-.005-2.761-.01-5.523,0-8.285a2.807,2.807,0,0,1,2.5-3.048c-.152-2.088.187-4.036,1.9-5.5a7.436,7.436,0,0,1,10,.345,6.167,6.167,0,0,1,1.542,5.131m-6.733,1.742q-3.127,0-6.253,0c-.9,0-1.231.307-1.235,1.223q-.021,4.332,0,8.664c0,.879.31,1.186,1.193,1.189q6.291.021,12.581,0c.9,0,1.254-.342,1.26-1.229q.028-4.294,0-8.588c-.005-.938-.371-1.262-1.3-1.262H50.053m-4.967-1.739h9.981c.3-2.336-.517-4.058-2.351-4.973a6.271,6.271,0,0,0-3.3-.536,4.515,4.515,0,0,0-4.333,5.509" transform="translate(-365.526 3737.233)" fill="#d61a69"/>
    <path id="Path_1025" data-name="Path 1025" d="M68.165,90.2h.682a2.918,2.918,0,0,0,.012.728,1.711,1.711,0,0,0,.375.785,1.3,1.3,0,0,1,.156,1.924,1.282,1.282,0,0,1-1.87,0,1.2,1.2,0,0,1,.175-1.89c.645-.41.242-1,.47-1.552" transform="translate(-383.908 3707.982)" fill="#d61a69"/>
    <rect id="Rectangle_60" data-name="Rectangle 60" width="42.103" height="53.379" transform="translate(-337 3771)" fill="rgba(0,0,0,0)"/>
  </g>
</svg>
