<svg xmlns="http://www.w3.org/2000/svg" xmlns:xlink="http://www.w3.org/1999/xlink" width="58.714" height="52" viewBox="0 0 58.714 52">
  <defs>
    <clipPath id="clip-path">
      <rect id="Rectangle_59" data-name="Rectangle 59" width="58.714" height="52" fill="none"/>
    </clipPath>
    <clipPath id="clip-path-2">
      <rect id="Rectangle_58" data-name="Rectangle 58" width="27.109" height="33.737" fill="#d61a69"/>
    </clipPath>
  </defs>
  <g id="Group_73" data-name="Group 73" transform="translate(293 -3744)">
    <g id="Group_72" data-name="Group 72" transform="translate(-293 3744)">
      <g id="Group_71" data-name="Group 71" clip-path="url(#clip-path)">
        <path id="Path_1022" data-name="Path 1022" d="M37.636,48.437H21.083c-.583,2.074-1.821,3.428-4.06,3.548a3.973,3.973,0,0,1-4.059-2.435,4.215,4.215,0,0,1,1.127-5.142q-1.225-2.127-2.447-4.248C9.793,36.953,7.934,33.751,6.1,30.537c-.212-.371-.387-.5-.841-.376a4.2,4.2,0,0,1-4.485-1.7,4.274,4.274,0,0,1,4.511-6.6c.162.041.325.078.521.124,1.066-1.841,2.12-3.661,3.173-5.483,1.607-2.782,3.207-5.568,4.826-8.343a.662.662,0,0,0-.089-.969,4.139,4.139,0,0,1-.755-4.729,4.274,4.274,0,0,1,7.951.592c.057.179.113.359.171.544H37.39a14.786,14.786,0,0,1,1.7-2.472,4.147,4.147,0,0,1,5.866.182,4.2,4.2,0,0,1,.1,5.831.74.74,0,0,0-.115,1.071q3.854,6.62,7.666,13.264c.095.164.2.322.33.317a13.625,13.625,0,0,1,2.683.146,4.253,4.253,0,0,1-2.208,8.213.56.56,0,0,0-.759.3q-3.871,6.757-7.778,13.494a.593.593,0,0,0,.108.858,4.17,4.17,0,0,1,.766,4.786,4.27,4.27,0,0,1-7.96-.7c-.043-.142-.093-.281-.15-.453m5.2-21.708c-.088.567-.147,1.051-.238,1.528a18.13,18.13,0,0,1-5.045,9.495c-.21.213-.424.372-.2.746q1.438,2.413,2.813,4.863c.179.317.367.277.673.247a7.266,7.266,0,0,1,2.013-.018.693.693,0,0,0,.888-.417c1.488-2.605,3-5.2,4.494-7.8,1.157-2.007,2.31-4.017,3.355-5.836-.483-.936-.885-1.739-1.317-2.525a.594.594,0,0,0-.424-.272c-2.32-.017-4.641-.012-7.012-.012M7.114,29.539c.593,1.03,1.271,2.209,1.952,3.388q2.969,5.14,5.941,10.278c.142.246.223.566.651.424a4.013,4.013,0,0,1,2.326-.021.578.578,0,0,0,.508-.182c1.027-1.733,2.029-3.481,3.018-5.2a.946.946,0,0,0-.093-.17,18.383,18.383,0,0,1-5.5-10.971.543.543,0,0,0-.393-.345q-3.323-.033-6.646,0a.662.662,0,0,0-.446.323c-.43.765-.828,1.548-1.316,2.473m16.37-15.082c.149-.064.248-.1.339-.147A11.9,11.9,0,0,0,28.628,9.68c.443-.77.978-.764,1.447-.019.068.108.127.221.2.329a11.97,11.97,0,0,0,5.011,4.381l3.809-6.59a18.216,18.216,0,0,1-1.239-2.2.758.758,0,0,0-.85-.6c-5.046.016-10.091.01-15.137.01a1.874,1.874,0,0,0-.508.014.647.647,0,0,0-.367.262c-.438.809-.853,1.63-1.333,2.559l3.827,6.631m-1.281.557c-1.256-2.178-2.478-4.313-3.73-6.43-.071-.121-.38-.14-.579-.141a12.855,12.855,0,0,1-2.014,0,.7.7,0,0,0-.894.4c-1.826,3.193-3.672,6.374-5.511,9.559-.827,1.432-1.653,2.865-2.382,4.128l1.6,2.772h7.13V17.413c0-1.662,0-1.659,1.653-1.611a11.718,11.718,0,0,0,4.729-.787m29.405,7.519c.036.108.026.042-.005-.012Q47.621,15.606,43.639,8.69c-.168-.292-.345-.3-.669-.271a10.216,10.216,0,0,1-2.14,0,.578.578,0,0,0-.7.325c-1.1,1.922-2.21,3.835-3.316,5.753-.071.123-.123.258-.207.435a14.063,14.063,0,0,0,5.16.88c.949-.014,1.128.172,1.128,1.1q0,3.868,0,7.735c0,.224.022.448.035.689h7.078l1.6-2.8M28.654,41.082v-14.3h-11.3c.407,6.351,5.754,12.379,11.3,14.3m1.453,0c5.309-1.417,12.043-10.07,11.183-14.312H30.107Zm-.049-15.829H41.468V17.231c-4.419-.285-8.323-1.678-11.409-5.131ZM17.247,17.216v8.037h11.33V12.234a14.3,14.3,0,0,1-11.33,4.983M39.053,44.186l-2.9-5.007c-1.06.711-2.015,1.432-3.046,2.021a31.354,31.354,0,0,1-3.216,1.542,1.528,1.528,0,0,1-1.026.016A21.019,21.019,0,0,1,23.3,39.694c-.228-.173-.451-.352-.709-.554l-2.945,5.1c.471.856.923,1.569,1.259,2.334.158.36.311.486.683.476.766-.021,1.533-.006,2.3-.006,4.388,0,8.775,0,13.163-.012a.885.885,0,0,0,.668-.277c.452-.776.837-1.591,1.336-2.568M16.8,7.2a2.945,2.945,0,0,0,2.933-2.915,2.912,2.912,0,0,0-5.823-.033A2.925,2.925,0,0,0,16.8,7.2m25.09-5.789a2.921,2.921,0,0,0-2.913,2.923A2.911,2.911,0,0,0,44.8,4.268a2.908,2.908,0,0,0-2.908-2.856m9.656,24.627A2.892,2.892,0,1,0,54.442,23.1a2.915,2.915,0,0,0-2.892,2.937M16.828,50.621a2.922,2.922,0,0,0,2.909-2.865,2.912,2.912,0,0,0-5.823-.051,2.909,2.909,0,0,0,2.914,2.916m25.05,0a2.9,2.9,0,1,0,.035-5.795,2.954,2.954,0,0,0-2.933,2.92,2.922,2.922,0,0,0,2.9,2.875M7.167,26.025A2.912,2.912,0,0,0,4.26,23.1a2.914,2.914,0,0,0-.02,5.828,2.916,2.916,0,0,0,2.926-2.905" transform="translate(0 0)"/>
      </g>
    </g>
    <g id="Group_70" data-name="Group 70" transform="translate(-277.198 3753.131)">
      <g id="Group_69" data-name="Group 69" clip-path="url(#clip-path-2)">
        <path id="Path_1021" data-name="Path 1021" d="M12.832,31.981V17.68H1.534c.407,6.351,5.754,12.38,11.3,14.3m1.453,0c5.309-1.417,12.043-10.07,11.183-14.312H14.285Zm-.049-15.829H25.646V8.13C21.227,7.845,17.323,6.452,14.236,3ZM1.425,8.115v8.037H12.754V3.132A14.3,14.3,0,0,1,1.425,8.115M20.332,30.077c-1.06.711-2.015,1.432-3.046,2.021a31.325,31.325,0,0,1-3.216,1.542,1.526,1.526,0,0,1-1.026.016,21.028,21.028,0,0,1-5.57-3.064c-.228-.173-.451-.352-.709-.554L5.6,28.96a18.387,18.387,0,0,1-5.5-10.972L0,16.2V8.312C0,6.65,0,6.653,1.652,6.7a11.721,11.721,0,0,0,4.729-.787l1.281-.557c.15-.064.248-.1.339-.147A11.907,11.907,0,0,0,12.807.578c.443-.77.977-.764,1.447-.02.068.108.127.221.2.33A11.97,11.97,0,0,0,19.46,5.269l1.324.557a14.051,14.051,0,0,0,5.16.88c.95-.014,1.128.172,1.128,1.1q0,3.868,0,7.735c0,.224.022.448.035.689l-.094,1.4c-.087.567-.147,1.051-.238,1.528a18.129,18.129,0,0,1-5.045,9.494Z" transform="translate(0 0)" fill="#d61a69"/>
      </g>
    </g>
  </g>
</svg>
