<svg xmlns="http://www.w3.org/2000/svg" xmlns:xlink="http://www.w3.org/1999/xlink" width="510" height="463" viewBox="0 0 510 463">
  <defs>
    <clipPath id="clip-path">
      <rect id="Rectangle_56" data-name="Rectangle 56" width="510" height="463" transform="translate(0 -103)" fill="#fff"/>
    </clipPath>
    <clipPath id="clip-path-2">
      <rect id="Rectangle_55" data-name="Rectangle 55" width="690.588" height="690.588" fill="none"/>
    </clipPath>
  </defs>
  <g id="Mask_Group_8" data-name="Mask Group 8" transform="translate(0 103)" clip-path="url(#clip-path)">
    <g id="Group_66" data-name="Group 66" transform="translate(77.816 -374.632)">
      <g id="Group_65" data-name="Group 65" clip-path="url(#clip-path-2)">
        <path id="Path_818" data-name="Path 818" d="M0,0C.824.505,1.647,1.009,2.465,1.52V117.647Q1.242,116.38,0,115.13Z" transform="translate(524.883 51.699)" fill="#d1d3d4"/>
        <path id="Path_819" data-name="Path 819" d="M2.465,116.127q-1.229.766-2.465,1.52V2.518Q1.241,1.268,2.465,0Z" transform="translate(524.884 521.242)" fill="#d1d3d4"/>
        <path id="Path_820" data-name="Path 820" d="M2.465,110.645Q1.235,111.328,0,112V2.137Q1.239,1.077,2.465,0Z" transform="translate(509.807 535.612)" fill="#d1d3d4"/>
        <path id="Path_821" data-name="Path 821" d="M0,0Q1.236.675,2.465,1.359V112Q1.24,110.927,0,109.865Z" transform="translate(509.807 42.972)" fill="#d1d3d4"/>
        <path id="Path_822" data-name="Path 822" d="M2.467,123.2q-1.228.861-2.467,1.711V3Q1.244,1.512,2.467,0Z" transform="translate(539.958 504.186)" fill="#d1d3d4"/>
        <path id="Path_823" data-name="Path 823" d="M0,0Q1.237.851,2.467,1.711v123.2q-1.222-1.513-2.467-3Z" transform="translate(539.958 61.49)" fill="#d1d3d4"/>
        <path id="Path_824" data-name="Path 824" d="M2.467,99.921q-1.23.466-2.467.92V1.338Q1.238.676,2.467,0Z" transform="translate(464.578 567.334)" fill="#d1d3d4"/>
        <path id="Path_825" data-name="Path 825" d="M0,0C.824.3,1.646.609,2.467.92V100.84Q1.236,100.166,0,99.5Z" transform="translate(464.578 22.412)" fill="#d1d3d4"/>
        <path id="Path_826" data-name="Path 826" d="M0,0Q1.237.952,2.465,1.915V134.685Q1.249,132.819,0,130.973Z" transform="translate(555.034 72.46)" fill="#d1d3d4"/>
        <path id="Path_827" data-name="Path 827" d="M2.465,132.772q-1.229.963-2.465,1.913V3.712Q1.25,1.868,2.465,0Z" transform="translate(555.035 483.442)" fill="#d1d3d4"/>
        <path id="Path_828" data-name="Path 828" d="M2.467,94.165c-.821.186-1.643.373-2.467.553V.766Q1.236.39,2.467,0Z" transform="translate(419.35 586.707)" fill="#d1d3d4"/>
        <path id="Path_829" data-name="Path 829" d="M0,0C.824.18,1.645.367,2.467.553V94.718Q1.236,94.329,0,93.952Z" transform="translate(419.35 9.163)" fill="#d1d3d4"/>
        <path id="Path_830" data-name="Path 830" d="M0,0C.824.349,1.645.705,2.465,1.06V103.837Q1.239,103.046,0,102.271Z" transform="translate(479.655 28.392)" fill="#d1d3d4"/>
        <path id="Path_831" data-name="Path 831" d="M2.465,102.776q-1.23.534-2.465,1.06V1.567Q1.237.79,2.465,0Z" transform="translate(479.655 558.358)" fill="#d1d3d4"/>
        <path id="Path_832" data-name="Path 832" d="M0,0Q1.237.6,2.467,1.207V107.5Q1.238,106.573,0,105.667Z" transform="translate(494.731 35.225)" fill="#d1d3d4"/>
        <path id="Path_833" data-name="Path 833" d="M2.466,106.289Q1.234,106.9,0,107.5V1.829Q1.239.922,2.466,0Z" transform="translate(494.73 547.867)" fill="#d1d3d4"/>
        <path id="Path_834" data-name="Path 834" d="M2.467,3.156V423.469Q1.241,425.054,0,426.626V0Q1.243,1.569,2.467,3.156" transform="translate(615.338 131.981)" fill="#d1d3d4"/>
        <path id="Path_835" data-name="Path 835" d="M2.465,97.584c-.82.267-1.643.527-2.465.789V1.133Q1.236.574,2.465,0Z" transform="translate(449.503 574.976)" fill="#d1d3d4"/>
        <path id="Path_836" data-name="Path 836" d="M0,0C.823.261,1.646.522,2.465.789V98.372Q1.237,97.8,0,97.24Z" transform="translate(449.502 17.239)" fill="#d1d3d4"/>
        <path id="Path_837" data-name="Path 837" d="M2.465,146.7Q1.237,147.782,0,148.854V4.873Q1.257,2.451,2.465,0Z" transform="translate(570.111 456.977)" fill="#d1d3d4"/>
        <path id="Path_838" data-name="Path 838" d="M0,0Q1.239,1.07,2.465,2.154v146.7Q1.26,146.4,0,143.981Z" transform="translate(570.111 84.757)" fill="#d1d3d4"/>
        <path id="Path_839" data-name="Path 839" d="M2.465,2.746V459.473Q1.24,460.852,0,462.218V0Q1.239,1.366,2.465,2.746" transform="translate(600.263 114.186)" fill="#d1d3d4"/>
        <path id="Path_840" data-name="Path 840" d="M2.466,95.686q-1.232.339-2.466.67V.943Q1.236.477,2.466,0Z" transform="translate(434.427 581.4)" fill="#d1d3d4"/>
        <path id="Path_841" data-name="Path 841" d="M0,0Q1.236.33,2.465.67V96.357Q1.237,95.879,0,95.414Z" transform="translate(434.426 12.832)" fill="#d1d3d4"/>
        <path id="Path_842" data-name="Path 842" d="M0,0Q1.239,1.206,2.465,2.425V173.249Q1.291,169.367,0,165.538Z" transform="translate(585.187 98.577)" fill="#d1d3d4"/>
        <path id="Path_843" data-name="Path 843" d="M2.465,170.824Q1.239,172.042,0,173.249V7.71Q1.294,3.884,2.465,0Z" transform="translate(585.187 418.762)" fill="#d1d3d4"/>
        <path id="Path_844" data-name="Path 844" d="M0,2.429Q1.227,1.209,2.465,0V165.91Q1.172,169.763,0,173.67Z" transform="translate(102.754 98.752)" fill="#d1d3d4"/>
        <path id="Path_845" data-name="Path 845" d="M2.467,173.67Q1.224,172.462,0,171.241V0Q1.171,3.905,2.467,7.759Z" transform="translate(102.754 418.166)" fill="#d1d3d4"/>
        <path id="Path_846" data-name="Path 846" d="M0,.92C.82.609,1.643.3,2.465,0V99.533Q1.23,100.2,0,100.872Z" transform="translate(223.362 22.48)" fill="#d1d3d4"/>
        <path id="Path_847" data-name="Path 847" d="M2.465,100.872c-.823-.3-1.646-.609-2.465-.92V0Q1.229.677,2.465,1.339Z" transform="translate(223.363 567.236)" fill="#d1d3d4"/>
        <path id="Path_848" data-name="Path 848" d="M0,269.651V5.8Q1.209,2.888,2.465,0V275.451q-1.26-2.886-2.465-5.8" transform="translate(27.373 207.569)" fill="#d1d3d4"/>
        <path id="Path_849" data-name="Path 849" d="M2.465,91.664C1.643,91.6.82,91.527,0,91.453V0C.82.1,1.642.2,2.465.3Z" transform="translate(313.818 596.539)" fill="#d1d3d4"/>
        <path id="Path_850" data-name="Path 850" d="M2.466,92.411C1.643,92.305.823,92.193,0,92.082V0Q1.232.228,2.466.446Z" transform="translate(298.741 594.206)" fill="#d1d3d4"/>
        <path id="Path_851" data-name="Path 851" d="M2.465,134.825Q1.23,133.872,0,132.91V0Q1.218,1.874,2.465,3.727Z" transform="translate(132.907 483.162)" fill="#d1d3d4"/>
        <path id="Path_852" data-name="Path 852" d="M0,1.913Q1.227.95,2.465,0V131.1Q1.216,132.948,0,134.824Z" transform="translate(132.906 72.601)" fill="#d1d3d4"/>
        <path id="Path_853" data-name="Path 853" d="M0,2.159Q1.229,1.076,2.467,0V144.176q-1.26,2.433-2.467,4.9Z" transform="translate(117.83 84.911)" fill="#d1d3d4"/>
        <path id="Path_854" data-name="Path 854" d="M2.467,149.07Q1.227,148,0,146.912V0Q1.207,2.462,2.467,4.9Z" transform="translate(117.83 456.606)" fill="#d1d3d4"/>
        <path id="Path_855" data-name="Path 855" d="M2.466,0V90.937c-.381,0-.76.007-1.142.007-.442,0-.882-.007-1.324-.008V0C.442,0,.882.008,1.324.008,1.706.008,2.086,0,2.466,0" transform="translate(343.97 598.472)" fill="#d1d3d4"/>
        <path id="Path_856" data-name="Path 856" d="M2.467,91.178Q1.233,91.129,0,91.069V0C.821.053,1.644.1,2.467.142Z" transform="translate(328.894 597.958)" fill="#d1d3d4"/>
        <path id="Path_857" data-name="Path 857" d="M2.467,98.4C1.644,98.136.82,97.875,0,97.606V0Q1.23.573,2.467,1.133Z" transform="translate(238.438 574.893)" fill="#d1d3d4"/>
        <path id="Path_858" data-name="Path 858" d="M0,.791C.82.524,1.643.262,2.467,0V97.265Q1.229,97.826,0,98.4Z" transform="translate(238.438 17.296)" fill="#d1d3d4"/>
        <path id="Path_859" data-name="Path 859" d="M2.467,94.736Q1.231,94.465,0,94.182V0Q1.23.392,2.467.77Z" transform="translate(268.589 586.648)" fill="#d1d3d4"/>
        <path id="Path_860" data-name="Path 860" d="M0,.553Q1.232.272,2.467,0V93.966q-1.236.378-2.467.77Z" transform="translate(268.589 9.204)" fill="#d1d3d4"/>
        <path id="Path_861" data-name="Path 861" d="M2.465,117.723Q1.23,116.966,0,116.2V0Q1.223,1.269,2.465,2.522Z" transform="translate(163.058 521.054)" fill="#d1d3d4"/>
        <path id="Path_862" data-name="Path 862" d="M0,1.523Q1.229.755,2.465,0V115.2Q1.225,116.455,0,117.723Z" transform="translate(163.058 51.811)" fill="#d1d3d4"/>
        <path id="Path_863" data-name="Path 863" d="M0,.673C.82.446,1.642.22,2.464,0V95.433Q1.229,95.9,0,96.378Z" transform="translate(253.515 12.88)" fill="#d1d3d4"/>
        <path id="Path_864" data-name="Path 864" d="M2.465,96.38C1.642,96.159.82,95.933,0,95.707V0Q1.23.48,2.465.946Z" transform="translate(253.515 581.328)" fill="#d1d3d4"/>
        <path id="Path_865" data-name="Path 865" d="M0,1.06Q1.23.526,2.467,0V102.306q-1.239.779-2.467,1.57Z" transform="translate(208.286 28.47)" fill="#d1d3d4"/>
        <path id="Path_866" data-name="Path 866" d="M2.467,103.876q-1.236-.526-2.467-1.06V0Q1.229.791,2.467,1.569Z" transform="translate(208.285 558.241)" fill="#d1d3d4"/>
        <path id="Path_867" data-name="Path 867" d="M2.467,125.009Q1.229,124.158,0,123.295V0Q1.222,1.515,2.467,3.01Z" transform="translate(147.981 503.964)" fill="#d1d3d4"/>
        <path id="Path_868" data-name="Path 868" d="M0,1.714Q1.23.853,2.467,0V122Q1.222,123.5,0,125.009Z" transform="translate(147.981 61.615)" fill="#d1d3d4"/>
        <path id="Path_869" data-name="Path 869" d="M0,183.164V8.948Q1.174,4.45,2.465,0V192.111Q1.175,187.663,0,183.164" transform="translate(12.298 249.238)" fill="#d1d3d4"/>
        <path id="Path_870" data-name="Path 870" d="M2.465,93.42Q1.232,93.205,0,92.986V0Q1.23.308,2.465.6Z" transform="translate(283.667 590.924)" fill="#d1d3d4"/>
        <path id="Path_871" data-name="Path 871" d="M0,459.065V2.75Q1.225,1.367,2.465,0V461.814Q1.226,460.446,0,459.065" transform="translate(87.678 114.387)" fill="#d1d3d4"/>
        <path id="Path_872" data-name="Path 872" d="M0,423.007V3.161Q1.223,1.573,2.467,0V426.169Q1.224,424.6,0,423.007" transform="translate(72.602 132.21)" fill="#d1d3d4"/>
        <path id="Path_873" data-name="Path 873" d="M2.465,91.448c-.82.074-1.644.141-2.465.209V.294C.823.2,1.644.1,2.465,0Z" transform="translate(374.123 596.562)" fill="#d1d3d4"/>
        <path id="Path_874" data-name="Path 874" d="M0,1.207Q1.23.6,2.467,0V105.711Q1.227,106.62,0,107.544Z" transform="translate(193.21 35.314)" fill="#d1d3d4"/>
        <path id="Path_875" data-name="Path 875" d="M2.467,107.544q-1.236-.6-2.467-1.207V0Q1.229.923,2.467,1.833Z" transform="translate(193.209 547.729)" fill="#d1d3d4"/>
        <path id="Path_876" data-name="Path 876" d="M2.465,112.062Q1.23,111.387,0,110.7V0Q1.225,1.079,2.465,2.141Z" transform="translate(178.134 535.454)" fill="#d1d3d4"/>
        <path id="Path_877" data-name="Path 877" d="M0,1.359Q1.23.674,2.465,0V109.921Q1.226,110.985,0,112.062Z" transform="translate(178.134 43.072)" fill="#d1d3d4"/>
        <path id="Path_878" data-name="Path 878" d="M2.467,92.072C1.645,92.182.824,92.3,0,92.4V.444Q1.236.228,2.467,0Z" transform="translate(389.198 594.24)" fill="#d1d3d4"/>
        <path id="Path_879" data-name="Path 879" d="M0,381.247V3.7Q1.222,1.841,2.465,0V384.948q-1.244-1.842-2.465-3.7" transform="translate(57.525 152.821)" fill="#d1d3d4"/>
        <path id="Path_880" data-name="Path 880" d="M2.465,92.974c-.82.148-1.643.289-2.465.431V.6Q1.234.308,2.465,0Z" transform="translate(404.275 590.969)" fill="#d1d3d4"/>
        <path id="Path_881" data-name="Path 881" d="M2.467,91.064c-.822.039-1.643.077-2.467.109V.141C.824.1,1.646.052,2.467,0Z" transform="translate(359.046 597.97)" fill="#d1d3d4"/>
        <path id="Path_882" data-name="Path 882" d="M0,331.581V4.479Q1.218,2.229,2.467,0V336.059Q1.217,333.831,0,331.581" transform="translate(42.449 177.265)" fill="#d1d3d4"/>
        <path id="Path_883" data-name="Path 883" d="M2.536,3.591V396.449Q1.279,398.255,0,400.041V0Q1.278,1.787,2.536,3.591" transform="translate(625.343 145.274)" fill="#d1d3d4"/>
        <path id="Path_884" data-name="Path 884" d="M2.536,3.41V410.254Q1.277,411.968,0,413.664V0Q1.278,1.7,2.536,3.41" transform="translate(620.341 138.462)" fill="#d1d3d4"/>
        <path id="Path_885" data-name="Path 885" d="M2.536,3.093V436.055Q1.275,437.609,0,439.148V0Q1.276,1.538,2.536,3.093" transform="translate(610.267 125.719)" fill="#d1d3d4"/>
        <path id="Path_886" data-name="Path 886" d="M2.536,2.956V447.987Q1.276,449.472,0,450.944V0Q1.276,1.469,2.536,2.956" transform="translate(605.265 119.822)" fill="#d1d3d4"/>
        <path id="Path_887" data-name="Path 887" d="M2.536,214.2Q1.274,215.556,0,216.9V21.224Q1.7,10.749,2.536,0Z" transform="translate(595.192 364.971)" fill="#d1d3d4"/>
        <path id="Path_888" data-name="Path 888" d="M0,0Q1.274,1.347,2.536,2.7V216.9Q1.71,206.157,0,195.676Z" transform="translate(595.19 108.717)" fill="#d1d3d4"/>
        <path id="Path_889" data-name="Path 889" d="M0,0Q1.274,1.292,2.536,2.6V187.821Q1.381,182.5,0,177.256Z" transform="translate(590.188 103.545)" fill="#d1d3d4"/>
        <path id="Path_890" data-name="Path 890" d="M2.536,185.226q-1.262,1.3-2.536,2.6V10.566Q1.376,5.326,2.536,0Z" transform="translate(590.189 399.222)" fill="#d1d3d4"/>
        <path id="Path_891" data-name="Path 891" d="M2.536,160.857q-1.262,1.2-2.536,2.389V6.536Q1.311,3.29,2.536,0Z" transform="translate(580.115 433.6)" fill="#d1d3d4"/>
        <path id="Path_892" data-name="Path 892" d="M0,0Q1.272,1.19,2.536,2.389V163.246Q1.312,159.956,0,156.71Z" transform="translate(580.115 93.742)" fill="#d1d3d4"/>
        <path id="Path_893" data-name="Path 893" d="M2.536,153.1Q1.273,154.259,0,155.4V5.651Q1.3,2.844,2.536,0Z" transform="translate(575.114 446.021)" fill="#d1d3d4"/>
        <path id="Path_894" data-name="Path 894" d="M0,0Q1.274,1.144,2.536,2.3V155.4Q1.3,152.557,0,149.75Z" transform="translate(575.112 89.166)" fill="#d1d3d4"/>
        <path id="Path_895" data-name="Path 895" d="M2.536,141.391C1.694,142.1.848,142.808,0,143.514V4.53Q1.292,2.278,2.536,0Z" transform="translate(565.039 466.611)" fill="#d1d3d4"/>
        <path id="Path_896" data-name="Path 896" d="M0,0Q1.272,1.056,2.536,2.123V143.515q-1.246-2.28-2.536-4.53Z" transform="translate(565.039 80.464)" fill="#d1d3d4"/>
        <path id="Path_897" data-name="Path 897" d="M2.536,136.818Q1.272,137.848,0,138.866V4.145Q1.288,2.086,2.536,0Z" transform="translate(560.036 475.335)" fill="#d1d3d4"/>
        <path id="Path_898" data-name="Path 898" d="M0,0Q1.272,1.018,2.536,2.048V138.865Q1.286,136.781,0,134.723Z" transform="translate(560.036 76.387)" fill="#d1d3d4"/>
        <path id="Path_899" data-name="Path 899" d="M2.536,129.237q-1.264.954-2.536,1.9V3.547Q1.283,1.786,2.536,0Z" transform="translate(549.963 490.822)" fill="#d1d3d4"/>
        <path id="Path_900" data-name="Path 900" d="M0,0Q1.273.944,2.536,1.9V131.134Q1.281,129.35,0,127.587Z" transform="translate(549.963 68.632)" fill="#d1d3d4"/>
        <path id="Path_901" data-name="Path 901" d="M2.536,126.086q-1.264.919-2.536,1.827V3.3Q1.281,1.663,2.536,0Z" transform="translate(544.961 497.685)" fill="#d1d3d4"/>
        <path id="Path_902" data-name="Path 902" d="M0,0Q1.272.909,2.536,1.827V127.913Q1.281,126.25,0,124.608Z" transform="translate(544.961 64.991)" fill="#d1d3d4"/>
        <path id="Path_903" data-name="Path 903" d="M2.536,120.638q-1.264.852-2.536,1.691V2.912Q1.28,1.467,2.536,0Z" transform="translate(534.887 510.19)" fill="#d1d3d4"/>
        <path id="Path_904" data-name="Path 904" d="M0,0Q1.271.84,2.536,1.691V122.329Q1.277,120.865,0,119.417Z" transform="translate(534.887 58.069)" fill="#d1d3d4"/>
        <path id="Path_905" data-name="Path 905" d="M2.536,118.289Q1.27,119.11,0,119.921V2.737Q1.276,1.379,2.536,0Z" transform="translate(529.885 515.843)" fill="#d1d3d4"/>
        <path id="Path_906" data-name="Path 906" d="M0,0Q1.272.81,2.536,1.632V119.921Q1.279,118.542,0,117.184Z" transform="translate(529.885 54.823)" fill="#d1d3d4"/>
        <path id="Path_907" data-name="Path 907" d="M0,0C.848.5,1.691,1.006,2.535,1.514V115.663Q1.278,114.431,0,113.216Z" transform="translate(519.811 48.646)" fill="#d1d3d4"/>
        <path id="Path_908" data-name="Path 908" d="M2.536,114.149Q1.27,114.91,0,115.663V2.448Q1.276,1.232,2.536,0Z" transform="translate(519.811 526.279)" fill="#d1d3d4"/>
        <path id="Path_909" data-name="Path 909" d="M0,0Q1.271.721,2.536,1.45V113.791Q1.275,112.622,0,111.473Z" transform="translate(514.809 45.758)" fill="#d1d3d4"/>
        <path id="Path_910" data-name="Path 910" d="M2.536,112.34q-1.264.731-2.536,1.451V2.317Q1.274,1.167,2.536,0Z" transform="translate(514.809 531.04)" fill="#d1d3d4"/>
        <path id="Path_911" data-name="Path 911" d="M2.536,109.09Q1.27,109.766,0,110.434V2.086Q1.274,1.052,2.536,0Z" transform="translate(504.735 539.892)" fill="#d1d3d4"/>
        <path id="Path_912" data-name="Path 912" d="M0,0Q1.271.666,2.536,1.344v109.09Q1.275,109.383,0,108.347Z" transform="translate(504.734 40.263)" fill="#d1d3d4"/>
        <path id="Path_913" data-name="Path 913" d="M2.536,107.652Q1.272,108.3,0,108.936V1.98Q1.274,1,2.536,0Z" transform="translate(499.733 543.955)" fill="#d1d3d4"/>
        <path id="Path_914" data-name="Path 914" d="M0,0C.847.427,1.693.852,2.536,1.284V108.936q-1.26-1-2.536-1.98Z" transform="translate(499.732 37.697)" fill="#d1d3d4"/>
        <path id="Path_915" data-name="Path 915" d="M2.536,105.04q-1.265.6-2.536,1.187V1.787Q1.273.9,2.536,0Z" transform="translate(489.658 551.528)" fill="#d1d3d4"/>
        <path id="Path_916" data-name="Path 916" d="M0,0Q1.271.589,2.536,1.187v105.04q-1.262-.9-2.536-1.787Z" transform="translate(489.658 32.831)" fill="#d1d3d4"/>
        <path id="Path_917" data-name="Path 917" d="M0,0C.846.375,1.693.75,2.536,1.132V105.013q-1.262-.856-2.536-1.7Z" transform="translate(484.656 30.566)" fill="#d1d3d4"/>
        <path id="Path_918" data-name="Path 918" d="M2.536,103.88c-.843.382-1.69.757-2.536,1.132V1.7Q1.273.855,2.536,0Z" transform="translate(484.657 555.01)" fill="#d1d3d4"/>
        <path id="Path_919" data-name="Path 919" d="M0,0Q1.271.515,2.536,1.043V102.8Q1.274,102.033,0,101.275Z" transform="translate(474.582 26.288)" fill="#d1d3d4"/>
        <path id="Path_920" data-name="Path 920" d="M2.536,101.761Q1.27,102.287,0,102.8V1.529Q1.273.772,2.536,0Z" transform="translate(474.582 561.495)" fill="#d1d3d4"/>
        <path id="Path_921" data-name="Path 921" d="M0,0C.847.328,1.693.656,2.536.991V101.808Q1.274,101.075,0,100.357Z" transform="translate(469.58 24.308)" fill="#d1d3d4"/>
        <path id="Path_922" data-name="Path 922" d="M2.536,100.817c-.844.335-1.69.663-2.536.991V1.451Q1.272.732,2.536,0Z" transform="translate(469.581 564.472)" fill="#d1d3d4"/>
        <path id="Path_923" data-name="Path 923" d="M0,0C.847.3,1.692.6,2.536.909V100Q1.272,99.339,0,98.695Z" transform="translate(459.507 20.58)" fill="#d1d3d4"/>
        <path id="Path_924" data-name="Path 924" d="M2.536,99.089c-.845.3-1.688.61-2.536.909V1.3Q1.272.659,2.536,0Z" transform="translate(459.507 570.012)" fill="#d1d3d4"/>
        <path id="Path_925" data-name="Path 925" d="M2.536,98.314q-1.266.434-2.536.86V1.233Q1.273.623,2.536,0Z" transform="translate(454.504 572.546)" fill="#d1d3d4"/>
        <path id="Path_926" data-name="Path 926" d="M0,0Q1.271.425,2.536.86V99.174Q1.272,98.552,0,97.942Z" transform="translate(454.504 18.869)" fill="#d1d3d4"/>
        <path id="Path_927" data-name="Path 927" d="M0,0Q1.271.382,2.536.771V97.679Q1.272,97.126,0,96.585Z" transform="translate(444.431 15.671)" fill="#d1d3d4"/>
        <path id="Path_928" data-name="Path 928" d="M2.536,96.908Q1.27,97.3,0,97.68V1.1Q1.271.554,2.536,0Z" transform="translate(444.431 577.238)" fill="#d1d3d4"/>
        <path id="Path_929" data-name="Path 929" d="M0,0C.847.24,1.691.49,2.536.736v96.28Q1.272,96.492,0,95.984Z" transform="translate(439.428 14.206)" fill="#d1d3d4"/>
        <path id="Path_930" data-name="Path 930" d="M2.536,96.279c-.845.247-1.688.5-2.536.736V1.031Q1.271.521,2.536,0Z" transform="translate(439.428 579.367)" fill="#d1d3d4"/>
        <path id="Path_931" data-name="Path 931" d="M2.536,95.143c-.844.219-1.69.431-2.536.643V.91Q1.271.462,2.536,0Z" transform="translate(429.355 583.282)" fill="#d1d3d4"/>
        <path id="Path_932" data-name="Path 932" d="M0,0Q1.269.318,2.536.643V95.787Q1.27,95.326,0,94.877Z" transform="translate(429.355 11.519)" fill="#d1d3d4"/>
        <path id="Path_933" data-name="Path 933" d="M2.536,94.639c-.844.205-1.69.4-2.536.6V.846Q1.271.428,2.536,0Z" transform="translate(424.353 585.044)" fill="#d1d3d4"/>
        <path id="Path_934" data-name="Path 934" d="M0,0C.846.2,1.692.4,2.536.6v94.64Q1.272,94.811,0,94.4Z" transform="translate(424.353 10.302)" fill="#d1d3d4"/>
        <path id="Path_935" data-name="Path 935" d="M2.536,93.733c-.845.178-1.689.359-2.536.531V.734Q1.271.373,2.536,0Z" transform="translate(414.279 588.235)" fill="#d1d3d4"/>
        <path id="Path_936" data-name="Path 936" d="M2.536,93.335q-1.267.248-2.536.487V.673Q1.269.342,2.536,0Z" transform="translate(409.277 589.651)" fill="#d1d3d4"/>
        <path id="Path_937" data-name="Path 937" d="M2.536,92.645c-.844.139-1.69.271-2.536.4V.566Q1.271.29,2.536,0Z" transform="translate(399.202 592.163)" fill="#d1d3d4"/>
        <path id="Path_938" data-name="Path 938" d="M2.536,92.343c-.845.125-1.69.251-2.536.37V.506Q1.269.258,2.536,0Z" transform="translate(394.201 593.25)" fill="#d1d3d4"/>
        <path id="Path_939" data-name="Path 939" d="M2.536,91.832c-.845.1-1.69.2-2.536.3V.4Q1.269.207,2.536,0Z" transform="translate(384.126 595.117)" fill="#d1d3d4"/>
        <path id="Path_940" data-name="Path 940" d="M2.536,91.627Q1.268,91.76,0,91.883V.35Q1.269.182,2.536,0Z" transform="translate(379.125 595.885)" fill="#d1d3d4"/>
        <path id="Path_941" data-name="Path 941" d="M2.536,91.3c-.844.063-1.691.12-2.536.177V.246Q1.269.128,2.536,0Z" transform="translate(369.05 597.131)" fill="#d1d3d4"/>
        <path id="Path_942" data-name="Path 942" d="M2.536,91.171q-1.267.076-2.536.144V.2Q1.269.107,2.536,0Z" transform="translate(364.048 597.594)" fill="#d1d3d4"/>
        <path id="Path_943" data-name="Path 943" d="M2.536,91c-.845.027-1.69.056-2.536.077V.1Q1.269.055,2.536,0Z" transform="translate(353.974 598.232)" fill="#d1d3d4"/>
        <path id="Path_944" data-name="Path 944" d="M2.536,90.95q-1.267.023-2.536.039V.048Q1.269.03,2.536,0Z" transform="translate(348.972 598.404)" fill="#d1d3d4"/>
        <path id="Path_945" data-name="Path 945" d="M2.536,90.991C1.69,90.981.845,90.965,0,90.95V0C.844.021,1.69.035,2.536.048Z" transform="translate(338.898 598.401)" fill="#d1d3d4"/>
        <path id="Path_946" data-name="Path 946" d="M2.536,91.08C1.689,91.059.845,91.027,0,91V0C.844.036,1.69.071,2.536.1Z" transform="translate(333.896 598.224)" fill="#d1d3d4"/>
        <path id="Path_947" data-name="Path 947" d="M2.536,91.32Q1.267,91.251,0,91.176V0Q1.266.107,2.536.2Z" transform="translate(323.823 597.578)" fill="#d1d3d4"/>
        <path id="Path_948" data-name="Path 948" d="M2.536,91.479C1.69,91.421.844,91.367,0,91.3V0Q1.265.132,2.536.248Z" transform="translate(318.82 597.111)" fill="#d1d3d4"/>
        <path id="Path_949" data-name="Path 949" d="M2.536,91.893Q1.267,91.768,0,91.634V0Q1.265.183,2.536.353Z" transform="translate(308.747 595.858)" fill="#d1d3d4"/>
        <path id="Path_950" data-name="Path 950" d="M2.536,92.139c-.847-.1-1.691-.2-2.536-.3V0Q1.265.209,2.536.4Z" transform="translate(303.745 595.087)" fill="#d1d3d4"/>
        <path id="Path_951" data-name="Path 951" d="M2.536,92.726Q1.267,92.545,0,92.355V0Q1.265.262,2.536.511Z" transform="translate(293.671 593.211)" fill="#d1d3d4"/>
        <path id="Path_952" data-name="Path 952" d="M2.536,93.061C1.69,92.928.844,92.8,0,92.657V0Q1.266.29,2.536.568Z" transform="translate(288.669 592.122)" fill="#d1d3d4"/>
        <path id="Path_953" data-name="Path 953" d="M2.536,93.839Q1.265,93.6,0,93.349V0Q1.264.345,2.536.675Z" transform="translate(278.594 589.601)" fill="#d1d3d4"/>
        <path id="Path_954" data-name="Path 954" d="M2.536,94.28C1.689,94.106.845,93.926,0,93.747V0Q1.266.373,2.536.735Z" transform="translate(273.593 588.182)" fill="#d1d3d4"/>
        <path id="Path_955" data-name="Path 955" d="M0,.6C.844.4,1.691.2,2.536,0V94.413q-1.271.418-2.536.848Z" transform="translate(263.518 10.345)" fill="#d1d3d4"/>
        <path id="Path_956" data-name="Path 956" d="M2.536,95.262c-.846-.2-1.693-.4-2.536-.6V0Q1.264.432,2.536.848Z" transform="translate(263.518 584.981)" fill="#d1d3d4"/>
        <path id="Path_957" data-name="Path 957" d="M0,.645Q1.265.317,2.536,0V94.895q-1.271.448-2.536.912Z" transform="translate(258.516 11.565)" fill="#d1d3d4"/>
        <path id="Path_958" data-name="Path 958" d="M2.536,95.807C1.69,95.593.844,95.38,0,95.161V0Q1.265.462,2.536.912Z" transform="translate(258.516 583.216)" fill="#d1d3d4"/>
        <path id="Path_959" data-name="Path 959" d="M0,.737C.845.49,1.689.24,2.536,0V96Q1.265,96.514,0,97.039Z" transform="translate(248.442 14.258)" fill="#d1d3d4"/>
        <path id="Path_960" data-name="Path 960" d="M2.536,97.039C1.689,96.8.845,96.549,0,96.3V0Q1.264.524,2.536,1.035Z" transform="translate(248.442 579.291)" fill="#d1d3d4"/>
        <path id="Path_961" data-name="Path 961" d="M0,.771Q1.266.379,2.536,0V96.607Q1.265,97.148,0,97.7Z" transform="translate(243.44 15.726)" fill="#d1d3d4"/>
        <path id="Path_962" data-name="Path 962" d="M2.536,97.7Q1.267,97.323,0,96.933V0Q1.264.555,2.536,1.1Z" transform="translate(243.44 577.157)" fill="#d1d3d4"/>
        <path id="Path_963" data-name="Path 963" d="M2.536,99.2Q1.265,98.778,0,98.341V0Q1.264.626,2.536,1.236Z" transform="translate(233.366 572.456)" fill="#d1d3d4"/>
        <path id="Path_964" data-name="Path 964" d="M0,.862Q1.266.427,2.536,0V97.967Q1.265,98.579,0,99.2Z" transform="translate(233.366 18.929)" fill="#d1d3d4"/>
        <path id="Path_965" data-name="Path 965" d="M2.536,100.03c-.848-.3-1.692-.606-2.536-.91V0Q1.264.661,2.536,1.305Z" transform="translate(228.364 569.915)" fill="#d1d3d4"/>
        <path id="Path_966" data-name="Path 966" d="M0,.91C.845.606,1.689.3,2.536,0V98.723Q1.263,99.368,0,100.028Z" transform="translate(228.364 20.643)" fill="#d1d3d4"/>
        <path id="Path_967" data-name="Path 967" d="M2.536,101.843c-.846-.328-1.693-.659-2.536-.994V0Q1.264.733,2.536,1.453Z" transform="translate(218.291 564.366)" fill="#d1d3d4"/>
        <path id="Path_968" data-name="Path 968" d="M0,.994Q1.266.491,2.536,0V100.39q-1.273.719-2.536,1.453Z" transform="translate(218.291 24.378)" fill="#d1d3d4"/>
        <path id="Path_969" data-name="Path 969" d="M2.536,102.843Q1.265,102.326,0,101.8V0Q1.262.773,2.536,1.531Z" transform="translate(213.288 561.384)" fill="#d1d3d4"/>
        <path id="Path_970" data-name="Path 970" d="M0,1.045C.844.695,1.689.345,2.536,0V101.31Q1.263,102.07,0,102.843Z" transform="translate(213.288 26.362)" fill="#d1d3d4"/>
        <path id="Path_971" data-name="Path 971" d="M0,1.134C.843.751,1.69.376,2.536,0V103.355q-1.273.844-2.536,1.7Z" transform="translate(203.214 30.649)" fill="#d1d3d4"/>
        <path id="Path_972" data-name="Path 972" d="M2.536,105.056Q1.265,104.492,0,103.922V0Q1.262.858,2.536,1.7Z" transform="translate(203.215 554.884)" fill="#d1d3d4"/>
        <path id="Path_973" data-name="Path 973" d="M2.536,106.274Q1.265,105.685,0,105.083V0Q1.262.9,2.536,1.789Z" transform="translate(198.212 551.398)" fill="#d1d3d4"/>
        <path id="Path_974" data-name="Path 974" d="M0,1.191Q1.264.591,2.535,0V104.485q-1.272.888-2.535,1.79Z" transform="translate(198.212 32.915)" fill="#d1d3d4"/>
        <path id="Path_975" data-name="Path 975" d="M0,1.287C.843.853,1.69.426,2.536,0V107q-1.274.984-2.536,1.985Z" transform="translate(188.138 37.789)" fill="#d1d3d4"/>
        <path id="Path_976" data-name="Path 976" d="M2.536,108.99Q1.263,108.35,0,107.7V0Q1.26,1,2.536,1.985Z" transform="translate(188.139 543.81)" fill="#d1d3d4"/>
        <path id="Path_977" data-name="Path 977" d="M0,1.346Q1.266.67,2.536,0V108.4Q1.261,109.438,0,110.49Z" transform="translate(183.135 40.358)" fill="#d1d3d4"/>
        <path id="Path_978" data-name="Path 978" d="M2.536,110.49c-.848-.444-1.692-.9-2.536-1.346V0Q1.26,1.053,2.536,2.089Z" transform="translate(183.137 539.74)" fill="#d1d3d4"/>
        <path id="Path_979" data-name="Path 979" d="M2.536,113.854Q1.265,113.132,0,112.4V0Q1.259,1.169,2.536,2.32Z" transform="translate(173.062 530.874)" fill="#d1d3d4"/>
        <path id="Path_980" data-name="Path 980" d="M0,1.453Q1.264.72,2.536,0V111.534Q1.261,112.685,0,113.854Z" transform="translate(173.062 45.86)" fill="#d1d3d4"/>
        <path id="Path_981" data-name="Path 981" d="M0,1.517Q1.266.755,2.536,0V113.282Q1.258,114.5,0,115.737Z" transform="translate(168.06 48.751)" fill="#d1d3d4"/>
        <path id="Path_982" data-name="Path 982" d="M2.536,115.737Q1.263,114.983,0,114.218V0Q1.26,1.236,2.536,2.455Z" transform="translate(168.06 526.1)" fill="#d1d3d4"/>
        <path id="Path_983" data-name="Path 983" d="M0,1.636Q1.266.813,2.536,0V117.261Q1.26,118.625,0,120Z" transform="translate(157.986 54.938)" fill="#d1d3d4"/>
        <path id="Path_984" data-name="Path 984" d="M2.536,120Q1.263,119.191,0,118.368V0Q1.257,1.382,2.536,2.742Z" transform="translate(157.986 515.647)" fill="#d1d3d4"/>
        <path id="Path_985" data-name="Path 985" d="M2.536,122.421Q1.265,121.579,0,120.73V0Q1.257,1.468,2.536,2.916Z" transform="translate(152.984 509.978)" fill="#d1d3d4"/>
        <path id="Path_986" data-name="Path 986" d="M0,1.691Q1.264.838,2.536,0V119.5Q1.256,120.951,0,122.421Z" transform="translate(152.984 58.191)" fill="#d1d3d4"/>
        <path id="Path_987" data-name="Path 987" d="M2.536,128.022Q1.265,127.113,0,126.195V0Q1.253,1.666,2.536,3.31Z" transform="translate(142.91 497.445)" fill="#d1d3d4"/>
        <path id="Path_988" data-name="Path 988" d="M0,1.827Q1.264.908,2.536,0V124.711Q1.254,126.357,0,128.022Z" transform="translate(142.91 65.122)" fill="#d1d3d4"/>
        <path id="Path_989" data-name="Path 989" d="M2.536,131.258q-1.273-.944-2.536-1.9V0Q1.253,1.788,2.536,3.554Z" transform="translate(137.908 490.564)" fill="#d1d3d4"/>
        <path id="Path_990" data-name="Path 990" d="M0,1.9Q1.264.944,2.536,0V127.7Q1.253,129.469,0,131.258Z" transform="translate(137.908 68.766)" fill="#d1d3d4"/>
        <path id="Path_991" data-name="Path 991" d="M2.536,139.023Q1.261,138,0,136.97V0Q1.25,2.09,2.536,4.159Z" transform="translate(127.834 475.033)" fill="#d1d3d4"/>
        <path id="Path_992" data-name="Path 992" d="M0,2.052Q1.264,1.02,2.536,0V134.865Q1.247,136.928,0,139.023Z" transform="translate(127.834 76.532)" fill="#d1d3d4"/>
        <path id="Path_993" data-name="Path 993" d="M0,2.127Q1.262,1.056,2.536,0V139.153Q1.246,141.408,0,143.693Z" transform="translate(122.832 80.615)" fill="#d1d3d4"/>
        <path id="Path_994" data-name="Path 994" d="M2.536,143.693Q1.263,142.635,0,141.566V0Q1.244,2.285,2.536,4.539Z" transform="translate(122.832 466.28)" fill="#d1d3d4"/>
        <path id="Path_995" data-name="Path 995" d="M0,2.3Q1.262,1.144,2.536,0V149.982Q1.235,152.8,0,155.66Z" transform="translate(112.757 89.329)" fill="#d1d3d4"/>
        <path id="Path_996" data-name="Path 996" d="M2.536,155.66q-1.274-1.146-2.536-2.3V0Q1.234,2.858,2.536,5.678Z" transform="translate(112.758 445.599)" fill="#d1d3d4"/>
        <path id="Path_997" data-name="Path 997" d="M2.536,163.561Q1.263,162.371,0,161.17V0Q1.222,3.308,2.536,6.57Z" transform="translate(107.756 433.114)" fill="#d1d3d4"/>
        <path id="Path_998" data-name="Path 998" d="M0,2.392Q1.26,1.187,2.536,0V156.991Q1.225,160.253,0,163.561Z" transform="translate(107.756 93.913)" fill="#d1d3d4"/>
        <path id="Path_999" data-name="Path 999" d="M0,2.6Q1.26,1.294,2.535,0V177.759Q1.155,183.083,0,188.5Z" transform="translate(97.683 103.729)" fill="#d1d3d4"/>
        <path id="Path_1000" data-name="Path 1000" d="M2.536,188.5Q1.261,187.2,0,185.9V0Q1.155,5.412,2.536,10.738Z" transform="translate(97.683 398.362)" fill="#d1d3d4"/>
        <path id="Path_1001" data-name="Path 1001" d="M0,2.709Q1.26,1.347,2.536,0V196.624Q.775,207.8,0,219.275Z" transform="translate(92.68 108.909)" fill="#d1d3d4"/>
        <path id="Path_1002" data-name="Path 1002" d="M2.536,219.276Q1.261,217.928,0,216.567V0Q.765,11.474,2.536,22.652Z" transform="translate(92.68 362.403)" fill="#d1d3d4"/>
        <path id="Path_1003" data-name="Path 1003" d="M0,447.569V2.962Q1.26,1.473,2.536,0V450.53Q1.26,449.057,0,447.569" transform="translate(82.605 120.029)" fill="#d1d3d4"/>
        <path id="Path_1004" data-name="Path 1004" d="M0,435.615V3.1Q1.257,1.542,2.535,0V438.715q-1.276-1.541-2.535-3.1" transform="translate(77.604 125.936)" fill="#d1d3d4"/>
        <path id="Path_1005" data-name="Path 1005" d="M0,409.769V3.416Q1.257,1.7,2.536,0V413.184q-1.278-1.7-2.536-3.416" transform="translate(67.53 138.701)" fill="#d1d3d4"/>
        <path id="Path_1006" data-name="Path 1006" d="M0,395.939V3.6Q1.257,1.79,2.536,0V399.536q-1.278-1.791-2.536-3.6" transform="translate(62.527 145.525)" fill="#d1d3d4"/>
        <path id="Path_1007" data-name="Path 1007" d="M0,365.667V4.039Q1.255,2.011,2.536,0V369.706Q1.254,367.7,0,365.667" transform="translate(52.454 160.441)" fill="#d1d3d4"/>
        <path id="Path_1008" data-name="Path 1008" d="M0,349.235V4.3Q1.253,2.139,2.536,0V353.531q-1.283-2.139-2.536-4.3" transform="translate(47.452 168.528)" fill="#d1d3d4"/>
        <path id="Path_1009" data-name="Path 1009" d="M0,312.575V4.962Q1.248,2.468,2.536,0V317.537Q1.249,315.068,0,312.575" transform="translate(37.378 186.525)" fill="#d1d3d4"/>
        <path id="Path_1010" data-name="Path 1010" d="M0,292.153V5.411Q1.248,2.694,2.536,0V297.564Q1.244,294.873,0,292.153" transform="translate(32.376 196.512)" fill="#d1d3d4"/>
        <path id="Path_1011" data-name="Path 1011" d="M0,244.642V6.667Q1.234,3.317,2.536,0V251.311q-1.3-3.318-2.536-6.669" transform="translate(22.302 219.639)" fill="#d1d3d4"/>
        <path id="Path_1012" data-name="Path 1012" d="M0,216.457V7.661Q1.225,3.81,2.536,0V224.118Q1.224,220.307,0,216.457" transform="translate(17.3 233.235)" fill="#d1d3d4"/>
        <path id="Path_1013" data-name="Path 1013" d="M0,141.309V12.142Q1.158,6.032,2.535,0V153.451Q1.162,147.419,0,141.309" transform="translate(7.226 268.568)" fill="#d1d3d4"/>
        <path id="Path_1014" data-name="Path 1014" d="M1.052,76.894Q.01,63.5,0,49.828T1.052,22.765Q1.947,11.272,3.588,0V99.658Q1.953,88.392,1.052,76.894" transform="translate(1.172 295.465)" fill="#d1d3d4"/>
      </g>
    </g>
  </g>
</svg>
