<svg xmlns="http://www.w3.org/2000/svg" xmlns:xlink="http://www.w3.org/1999/xlink" width="54.869" height="49.63" viewBox="0 0 54.869 49.63">
  <defs>
    <clipPath id="clip-path">
      <rect id="Rectangle_64" data-name="Rectangle 64" width="54.869" height="49.508" fill="none"/>
    </clipPath>
    <clipPath id="clip-path-2">
      <rect id="Rectangle_63" data-name="Rectangle 63" width="24.07" height="32.116" fill="#d61a69"/>
    </clipPath>
  </defs>
  <g id="Group_84" data-name="Group 84" transform="translate(-863 -3890)">
    <g id="Group_83" data-name="Group 83" transform="translate(863 3890)">
      <g id="Group_82" data-name="Group 82" clip-path="url(#clip-path)">
        <path id="Path_1033" data-name="Path 1033" d="M24.069,44.126c0,1.486,0,2.893,0,4.3,0,.924-.141,1.065-1.068,1.066q-4.273.006-8.545,0c-.164,0-.376.047-.483-.035-.222-.17-.536-.411-.538-.624s.3-.488.531-.624a1.509,1.509,0,0,1,.694-.043c2.658,0,5.316,0,8.028,0V32.152H1.376V48.165h.753q3.672,0,7.344,0c.212,0,.472-.064.623.035.247.16.549.412.584.66.025.174-.331.444-.564.6-.135.088-.366.035-.555.035q-4.2,0-8.4,0c-1,0-1.156-.157-1.157-1.137Q0,40.092,0,31.83c0-.9.129-1.032,1.015-1.037.748,0,1.5,0,2.324,0,0-1.417-.069-2.758.021-4.088A16.017,16.017,0,0,1,3.9,23.17a7.811,7.811,0,0,1,3.6-4.455,1,1,0,0,0,.56-1c-.021-2.448-.03-4.9.012-7.344a1.627,1.627,0,0,1,.472-1.076q5.018-4.45,10.1-8.827A1.98,1.98,0,0,1,19.834.02Q31.416-.02,43,.02a2.083,2.083,0,0,1,1.252.458c3.371,2.9,6.706,5.845,10.065,8.761a1.465,1.465,0,0,1,.555,1.216q-.017,16.278-.009,32.556c0,1-.12,1.114-1.158,1.115H24.069M9.411,11.389v6.374c.311-.063.587-.114.861-.175A8.725,8.725,0,0,1,19.932,22.4a9.928,9.928,0,0,1,.838,4.114c.016,1.4,0,2.807,0,4.276.818,0,1.543,0,2.268,0,.913.005,1.026.114,1.027,1.013q0,5.084,0,10.169v.778H53.481V11.389Zm43.731-1.381C51.6,8.671,50.212,7.445,48.8,6.247a1.2,1.2,0,0,0-.714-.2c-1.224-.019-2.448-.009-3.672-.009-1.977,0-3.955.021-5.932-.021a1.365,1.365,0,0,1-.979-.466c-.3-.436.151-.862.879-.864,2.613,0,5.226,0,7.839,0,.218,0,.435-.02.784-.038-1.264-1.113-2.4-2.134-3.568-3.122a1.181,1.181,0,0,0-.714-.188q-11.264-.014-22.529,0a1.107,1.107,0,0,0-.662.145c-1.2,1.009-2.372,2.047-3.7,3.207h.865c2.472,0,4.944-.008,7.415.006.528,0,1.3-.2,1.29.658-.007.827-.756.675-1.3.676-3.06.009-6.12,0-9.18.018a1.615,1.615,0,0,0-.956.306c-1.285,1.067-2.534,2.179-3.792,3.28a3.128,3.128,0,0,0-.308.378ZM19.393,30.755c0-1.628.038-3.221-.009-4.812a7.075,7.075,0,0,0-2.669-5.534,7.1,7.1,0,0,0-7.3-1.159,6.713,6.713,0,0,0-4.572,5.611A36.817,36.817,0,0,0,4.7,29.225c-.011.507,0,1.014,0,1.53Z" transform="translate(0 0)"/>
      </g>
    </g>
    <g id="Group_81" data-name="Group 81" transform="translate(863 3907.514)">
      <g id="Group_80" data-name="Group 80" clip-path="url(#clip-path-2)">
        <path id="Path_1032" data-name="Path 1032" d="M8.675.738C8.986.675,10,.257,10.272.2a8.725,8.725,0,0,1,9.659,4.815,9.928,9.928,0,0,1,.838,4.114c.016,1.4,0,2.807,0,4.276.818,0,1.543,0,2.268,0,.913.005,1.026.114,1.027,1.013q0,5.084,0,10.169v2.151c0,1.486,0,2.893,0,4.3,0,.924-.141,1.065-1.068,1.066q-4.273.006-8.545,0c-.164,0-.376.047-.483-.035-.222-.17-.536-.411-.538-.624s.3-.488.531-.624a1.509,1.509,0,0,1,.694-.043c2.658,0,5.316,0,8.028,0V14.761H1.376V30.773h.753q3.672,0,7.344,0c.212,0,.472-.064.623.035.247.16.549.412.584.66.025.174-.331.444-.564.6-.135.088-.366.035-.555.035q-4.2,0-8.4,0C.162,32.1,0,31.944,0,30.963Q0,22.7,0,14.438c0-.9.129-1.032,1.015-1.037.748,0,1.5,0,2.324,0,0-1.417-.069-2.758.021-4.088A16.017,16.017,0,0,1,3.9,5.779,7.811,7.811,0,0,1,7.5,1.323ZM19.393,13.363c0-1.628.038-3.221-.009-4.812a7.075,7.075,0,0,0-2.669-5.534,7.1,7.1,0,0,0-7.3-1.159A6.713,6.713,0,0,0,4.838,7.47,36.817,36.817,0,0,0,4.7,11.833c-.011.507,0,1.014,0,1.53Z" transform="translate(0 0)" fill="#d61a69"/>
      </g>
    </g>
  </g>
</svg>
