<svg xmlns="http://www.w3.org/2000/svg" width="56.365" height="45.099" viewBox="0 0 56.365 45.099">
  <g id="Group_85" data-name="Group 85" transform="translate(355.001 -3790.401)">
    <path id="Path_1034" data-name="Path 1034" d="M28.145,45.095q-12.482,0-24.964,0c-1.873,0-3.019-.94-3.171-2.59a3.437,3.437,0,0,1,.7-2.2q7.08-11,14.151-22.015Q20.212,9.956,25.568,1.625C26.522.142,27.807-.382,29.274.289A3.937,3.937,0,0,1,30.8,1.711q7.045,10.857,14.025,21.756Q50.26,31.916,55.7,40.362a3.023,3.023,0,0,1,.367,3.164,2.7,2.7,0,0,1-2.6,1.564c-1,.017-2,0-3,0H28.145m-.021-2.036H52.806a5.6,5.6,0,0,0,.714-.014.848.848,0,0,0,.71-1.207,3.842,3.842,0,0,0-.362-.615Q44.95,27.359,36.03,13.5,32.586,8.143,29.143,2.79c-.652-1.012-1.194-1.005-1.854.011-.026.04-.05.081-.076.121L7.072,34.186q-2.381,3.7-4.76,7.4c-.54.844-.216,1.446.772,1.474.191.006.381,0,.572,0H28.124" transform="translate(-355 3790.4)"/>
    <path id="Path_1035" data-name="Path 1035" d="M94.818,75.84h-1.44c-.223-4.7-.444-9.374-.668-14.1h2.781c-.225,4.712-.448,9.39-.673,14.1" transform="translate(-421.18 3746.328)" fill="#d61a69"/>
    <path id="Path_1036" data-name="Path 1036" d="M91.778,120.579c-.009-1.206.525-1.831,1.587-1.856q1.635-.039,1.665,1.765c.019,1.155-.578,1.829-1.62,1.829a1.536,1.536,0,0,1-1.632-1.738" transform="translate(-420.515 3705.653)" fill="#d61a69"/>
    <rect id="Rectangle_65" data-name="Rectangle 65" width="56.365" height="45.099" transform="translate(-355 3790.401)" fill="none"/>
  </g>
</svg>
