<svg xmlns="http://www.w3.org/2000/svg" width="60.986" height="53.955" viewBox="0 0 60.986 53.955">
  <g id="Group_68" data-name="Group 68" transform="translate(462 -3692.915)">
    <path id="Path_1015" data-name="Path 1015" d="M14.6,66.975c1.9,0,3.719.012,5.533-.018a.891.891,0,0,0,.566-.389c.7-.988,1.4-1.978,2.036-3.008a1.017,1.017,0,0,1,1.18-.531A20.423,20.423,0,0,0,30.55,63c1.216-.2,2.416-.5,3.715-.774.465,1.307.975,2.615,1.389,3.952a.993.993,0,0,0,1.179.817c1.611-.055,3.225-.018,4.877-.018.669-2.586,1.418-5.105,1.944-7.67a2.366,2.366,0,0,1,2.263-2.124c4.327-.834,7.535-3.178,9.023-7.48a1.045,1.045,0,0,1,1.251-.816c1.076.05,2.157.013,3.274.013V39.735H55.5c-.8-5.477-3.921-8.761-9.3-10.065l4.542-6.514a8.688,8.688,0,0,0-7.135.224,13.5,13.5,0,0,0-5.135,4.884L31.608,25.72l.3-1.466c1.8.624,3.551,1.174,5.251,1.85.579.23.849.221,1.226-.287a11.66,11.66,0,0,1,5.289-4.147,10.573,10.573,0,0,1,9.362.9L48.825,28.65a35.343,35.343,0,0,1,3.441,2.121,11.533,11.533,0,0,1,4.33,6.651c.125.552.321.8.936.764,1.131-.057,2.268-.016,3.454-.016V50.448c-1.36,0-2.692.019-4.022-.011a.771.771,0,0,0-.845.55A12.687,12.687,0,0,1,46.678,58.6a1.859,1.859,0,0,0-1.65,1.652c-.628,2.752-1.376,5.477-2.1,8.3H40.434c-1.591,0-3.182-.027-4.772.014a.907.907,0,0,1-1.08-.741c-.329-1.108-.774-2.18-1.134-3.28-.129-.4-.287-.5-.706-.4a22.691,22.691,0,0,1-8.11.544,1.046,1.046,0,0,0-1.173.557c-.588.97-1.239,1.9-1.892,2.831-.142.2-.406.448-.616.451-2.546.031-5.094.02-7.711.02-.2-1.85-.478-3.645-.584-5.45a6.723,6.723,0,0,0-2.3-5.163A17.977,17.977,0,0,1,4.837,47.4c-.124-.664-.147-1.347-.215-2C.635,44.409-.836,42.369.457,39.6l1.4.428c-.751,2.6.484,3.507,2.723,3.714a22.437,22.437,0,0,1,3.725-10.8l1.089.743c-.869,2.064-1.869,4-2.51,6.047A16.08,16.08,0,0,0,9.392,54.391a45.6,45.6,0,0,0,3.946,4.255,1.832,1.832,0,0,1,.483.939c.284,2.43.521,4.865.782,7.39" transform="translate(-462 3678.3)"/>
    <path id="Path_1017" data-name="Path 1017" d="M146.789,82.682h1.346c.573,1.073,1.042,1.385,1.776,1.169.642-.189.94-.769.872-1.742.208-.1.427-.222.653-.323.2-.091.417-.162.623-.241a2.559,2.559,0,0,1-.376,2.929,2.864,2.864,0,0,1-3.231.767,2.626,2.626,0,0,1-1.663-2.56" transform="translate(-564.314 3636.075)"/>
    <g id="Group_67" data-name="Group 67" transform="translate(-453.89 3692.916)">
      <path id="Path_1016" data-name="Path 1016" d="M37.114,0A10.384,10.384,0,0,1,47.471,10.285a10.352,10.352,0,1,1-20.7,0A10.361,10.361,0,0,1,37.114,0m0,19.075a8.769,8.769,0,1,0-8.764-8.757,8.767,8.767,0,0,0,8.764,8.757" transform="translate(-26.768 -0.001)" fill="#d61a69"/>
      <path id="Path_1018" data-name="Path 1018" d="M49.287,21.379h1.452l-.145.152a6.751,6.751,0,0,0,1.366,1.552,1.9,1.9,0,0,0,2.785-1.552,1.348,1.348,0,0,0-.723-1.462c-.8-.377-1.606-.726-2.42-1.06-1.351-.555-2.357-1.384-2.4-2.977a3.45,3.45,0,0,1,2.333-3.377c.136-.059.364-.124.377-.211.088-.606.531-.475.914-.481s.765-.083.807.5c.008.1.318.193.5.273a3.249,3.249,0,0,1,2.006,3.195H54.979a7.449,7.449,0,0,0-1.325-1.651,1.917,1.917,0,0,0-2.9,1.605,1.328,1.328,0,0,0,.8,1.344c.758.34,1.522.672,2.3.967A3.264,3.264,0,0,1,56.3,21.313,3.361,3.361,0,0,1,54,24.634a.929.929,0,0,0-.407.29.994.994,0,0,1-1.569.041,1.746,1.746,0,0,0-.662-.431,3.4,3.4,0,0,1-2.072-3.155" transform="translate(-42.404 -8.333)" fill="#d61a69"/>
      <path id="Path_1019" data-name="Path 1019" d="M74.559,26.434c2.165-3.142,2.167-4.775-.014-8.211l1.02-.963c2.85,2.407,2.876,7.329.043,10.184l-1.049-1.01" transform="translate(-60.07 -12.031)" fill="#d61a69"/>
      <path id="Path_1020" data-name="Path 1020" d="M38.854,17.308l1.059.993a5.948,5.948,0,0,0,.03,8.174l-1.117.888c-2.333-1.8-3.229-6.94.028-10.055" transform="translate(-33.712 -12.064)" fill="#d61a69"/>
    </g>
    <rect id="Rectangle_57" data-name="Rectangle 57" width="60.986" height="53.955" transform="translate(-462 3692.915)" fill="none"/>
  </g>
</svg>
