<svg xmlns="http://www.w3.org/2000/svg" width="47.215" height="52.868" viewBox="0 0 47.215 52.868">
  <g id="Group_75" data-name="Group 75" transform="translate(-1689 -3627)">
    <path id="Path_1026" data-name="Path 1026" d="M42.759,38.465a4.149,4.149,0,0,1,3.535,1.511,4.022,4.022,0,0,1-.246,5.395Q38.314,53.149,30.532,60.88a9.681,9.681,0,0,1-7.607,2.709C16.7,63.269,12.09,60.057,8.5,55.205A15.694,15.694,0,0,1,5.177,46.3a29.88,29.88,0,0,1,.406-4.93c.279-2.052.668-4.1,0-6.131A34.931,34.931,0,0,0,1.632,26.48a20.455,20.455,0,0,1-1.3-2.208,2.728,2.728,0,0,1,.333-3.086,9.4,9.4,0,0,1,.975-1.071,3.855,3.855,0,0,1,5.444-.239,13.2,13.2,0,0,1,2.239,2.529c2,2.841,3.932,5.734,5.912,8.591a1.055,1.055,0,0,0,.685.365A6.477,6.477,0,0,0,21.4,29.283q7.018-6.994,14.013-14.012a4.262,4.262,0,1,1,6.127,5.915c-2.179,2.215-4.389,4.4-6.592,6.591-.142.141-.345.22-.476.392,2.742.741,3.951,2.45,3.756,5.217A4.344,4.344,0,0,1,41.78,34.8a4.284,4.284,0,0,1,.979,3.661m-12.246,2.7a12.533,12.533,0,0,1-2.07-.245A4.234,4.234,0,0,1,26.73,33.79q6.736-6.764,13.5-13.5a7.2,7.2,0,0,0,.5-.526A2.689,2.689,0,0,0,36.615,16.3Q29.6,23.3,22.6,30.31a8.787,8.787,0,0,1-4.289,2.473c-.591.136-1.2.181-1.8.266.275.689.571,1.349.8,2.031a.727.727,0,0,1-.465.994c-.435.161-.8-.065-1.023-.517a35.95,35.95,0,0,0-1.913-3.635c-2.03-3.093-4.129-6.141-6.247-9.174a9.193,9.193,0,0,0-1.691-1.754,2.137,2.137,0,0,0-2.2-.421,3.788,3.788,0,0,0-2.117,2.041c-.318.733.269,1.332.6,1.944a2.209,2.209,0,0,0,.118.189A39.4,39.4,0,0,1,6.15,32.061a15.4,15.4,0,0,1,1.074,8.988,27.519,27.519,0,0,0-.512,4.7,14.468,14.468,0,0,0,1.915,6.8,4,4,0,0,0,2.552,2.126c2.835.873,5.724.2,7.081-2.283a.62.62,0,0,1,.942-.277c.391.242.369.611.151.976a6.142,6.142,0,0,1-4.962,3.175,27.251,27.251,0,0,1-3.086-.076c-.014-.023.008.03.044.068,3.092,3.277,6.754,5.479,11.34,5.784A8.728,8.728,0,0,0,29.825,59.4c2.931-2.99,5.912-5.93,8.88-8.884a2.222,2.222,0,0,1,.533-.3l-.161-.192a4.1,4.1,0,0,1-3.458-4.371,4.3,4.3,0,0,1-5.105-4.495m6.17-8.88a2.685,2.685,0,0,0-4.5-1.718c-1.5,1.445-2.964,2.923-4.418,4.411A2.682,2.682,0,0,0,31.56,38.77c1.464-1.426,2.9-2.882,4.338-4.333a2.777,2.777,0,0,0,.785-2.152m-1.9,11.967a5.365,5.365,0,0,0,1.52-.7c1.5-1.408,2.976-2.855,4.373-4.369a2.511,2.511,0,0,0-.283-3.555,2.568,2.568,0,0,0-3.535.082c-1.351,1.328-2.7,2.663-4.017,4.021a2.464,2.464,0,0,0-.533,2.828,2.875,2.875,0,0,0,2.474,1.694m10.831-1.835a2.364,2.364,0,0,0-1.507-2.14,2.337,2.337,0,0,0-2.69.458c-1.209,1.158-2.389,2.347-3.554,3.549a2.5,2.5,0,0,0,3.556,3.5c1.169-1.146,2.321-2.31,3.475-3.472a2.512,2.512,0,0,0,.721-1.9" transform="translate(1689 3616.262)"/>
    <path id="Path_1027" data-name="Path 1027" d="M72.266,0c.12.131.467.336.536.611.448,1.778.846,3.568,1.238,5.36a.754.754,0,0,1-.608.962.737.737,0,0,1-.908-.616C72.1,4.513,71.688,2.707,71.3.9c-.1-.484.274-.89.969-.9" transform="translate(1633.639 3627)" fill="#d61a69"/>
    <path id="Path_1028" data-name="Path 1028" d="M114.045,18.566a3.4,3.4,0,0,1-.475.668q-2.063,1.706-4.156,3.377a.789.789,0,0,1-1.143-.076.769.769,0,0,1,.145-1.133c1.424-1.167,2.852-2.329,4.308-3.454a.957.957,0,0,1,.812-.037c.208.09.322.4.508.654" transform="translate(1605.052 3613.144)" fill="#d61a69"/>
    <path id="Path_1029" data-name="Path 1029" d="M46.049,15.06a3.571,3.571,0,0,1,.658.4q1.919,1.907,3.812,3.841a.779.779,0,1,1-1.09,1.1c-1.28-1.271-2.562-2.541-3.8-3.854a1.248,1.248,0,0,1-.194-.951c.035-.2.376-.346.613-.543" transform="translate(1653.726 3615.303)" fill="#d61a69"/>
    <path id="Path_1030" data-name="Path 1030" d="M97.224,1.439c-.085.315-.119.478-.173.634q-.828,2.389-1.664,4.776c-.217.618-.578.84-1.068.687-.46-.144-.613-.585-.4-1.2q.844-2.442,1.7-4.882c.151-.433.45-.748.914-.6.281.09.49.4.694.584" transform="translate(1616.128 3626.364)" fill="#d61a69"/>
    <rect id="Rectangle_61" data-name="Rectangle 61" width="47.215" height="52.868" transform="translate(1689 3627)" fill="none"/>
  </g>
</svg>
