<svg xmlns="http://www.w3.org/2000/svg" xmlns:xlink="http://www.w3.org/1999/xlink" width="712" height="553" viewBox="0 0 712 553">
  <defs>
    <clipPath id="clip-path">
      <rect id="Rectangle_137" data-name="Rectangle 137" width="712" height="553" transform="translate(0 0.408)" fill="#fff"/>
    </clipPath>
    <clipPath id="clip-path-2">
      <rect id="Rectangle_136" data-name="Rectangle 136" width="1016.996" height="1016.996" fill="none"/>
    </clipPath>
  </defs>
  <g id="Mask_Group_16" data-name="Mask Group 16" transform="translate(0 -0.408)" clip-path="url(#clip-path)">
    <g id="Group_173" data-name="Group 173" transform="translate(33.395 48.846)">
      <g id="Group_172" data-name="Group 172" clip-path="url(#clip-path-2)">
        <path id="Path_2164" data-name="Path 2164" d="M0,173.253c1.213-.744,2.426-1.486,3.631-2.238V0Q1.829,1.866,0,3.706Z" transform="translate(772.969 767.608)" fill="#d1d3d4"/>
        <path id="Path_2165" data-name="Path 2165" d="M3.631,2.238Q1.821,1.11,0,0V169.545q1.827,1.84,3.631,3.708Z" transform="translate(772.971 76.135)" fill="#d1d3d4"/>
        <path id="Path_2166" data-name="Path 2166" d="M3.631,2Q1.819.995,0,0V161.8q1.825,1.561,3.631,3.147Z" transform="translate(750.768 63.283)" fill="#d1d3d4"/>
        <path id="Path_2167" data-name="Path 2167" d="M0,164.941q1.82-.994,3.631-2V0Q1.826,1.584,0,3.147Z" transform="translate(750.768 788.772)" fill="#d1d3d4"/>
        <path id="Path_2168" data-name="Path 2168" d="M3.632,2.519Q1.823,1.251,0,0V179.526q1.833,2.2,3.632,4.424Z" transform="translate(795.171 90.556)" fill="#d1d3d4"/>
        <path id="Path_2169" data-name="Path 2169" d="M0,183.95q1.822-1.253,3.632-2.519V0Q1.833,2.229,0,4.424Z" transform="translate(795.171 742.492)" fill="#d1d3d4"/>
        <path id="Path_2170" data-name="Path 2170" d="M3.632,1.355Q1.821.669,0,0V146.532q1.822.976,3.632,1.971Z" transform="translate(684.162 33.007)" fill="#d1d3d4"/>
        <path id="Path_2171" data-name="Path 2171" d="M0,148.5c1.213-.449,2.425-.9,3.632-1.355V0Q1.821.994,0,1.969Z" transform="translate(684.162 835.487)" fill="#d1d3d4"/>
        <path id="Path_2172" data-name="Path 2172" d="M0,198.345q1.822-1.4,3.631-2.819V0Q1.839,2.749,0,5.467Z" transform="translate(817.372 711.942)" fill="#d1d3d4"/>
        <path id="Path_2173" data-name="Path 2173" d="M3.631,2.818Q1.821,1.4,0,0V192.878q1.841,2.715,3.631,5.467Z" transform="translate(817.374 106.709)" fill="#d1d3d4"/>
        <path id="Path_2174" data-name="Path 2174" d="M3.632.814C2.423.54,1.213.266,0,0V138.358q1.82.554,3.632,1.129Z" transform="translate(617.557 13.494)" fill="#d1d3d4"/>
        <path id="Path_2175" data-name="Path 2175" d="M0,139.487c1.213-.265,2.423-.54,3.632-.814V0Q1.82.572,0,1.128Z" transform="translate(617.557 864.015)" fill="#d1d3d4"/>
        <path id="Path_2176" data-name="Path 2176" d="M0,152.915c1.213-.514,2.423-1.039,3.631-1.562V0Q1.824,1.165,0,2.305Z" transform="translate(706.365 822.269)" fill="#d1d3d4"/>
        <path id="Path_2177" data-name="Path 2177" d="M3.631,1.562Q1.819.775,0,0V150.608q1.822,1.144,3.631,2.307Z" transform="translate(706.365 41.813)" fill="#d1d3d4"/>
        <path id="Path_2178" data-name="Path 2178" d="M0,158.3q1.822-.88,3.632-1.777V0Q1.823,1.359,0,2.694Z" transform="translate(728.566 806.817)" fill="#d1d3d4"/>
        <path id="Path_2179" data-name="Path 2179" d="M3.632,1.777Q1.818.884,0,0V155.611q1.825,1.336,3.632,2.694Z" transform="translate(728.564 51.875)" fill="#d1d3d4"/>
        <path id="Path_2180" data-name="Path 2180" d="M3.632,623.624V4.649Q1.828,2.314,0,0V628.271q1.83-2.311,3.632-4.647" transform="translate(906.178 194.362)" fill="#d1d3d4"/>
        <path id="Path_2181" data-name="Path 2181" d="M3.631,1.161C2.423.768,1.211.385,0,0V143.2q1.82.823,3.631,1.669Z" transform="translate(661.962 25.387)" fill="#d1d3d4"/>
        <path id="Path_2182" data-name="Path 2182" d="M0,144.867c1.211-.385,2.425-.768,3.631-1.161V0Q1.821.841,0,1.667Z" transform="translate(661.96 846.742)" fill="#d1d3d4"/>
        <path id="Path_2183" data-name="Path 2183" d="M3.631,3.172Q1.822,1.58,0,0V212.034q1.851,3.567,3.631,7.177Z" transform="translate(839.575 124.817)" fill="#d1d3d4"/>
        <path id="Path_2184" data-name="Path 2184" d="M0,219.211q1.825-1.576,3.631-3.171V0Q1.855,3.611,0,7.177Z" transform="translate(839.575 672.968)" fill="#d1d3d4"/>
        <path id="Path_2185" data-name="Path 2185" d="M3.631,676.643V4.043Q1.826,2.011,0,0V680.686q1.825-2.011,3.631-4.043" transform="translate(883.978 168.154)" fill="#d1d3d4"/>
        <path id="Path_2186" data-name="Path 2186" d="M3.631.987Q1.816.487,0,0V140.51q1.82.686,3.631,1.389Z" transform="translate(639.76 18.897)" fill="#d1d3d4"/>
        <path id="Path_2187" data-name="Path 2187" d="M0,141.9q1.82-.486,3.631-.987V0Q1.821.7,0,1.389Z" transform="translate(639.759 856.198)" fill="#d1d3d4"/>
        <path id="Path_2188" data-name="Path 2188" d="M0,255.136q1.825-1.776,3.631-3.572V0Q1.9,5.718,0,11.356Z" transform="translate(861.777 616.691)" fill="#d1d3d4"/>
        <path id="Path_2189" data-name="Path 2189" d="M3.631,3.572Q1.824,1.778,0,0V243.781q1.9,5.635,3.631,11.354Z" transform="translate(861.777 145.169)" fill="#d1d3d4"/>
        <path id="Path_2190" data-name="Path 2190" d="M0,252.178q1.807,1.8,3.631,3.577V11.427Q1.726,5.753,0,0Z" transform="translate(151.321 615.812)" fill="#d1d3d4"/>
        <path id="Path_2191" data-name="Path 2191" d="M3.632,0Q1.8,1.778,0,3.577V255.755Q1.724,250,3.632,244.328Z" transform="translate(151.321 145.428)" fill="#d1d3d4"/>
        <path id="Path_2192" data-name="Path 2192" d="M0,147.195c1.208.458,2.419.906,3.631,1.355V1.972Q1.811,1,0,0Z" transform="translate(328.934 835.341)" fill="#d1d3d4"/>
        <path id="Path_2193" data-name="Path 2193" d="M3.631,0C2.419.449,1.206.9,0,1.355V148.549q1.809-1,3.631-1.972Z" transform="translate(328.936 33.106)" fill="#d1d3d4"/>
        <path id="Path_2194" data-name="Path 2194" d="M0,8.542V397.1q1.781,4.289,3.631,8.542V0Q1.775,4.25,0,8.542" transform="translate(40.312 305.675)" fill="#d1d3d4"/>
        <path id="Path_2195" data-name="Path 2195" d="M3.631,0C2.419.1,1.208.2,0,.311V134.99c1.208-.15,2.418-.3,3.631-.438Z" transform="translate(462.145 3.512)" fill="#d1d3d4"/>
        <path id="Path_2196" data-name="Path 2196" d="M3.632,0C2.419.155,1.211.321,0,.485v135.6q1.814-.337,3.632-.657Z" transform="translate(439.942 5.848)" fill="#d1d3d4"/>
        <path id="Path_2197" data-name="Path 2197" d="M3.631,0Q1.811,1.4,0,2.82V198.55q1.794-2.759,3.631-5.489Z" transform="translate(195.725 106.916)" fill="#d1d3d4"/>
        <path id="Path_2198" data-name="Path 2198" d="M0,195.731q1.807,1.418,3.631,2.818V5.487Q1.79,2.762,0,0Z" transform="translate(195.724 711.531)" fill="#d1d3d4"/>
        <path id="Path_2199" data-name="Path 2199" d="M0,216.351q1.809,1.595,3.632,3.179V7.21Q1.777,3.627,0,0Z" transform="translate(173.522 672.421)" fill="#d1d3d4"/>
        <path id="Path_2200" data-name="Path 2200" d="M3.632,0Q1.808,1.579,0,3.179v216.35q1.778-3.626,3.632-7.21Z" transform="translate(173.522 125.045)" fill="#d1d3d4"/>
        <path id="Path_2201" data-name="Path 2201" d="M3.632,133.927V.01C3.072.009,2.513,0,1.95,0,1.3,0,.651.01,0,.012V133.928c.651,0,1.3-.012,1.95-.012.563,0,1.122.009,1.682.01" transform="translate(506.548 1.726)" fill="#d1d3d4"/>
        <path id="Path_2202" data-name="Path 2202" d="M3.632,0Q1.815.072,0,.16V134.274c1.21-.078,2.421-.143,3.632-.209Z" transform="translate(484.346 2.138)" fill="#d1d3d4"/>
        <path id="Path_2203" data-name="Path 2203" d="M3.632,0C2.421.385,1.208.77,0,1.165V144.9q1.812-.844,3.632-1.669Z" transform="translate(351.136 25.473)" fill="#d1d3d4"/>
        <path id="Path_2204" data-name="Path 2204" d="M0,143.742c1.208.393,2.419.778,3.632,1.165V1.669Q1.81.843,0,0Z" transform="translate(351.136 846.618)" fill="#d1d3d4"/>
        <path id="Path_2205" data-name="Path 2205" d="M3.632,0Q1.813.4,0,.814v138.7q1.812-.577,3.632-1.134Z" transform="translate(395.539 13.555)" fill="#d1d3d4"/>
        <path id="Path_2206" data-name="Path 2206" d="M0,138.7q1.814.414,3.632.815V1.133Q1.813.577,0,0Z" transform="translate(395.539 863.929)" fill="#d1d3d4"/>
        <path id="Path_2207" data-name="Path 2207" d="M3.631,0Q1.811,1.116,0,2.243V173.365q1.8-1.869,3.631-3.713Z" transform="translate(240.128 76.299)" fill="#d1d3d4"/>
        <path id="Path_2208" data-name="Path 2208" d="M0,171.122q1.809,1.131,3.631,2.243V3.713Q1.8,1.868,0,0Z" transform="translate(240.128 767.332)" fill="#d1d3d4"/>
        <path id="Path_2209" data-name="Path 2209" d="M0,140.941c1.208.333,2.418.666,3.629.99V1.392Q1.809.707,0,0Z" transform="translate(373.339 856.096)" fill="#d1d3d4"/>
        <path id="Path_2210" data-name="Path 2210" d="M3.631,0C2.418.324,1.208.657,0,.99V141.934q1.812-.707,3.631-1.393Z" transform="translate(373.339 18.968)" fill="#d1d3d4"/>
        <path id="Path_2211" data-name="Path 2211" d="M0,151.412q1.812.787,3.632,1.562V2.312Q1.808,1.166,0,0Z" transform="translate(306.733 822.095)" fill="#d1d3d4"/>
        <path id="Path_2212" data-name="Path 2212" d="M3.632,0Q1.813.774,0,1.562V152.974q1.809-1.165,3.632-2.311Z" transform="translate(306.731 41.927)" fill="#d1d3d4"/>
        <path id="Path_2213" data-name="Path 2213" d="M3.632,0Q1.81,1.253,0,2.525v181.57q1.8-2.231,3.632-4.433Z" transform="translate(217.925 90.737)" fill="#d1d3d4"/>
        <path id="Path_2214" data-name="Path 2214" d="M0,181.57q1.812,1.269,3.632,2.524V4.433Q1.8,2.228,0,0Z" transform="translate(217.925 742.164)" fill="#d1d3d4"/>
        <path id="Path_2215" data-name="Path 2215" d="M0,13.177V269.736q1.729,6.624,3.631,13.177V0Q1.731,6.551,0,13.177" transform="translate(18.11 367.042)" fill="#d1d3d4"/>
        <path id="Path_2216" data-name="Path 2216" d="M3.631,0Q1.814.316,0,.638V137.575q1.812-.453,3.631-.889Z" transform="translate(417.742 9.196)" fill="#d1d3d4"/>
        <path id="Path_2217" data-name="Path 2217" d="M0,4.048V676.041q1.8,2.037,3.631,4.05V0Q1.806,2.014,0,4.048" transform="translate(129.119 168.452)" fill="#d1d3d4"/>
        <path id="Path_2218" data-name="Path 2218" d="M0,4.656V622.943q1.8,2.34,3.632,4.656V0Q1.8,2.317,0,4.656" transform="translate(106.918 194.699)" fill="#d1d3d4"/>
        <path id="Path_2219" data-name="Path 2219" d="M3.631.307C2.423.2,1.21.1,0,0V134.544c1.211.138,2.421.285,3.631.433Z" transform="translate(550.953 3.489)" fill="#d1d3d4"/>
        <path id="Path_2220" data-name="Path 2220" d="M0,156.6q1.812.9,3.632,1.777V2.7Q1.808,1.361,0,0Z" transform="translate(284.531 806.615)" fill="#d1d3d4"/>
        <path id="Path_2221" data-name="Path 2221" d="M3.632,0Q1.813.88,0,1.777v156.6q1.809-1.359,3.632-2.7Z" transform="translate(284.53 52.006)" fill="#d1d3d4"/>
        <path id="Path_2222" data-name="Path 2222" d="M3.631,0Q1.811.994,0,2V165.029q1.8-1.589,3.631-3.153Z" transform="translate(262.33 63.429)" fill="#d1d3d4"/>
        <path id="Path_2223" data-name="Path 2223" d="M0,163.027q1.812,1.009,3.631,2V3.153Q1.806,1.587,0,0Z" transform="translate(262.33 788.537)" fill="#d1d3d4"/>
        <path id="Path_2224" data-name="Path 2224" d="M3.632.485C2.423.323,1.213.155,0,0V135.421q1.82.318,3.632.654Z" transform="translate(573.152 5.812)" fill="#d1d3d4"/>
        <path id="Path_2225" data-name="Path 2225" d="M0,5.449V561.444q1.8,2.739,3.631,5.449V0Q1.8,2.713,0,5.449" transform="translate(84.715 225.05)" fill="#d1d3d4"/>
        <path id="Path_2226" data-name="Path 2226" d="M3.631.635C2.423.418,1.211.209,0,0V136.669q1.817.432,3.631.885Z" transform="translate(595.356 9.151)" fill="#d1d3d4"/>
        <path id="Path_2227" data-name="Path 2227" d="M3.632.16C2.423.1,1.213.047,0,0V134.06c1.213.066,2.425.131,3.632.207Z" transform="translate(528.749 2.128)" fill="#d1d3d4"/>
        <path id="Path_2228" data-name="Path 2228" d="M0,6.6V488.3q1.794,3.313,3.632,6.6V0Q1.792,3.282,0,6.6" transform="translate(62.513 261.048)" fill="#d1d3d4"/>
        <path id="Path_2229" data-name="Path 2229" d="M3.734,583.832V5.289Q1.883,2.631,0,0V589.121q1.881-2.632,3.734-5.289" transform="translate(920.913 213.937)" fill="#d1d3d4"/>
        <path id="Path_2230" data-name="Path 2230" d="M3.734,604.161V5.021Q1.881,2.5,0,0V609.183q1.882-2.5,3.734-5.022" transform="translate(913.546 203.906)" fill="#d1d3d4"/>
        <path id="Path_2231" data-name="Path 2231" d="M3.734,642.157V4.556Q1.878,2.267,0,0V646.713q1.879-2.265,3.734-4.556" transform="translate(898.711 185.142)" fill="#d1d3d4"/>
        <path id="Path_2232" data-name="Path 2232" d="M3.734,659.731V4.355Q1.879,2.168,0,0V664.084q1.879-2.164,3.734-4.354" transform="translate(891.345 176.456)" fill="#d1d3d4"/>
        <path id="Path_2233" data-name="Path 2233" d="M3.734,3.983Q1.876,1.979,0,0V288.162q2.5,15.427,3.734,31.256Z" transform="translate(876.51 160.102)" fill="#d1d3d4"/>
        <path id="Path_2234" data-name="Path 2234" d="M0,319.418q1.877-1.983,3.734-3.983V0Q2.518,15.82,0,31.256Z" transform="translate(876.508 537.476)" fill="#d1d3d4"/>
        <path id="Path_2235" data-name="Path 2235" d="M0,276.6q1.877-1.9,3.734-3.822V0Q2.033,7.843,0,15.56Z" transform="translate(869.142 587.915)" fill="#d1d3d4"/>
        <path id="Path_2236" data-name="Path 2236" d="M3.734,3.822Q1.876,1.9,0,0V261.036q2.027,7.716,3.734,15.56Z" transform="translate(869.143 152.486)" fill="#d1d3d4"/>
        <path id="Path_2237" data-name="Path 2237" d="M3.734,3.518Q1.875,1.748,0,0V230.779q1.931,4.781,3.734,9.625Z" transform="translate(854.307 138.049)" fill="#d1d3d4"/>
        <path id="Path_2238" data-name="Path 2238" d="M0,240.4q1.874-1.752,3.734-3.519V0Q1.933,4.846,0,9.625Z" transform="translate(854.307 638.542)" fill="#d1d3d4"/>
        <path id="Path_2239" data-name="Path 2239" d="M3.734,3.386Q1.875,1.682,0,0V220.529q1.915,4.134,3.734,8.323Z" transform="translate(846.942 131.311)" fill="#d1d3d4"/>
        <path id="Path_2240" data-name="Path 2240" d="M0,228.852q1.877-1.685,3.734-3.386V0Q1.917,4.188,0,8.323Z" transform="translate(846.94 656.833)" fill="#d1d3d4"/>
        <path id="Path_2241" data-name="Path 2241" d="M3.734,3.125C2.5,2.076,1.249,1.039,0,0V204.674q1.9,3.316,3.734,6.671Z" transform="translate(832.105 118.495)" fill="#d1d3d4"/>
        <path id="Path_2242" data-name="Path 2242" d="M0,211.347q1.874-1.556,3.734-3.127V0Q1.9,3.357,0,6.671Z" transform="translate(832.105 687.154)" fill="#d1d3d4"/>
        <path id="Path_2243" data-name="Path 2243" d="M3.734,3.016Q1.873,1.5,0,0V198.4q1.9,3.031,3.734,6.1Z" transform="translate(824.739 112.491)" fill="#d1d3d4"/>
        <path id="Path_2244" data-name="Path 2244" d="M0,204.5q1.874-1.5,3.734-3.016V0Q1.894,3.07,0,6.1Z" transform="translate(824.739 700.004)" fill="#d1d3d4"/>
        <path id="Path_2245" data-name="Path 2245" d="M3.734,2.794Q1.873,1.388,0,0V187.891q1.89,2.594,3.734,5.223Z" transform="translate(809.904 101.071)" fill="#d1d3d4"/>
        <path id="Path_2246" data-name="Path 2246" d="M0,193.115q1.874-1.39,3.734-2.794V0Q1.886,2.627,0,5.223Z" transform="translate(809.904 722.81)" fill="#d1d3d4"/>
        <path id="Path_2247" data-name="Path 2247" d="M3.734,2.69Q1.873,1.336,0,0V183.5q1.887,2.417,3.734,4.866Z" transform="translate(802.537 95.708)" fill="#d1d3d4"/>
        <path id="Path_2248" data-name="Path 2248" d="M0,188.371q1.874-1.338,3.734-2.69V0Q1.886,2.448,0,4.866Z" transform="translate(802.537 732.917)" fill="#d1d3d4"/>
        <path id="Path_2249" data-name="Path 2249" d="M3.734,2.49Q1.873,1.235,0,0V175.86q1.884,2.128,3.734,4.288Z" transform="translate(787.702 85.515)" fill="#d1d3d4"/>
        <path id="Path_2250" data-name="Path 2250" d="M0,180.148q1.871-1.237,3.734-2.49V0Q1.881,2.156,0,4.288Z" transform="translate(787.702 751.332)" fill="#d1d3d4"/>
        <path id="Path_2251" data-name="Path 2251" d="M3.734,2.4Q1.87,1.195,0,0V172.571q1.879,2,3.734,4.031Z" transform="translate(780.336 80.735)" fill="#d1d3d4"/>
        <path id="Path_2252" data-name="Path 2252" d="M0,176.6q1.874-1.193,3.734-2.4V0Q1.883,2.032,0,4.031Z" transform="translate(780.336 759.658)" fill="#d1d3d4"/>
        <path id="Path_2253" data-name="Path 2253" d="M0,170.332c1.249-.737,2.49-1.482,3.733-2.229V0Q1.882,1.815,0,3.6Z" transform="translate(765.501 775.026)" fill="#d1d3d4"/>
        <path id="Path_2254" data-name="Path 2254" d="M3.734,2.229Q1.871,1.109,0,0V166.727q1.879,1.791,3.734,3.6Z" transform="translate(765.501 71.638)" fill="#d1d3d4"/>
        <path id="Path_2255" data-name="Path 2255" d="M0,167.574q1.871-1.061,3.734-2.135V0Q1.878,1.721,0,3.413Z" transform="translate(758.134 782.035)" fill="#d1d3d4"/>
        <path id="Path_2256" data-name="Path 2256" d="M3.734,2.136Q1.873,1.06,0,0V164.163q1.877,1.693,3.734,3.411Z" transform="translate(758.134 67.384)" fill="#d1d3d4"/>
        <path id="Path_2257" data-name="Path 2257" d="M3.734,1.979Q1.87.983,0,0V159.559q1.876,1.522,3.734,3.072Z" transform="translate(743.299 59.293)" fill="#d1d3d4"/>
        <path id="Path_2258" data-name="Path 2258" d="M0,162.63q1.871-.981,3.734-1.979V0Q1.878,1.548,0,3.073Z" transform="translate(743.298 795.072)" fill="#d1d3d4"/>
        <path id="Path_2259" data-name="Path 2259" d="M3.734,1.891Q1.873.936,0,0V157.509q1.877,1.447,3.734,2.916Z" transform="translate(735.933 55.514)" fill="#d1d3d4"/>
        <path id="Path_2260" data-name="Path 2260" d="M0,160.425c1.247-.628,2.493-1.255,3.734-1.891V0Q1.878,1.468,0,2.916Z" transform="translate(735.931 801.057)" fill="#d1d3d4"/>
        <path id="Path_2261" data-name="Path 2261" d="M3.734,1.748Q1.871.868,0,0V153.8q1.874,1.3,3.734,2.632Z" transform="translate(721.096 48.351)" fill="#d1d3d4"/>
        <path id="Path_2262" data-name="Path 2262" d="M0,156.435q1.871-.867,3.734-1.748V0Q1.876,1.327,0,2.631Z" transform="translate(721.096 812.211)" fill="#d1d3d4"/>
        <path id="Path_2263" data-name="Path 2263" d="M0,154.648c1.246-.552,2.493-1.1,3.734-1.667V0Q1.876,1.261,0,2.5Z" transform="translate(713.73 817.334)" fill="#d1d3d4"/>
        <path id="Path_2264" data-name="Path 2264" d="M3.734,1.667C2.493,1.1,1.246.552,0,0V152.147q1.874,1.24,3.734,2.5Z" transform="translate(713.731 45.014)" fill="#d1d3d4"/>
        <path id="Path_2265" data-name="Path 2265" d="M0,151.395q1.871-.758,3.734-1.536V0Q1.876,1.136,0,2.252Z" transform="translate(698.895 826.887)" fill="#d1d3d4"/>
        <path id="Path_2266" data-name="Path 2266" d="M3.734,1.536Q1.871.762,0,0V149.143q1.874,1.116,3.734,2.252Z" transform="translate(698.895 38.714)" fill="#d1d3d4"/>
        <path id="Path_2267" data-name="Path 2267" d="M0,149.928c1.248-.483,2.493-.966,3.734-1.46V0Q1.876,1.079,0,2.136Z" transform="translate(691.528 831.27)" fill="#d1d3d4"/>
        <path id="Path_2268" data-name="Path 2268" d="M3.734,1.46C2.492.966,1.246.483,0,0V147.792q1.874,1.059,3.734,2.136Z" transform="translate(691.53 35.797)" fill="#d1d3d4"/>
        <path id="Path_2269" data-name="Path 2269" d="M0,147.262c1.248-.438,2.492-.891,3.734-1.339V0Q1.873.971,0,1.919Z" transform="translate(676.693 839.427)" fill="#d1d3d4"/>
        <path id="Path_2270" data-name="Path 2270" d="M3.734,1.339C2.49.89,1.248.44,0,0V145.345q1.874.947,3.734,1.917Z" transform="translate(676.693 30.305)" fill="#d1d3d4"/>
        <path id="Path_2271" data-name="Path 2271" d="M3.734,1.267Q1.87.627,0,0V144.234q1.874.9,3.734,1.815Z" transform="translate(669.327 27.786)" fill="#d1d3d4"/>
        <path id="Path_2272" data-name="Path 2272" d="M0,146.049q1.871-.626,3.734-1.266V0Q1.873.916,0,1.815Z" transform="translate(669.327 843.159)" fill="#d1d3d4"/>
        <path id="Path_2273" data-name="Path 2273" d="M0,143.847q1.871-.562,3.734-1.136V0Q1.873.815,0,1.612Z" transform="translate(654.492 850.07)" fill="#d1d3d4"/>
        <path id="Path_2274" data-name="Path 2274" d="M3.734,1.137Q1.871.563,0,0V142.236q1.871.8,3.734,1.613Z" transform="translate(654.492 23.076)" fill="#d1d3d4"/>
        <path id="Path_2275" data-name="Path 2275" d="M0,142.871c1.248-.354,2.49-.721,3.734-1.084V0Q1.873.771,0,1.52Z" transform="translate(647.125 853.204)" fill="#d1d3d4"/>
        <path id="Path_2276" data-name="Path 2276" d="M3.734,1.084C2.49.72,1.248.354,0,0V141.35q1.872.751,3.734,1.519Z" transform="translate(647.125 20.921)" fill="#d1d3d4"/>
        <path id="Path_2277" data-name="Path 2277" d="M3.734.947C2.492.625,1.246.312,0,0V139.72q1.872.66,3.734,1.341Z" transform="translate(632.29 16.964)" fill="#d1d3d4"/>
        <path id="Path_2278" data-name="Path 2278" d="M0,141.061q1.869-.469,3.734-.948V0Q1.87.679,0,1.339Z" transform="translate(632.29 858.971)" fill="#d1d3d4"/>
        <path id="Path_2279" data-name="Path 2279" d="M3.734.887C2.492.585,1.246.293,0,0V139.012q1.871.616,3.734,1.246Z" transform="translate(624.924 15.171)" fill="#d1d3d4"/>
        <path id="Path_2280" data-name="Path 2280" d="M0,140.258c1.246-.293,2.492-.585,3.734-.887V0Q1.873.634,0,1.246Z" transform="translate(624.924 861.566)" fill="#d1d3d4"/>
        <path id="Path_2281" data-name="Path 2281" d="M3.734.782C2.49.519,1.248.254,0,0V137.737q1.871.531,3.734,1.08Z" transform="translate(610.089 11.914)" fill="#d1d3d4"/>
        <path id="Path_2282" data-name="Path 2282" d="M3.734.718Q1.868.353,0,0V137.178q1.869.487,3.734.99Z" transform="translate(602.722 10.476)" fill="#d1d3d4"/>
        <path id="Path_2283" data-name="Path 2283" d="M3.734.6C2.492.39,1.246.2,0,0V136.2q1.871.406,3.734.833Z" transform="translate(587.885 7.917)" fill="#d1d3d4"/>
        <path id="Path_2284" data-name="Path 2284" d="M3.734.545C2.49.361,1.246.176,0,0V135.789q1.869.365,3.734.745Z" transform="translate(580.521 6.811)" fill="#d1d3d4"/>
        <path id="Path_2285" data-name="Path 2285" d="M3.734.438C2.49.29,1.246.14,0,0V135.079q1.869.29,3.734.6Z" transform="translate(565.684 4.921)" fill="#d1d3d4"/>
        <path id="Path_2286" data-name="Path 2286" d="M3.734.378Q1.868.181,0,0V134.8q1.869.248,3.734.516Z" transform="translate(558.319 4.152)" fill="#d1d3d4"/>
        <path id="Path_2287" data-name="Path 2287" d="M3.734.261C2.492.167,1.244.085,0,0V134.344q1.869.173,3.734.362Z" transform="translate(543.483 2.923)" fill="#d1d3d4"/>
        <path id="Path_2288" data-name="Path 2288" d="M3.734.212Q1.868.1,0,0V134.18q1.869.137,3.734.3Z" transform="translate(536.116 2.473)" fill="#d1d3d4"/>
        <path id="Path_2289" data-name="Path 2289" d="M3.734.114C2.49.074,1.246.031,0,0V133.977q1.869.065,3.734.145Z" transform="translate(521.281 1.886)" fill="#d1d3d4"/>
        <path id="Path_2290" data-name="Path 2290" d="M3.734.057Q1.868.023,0,0V133.923q1.869.026,3.734.071Z" transform="translate(513.915 1.76)" fill="#d1d3d4"/>
        <path id="Path_2291" data-name="Path 2291" d="M3.734,0C2.488.014,1.244.038,0,.06V134c1.242-.031,2.488-.052,3.734-.071Z" transform="translate(499.079 1.762)" fill="#d1d3d4"/>
        <path id="Path_2292" data-name="Path 2292" d="M3.734,0C2.487.031,1.244.078,0,.117V134.129c1.243-.053,2.488-.105,3.734-.148Z" transform="translate(491.713 1.891)" fill="#d1d3d4"/>
        <path id="Path_2293" data-name="Path 2293" d="M3.734,0Q1.865.1,0,.212v134.27q1.864-.158,3.734-.3Z" transform="translate(476.878 2.488)" fill="#d1d3d4"/>
        <path id="Path_2294" data-name="Path 2294" d="M3.734,0C2.488.086,1.242.166,0,.261V134.717q1.864-.194,3.734-.366Z" transform="translate(469.512 2.942)" fill="#d1d3d4"/>
        <path id="Path_2295" data-name="Path 2295" d="M3.734,0Q1.865.184,0,.381V135.326q1.864-.269,3.734-.519Z" transform="translate(454.677 4.178)" fill="#d1d3d4"/>
        <path id="Path_2296" data-name="Path 2296" d="M3.734,0C2.486.141,1.244.292,0,.442V135.689q1.864-.308,3.734-.6Z" transform="translate(447.31 4.951)" fill="#d1d3d4"/>
        <path id="Path_2297" data-name="Path 2297" d="M3.734,0Q1.865.267,0,.547V136.553q1.864-.386,3.734-.752Z" transform="translate(432.475 6.849)" fill="#d1d3d4"/>
        <path id="Path_2298" data-name="Path 2298" d="M3.734,0C2.488.2,1.242.388,0,.6V137.047q1.864-.427,3.734-.837Z" transform="translate(425.109 7.96)" fill="#d1d3d4"/>
        <path id="Path_2299" data-name="Path 2299" d="M3.734,0Q1.863.352,0,.721V138.192q1.861-.507,3.734-.994Z" transform="translate(410.272 10.526)" fill="#d1d3d4"/>
        <path id="Path_2300" data-name="Path 2300" d="M3.734,0C2.487.255,1.244.521,0,.785V138.841q1.864-.549,3.734-1.082Z" transform="translate(402.907 11.967)" fill="#d1d3d4"/>
        <path id="Path_2301" data-name="Path 2301" d="M0,139.4c1.242.3,2.49.594,3.734.887V1.249Q1.863.633,0,0Z" transform="translate(388.07 861.473)" fill="#d1d3d4"/>
        <path id="Path_2302" data-name="Path 2302" d="M3.734,0C2.488.293,1.241.583,0,.887v139.4q1.861-.637,3.734-1.249Z" transform="translate(388.07 15.235)" fill="#d1d3d4"/>
        <path id="Path_2303" data-name="Path 2303" d="M0,140.139q1.864.484,3.734.951V1.343Q1.863.683,0,0Z" transform="translate(380.704 858.874)" fill="#d1d3d4"/>
        <path id="Path_2304" data-name="Path 2304" d="M3.734,0C2.488.314,1.242.628,0,.951V141.09q1.864-.681,3.734-1.343Z" transform="translate(380.704 17.032)" fill="#d1d3d4"/>
        <path id="Path_2305" data-name="Path 2305" d="M0,141.819c1.244.364,2.487.732,3.734,1.086V1.524Q1.863.773,0,0Z" transform="translate(365.869 853.094)" fill="#d1d3d4"/>
        <path id="Path_2306" data-name="Path 2306" d="M3.734,0C2.487.355,1.244.721,0,1.085v141.82q1.861-.771,3.734-1.524Z" transform="translate(365.869 20.997)" fill="#d1d3d4"/>
        <path id="Path_2307" data-name="Path 2307" d="M0,142.75q1.864.577,3.734,1.135V1.617Q1.863.82,0,0Z" transform="translate(358.502 849.951)" fill="#d1d3d4"/>
        <path id="Path_2308" data-name="Path 2308" d="M3.734,0Q1.865.562,0,1.137V143.885q1.861-.818,3.734-1.617Z" transform="translate(358.502 23.159)" fill="#d1d3d4"/>
        <path id="Path_2309" data-name="Path 2309" d="M3.734,0Q1.863.626,0,1.27V146.092q1.861-.921,3.734-1.82Z" transform="translate(343.667 27.875)" fill="#d1d3d4"/>
        <path id="Path_2310" data-name="Path 2310" d="M0,144.822q1.864.642,3.734,1.27V1.82Q1.863.92,0,0Z" transform="translate(343.667 843.028)" fill="#d1d3d4"/>
        <path id="Path_2311" data-name="Path 2311" d="M3.734,0C2.485.44,1.242.892,0,1.341V147.309q1.861-.973,3.734-1.922Z" transform="translate(336.301 30.4)" fill="#d1d3d4"/>
        <path id="Path_2312" data-name="Path 2312" d="M0,145.966c1.244.449,2.487.9,3.734,1.341V1.922Q1.86.972,0,0Z" transform="translate(336.301 839.289)" fill="#d1d3d4"/>
        <path id="Path_2313" data-name="Path 2313" d="M3.734,0C2.488.483,1.241.97,0,1.463V149.98q1.861-1.079,3.734-2.14Z" transform="translate(321.466 35.901)" fill="#d1d3d4"/>
        <path id="Path_2314" data-name="Path 2314" d="M0,148.516q1.864.74,3.734,1.463V2.14Q1.86,1.081,0,0Z" transform="translate(321.466 831.115)" fill="#d1d3d4"/>
        <path id="Path_2315" data-name="Path 2315" d="M3.734,0Q1.863.761,0,1.539V151.452q1.858-1.139,3.734-2.255Z" transform="translate(314.099 38.821)" fill="#d1d3d4"/>
        <path id="Path_2316" data-name="Path 2316" d="M0,149.913c1.242.516,2.487,1.032,3.734,1.539V2.257Q1.86,1.139,0,0Z" transform="translate(314.099 826.721)" fill="#d1d3d4"/>
        <path id="Path_2317" data-name="Path 2317" d="M0,153.039c1.241.564,2.488,1.116,3.734,1.67V2.5Q1.86,1.261,0,0Z" transform="translate(299.263 817.151)" fill="#d1d3d4"/>
        <path id="Path_2318" data-name="Path 2318" d="M3.734,0Q1.863.831,0,1.67V154.712q1.858-1.263,3.734-2.5Z" transform="translate(299.264 45.133)" fill="#d1d3d4"/>
        <path id="Path_2319" data-name="Path 2319" d="M3.734,0Q1.863.867,0,1.753V156.5q1.859-1.328,3.734-2.635Z" transform="translate(291.898 48.474)" fill="#d1d3d4"/>
        <path id="Path_2320" data-name="Path 2320" d="M0,154.753q1.861.883,3.732,1.753V2.637Q1.859,1.329,0,0Z" transform="translate(291.898 812.018)" fill="#d1d3d4"/>
        <path id="Path_2321" data-name="Path 2321" d="M0,158.608c1.241.639,2.488,1.267,3.734,1.895V2.923Q1.858,1.474,0,0Z" transform="translate(277.061 800.843)" fill="#d1d3d4"/>
        <path id="Path_2322" data-name="Path 2322" d="M3.734,0Q1.86.942,0,1.9V160.5q1.856-1.473,3.734-2.923Z" transform="translate(277.063 55.649)" fill="#d1d3d4"/>
        <path id="Path_2323" data-name="Path 2323" d="M0,160.73q1.864,1,3.734,1.983V3.077Q1.858,1.55,0,0Z" transform="translate(269.695 794.85)" fill="#d1d3d4"/>
        <path id="Path_2324" data-name="Path 2324" d="M3.734,0C2.485.654,1.242,1.318,0,1.983v160.73q1.856-1.55,3.734-3.077Z" transform="translate(269.696 59.433)" fill="#d1d3d4"/>
        <path id="Path_2325" data-name="Path 2325" d="M3.734,0Q1.863,1.064,0,2.14V167.667q1.853-1.721,3.734-3.417Z" transform="translate(254.86 67.536)" fill="#d1d3d4"/>
        <path id="Path_2326" data-name="Path 2326" d="M0,165.528q1.861,1.079,3.734,2.14V3.417Q1.858,1.721,0,0Z" transform="translate(254.86 781.792)" fill="#d1d3d4"/>
        <path id="Path_2327" data-name="Path 2327" d="M0,168.206q1.864,1.123,3.734,2.235V3.615Q1.852,1.821,0,0Z" transform="translate(247.493 774.762)" fill="#d1d3d4"/>
        <path id="Path_2328" data-name="Path 2328" d="M3.734,0Q1.86,1.11,0,2.236v168.2q1.856-1.82,3.734-3.615Z" transform="translate(247.493 71.793)" fill="#d1d3d4"/>
        <path id="Path_2329" data-name="Path 2329" d="M0,174.314q1.864,1.211,3.734,2.409V4.038Q1.855,2.029,0,0Z" transform="translate(232.658 759.368)" fill="#d1d3d4"/>
        <path id="Path_2330" data-name="Path 2330" d="M3.734,0Q1.86,1.2,0,2.409V176.723q1.851-2.034,3.734-4.038Z" transform="translate(232.658 80.904)" fill="#d1d3d4"/>
        <path id="Path_2331" data-name="Path 2331" d="M3.734,0Q1.863,1.24,0,2.49V180.283q1.851-2.161,3.734-4.295Z" transform="translate(225.292 85.693)" fill="#d1d3d4"/>
        <path id="Path_2332" data-name="Path 2332" d="M0,177.793q1.861,1.255,3.734,2.49V4.3Q1.85,2.164,0,0Z" transform="translate(225.292 751.018)" fill="#d1d3d4"/>
        <path id="Path_2333" data-name="Path 2333" d="M3.734,0Q1.863,1.338,0,2.69V188.531q1.846-2.454,3.734-4.875Z" transform="translate(210.457 95.902)" fill="#d1d3d4"/>
        <path id="Path_2334" data-name="Path 2334" d="M0,185.841q1.861,1.354,3.734,2.69V4.875Q1.847,2.452,0,0Z" transform="translate(210.457 732.563)" fill="#d1d3d4"/>
        <path id="Path_2335" data-name="Path 2335" d="M3.734,0Q1.86,1.39,0,2.8V193.3q1.846-2.632,3.734-5.234Z" transform="translate(203.09 101.268)" fill="#d1d3d4"/>
        <path id="Path_2336" data-name="Path 2336" d="M0,190.5q1.861,1.408,3.734,2.8V5.234Q1.845,2.635,0,0Z" transform="translate(203.09 722.43)" fill="#d1d3d4"/>
        <path id="Path_2337" data-name="Path 2337" d="M3.734,0Q1.858,1.5,0,3.023v201.71q1.84-3.078,3.734-6.124Z" transform="translate(188.255 112.704)" fill="#d1d3d4"/>
        <path id="Path_2338" data-name="Path 2338" d="M0,201.711q1.861,1.52,3.734,3.022V6.124Q1.837,3.085,0,0Z" transform="translate(188.255 699.557)" fill="#d1d3d4"/>
        <path id="Path_2339" data-name="Path 2339" d="M0,208.478q1.858,1.576,3.734,3.132V6.685Q1.834,3.364,0,0Z" transform="translate(180.889 686.669)" fill="#d1d3d4"/>
        <path id="Path_2340" data-name="Path 2340" d="M3.734,0Q1.86,1.558,0,3.132V211.609q1.833-3.365,3.734-6.685Z" transform="translate(180.889 118.717)" fill="#d1d3d4"/>
        <path id="Path_2341" data-name="Path 2341" d="M0,225.842q1.858,1.706,3.734,3.391V8.362Q1.819,4.211,0,0Z" transform="translate(166.052 656.212)" fill="#d1d3d4"/>
        <path id="Path_2342" data-name="Path 2342" d="M3.734,0Q1.858,1.688,0,3.391V229.233q1.817-4.209,3.734-8.362Z" transform="translate(166.054 131.551)" fill="#d1d3d4"/>
        <path id="Path_2343" data-name="Path 2343" d="M3.734,0Q1.86,1.752,0,3.522V240.869Q1.8,236,3.734,231.193Z" transform="translate(158.687 138.301)" fill="#d1d3d4"/>
        <path id="Path_2344" data-name="Path 2344" d="M0,237.347q1.856,1.773,3.734,3.522V9.675Q1.8,4.871,0,0Z" transform="translate(158.687 637.826)" fill="#d1d3d4"/>
        <path id="Path_2345" data-name="Path 2345" d="M0,273.762q1.856,1.923,3.732,3.829V15.813Q1.7,7.973,0,0Z" transform="translate(143.852 586.648)" fill="#d1d3d4"/>
        <path id="Path_2346" data-name="Path 2346" d="M3.734,0Q1.858,1.905,0,3.829V277.591q1.7-7.97,3.734-15.813Z" transform="translate(143.852 152.756)" fill="#d1d3d4"/>
        <path id="Path_2347" data-name="Path 2347" d="M0,318.926q1.856,2.006,3.734,3.99V33.357Q1.141,16.906,0,0Z" transform="translate(136.486 533.695)" fill="#d1d3d4"/>
        <path id="Path_2348" data-name="Path 2348" d="M3.734,0Q1.858,1.985,0,3.99V322.917q1.126-16.9,3.734-33.359Z" transform="translate(136.486 160.385)" fill="#d1d3d4"/>
        <path id="Path_2349" data-name="Path 2349" d="M0,4.361v654.75q1.856,2.192,3.734,4.362V0Q1.855,2.169,0,4.361" transform="translate(121.649 176.761)" fill="#d1d3d4"/>
        <path id="Path_2350" data-name="Path 2350" d="M0,4.564V641.51q1.851,2.293,3.732,4.564V0Q1.853,2.27,0,4.564" transform="translate(114.284 185.462)" fill="#d1d3d4"/>
        <path id="Path_2351" data-name="Path 2351" d="M0,5.03V603.447q1.851,2.526,3.734,5.03V0Q1.852,2.5,0,5.03" transform="translate(99.448 204.26)" fill="#d1d3d4"/>
        <path id="Path_2352" data-name="Path 2352" d="M0,5.3V583.08q1.851,2.661,3.734,5.3V0Q1.852,2.638,0,5.3" transform="translate(92.081 214.31)" fill="#d1d3d4"/>
        <path id="Path_2353" data-name="Path 2353" d="M0,5.948V538.5q1.848,2.987,3.734,5.948V0Q1.847,2.959,0,5.948" transform="translate(77.246 236.273)" fill="#d1d3d4"/>
        <path id="Path_2354" data-name="Path 2354" d="M0,6.328V514.3q1.846,3.179,3.734,6.328V0Q1.845,3.15,0,6.328" transform="translate(69.88 248.183)" fill="#d1d3d4"/>
        <path id="Path_2355" data-name="Path 2355" d="M0,7.308V460.314q1.838,3.673,3.734,7.308V0Q1.839,3.637,0,7.308" transform="translate(55.045 274.687)" fill="#d1d3d4"/>
        <path id="Path_2356" data-name="Path 2356" d="M0,7.967V430.239q1.838,4,3.734,7.969V0Q1.832,3.963,0,7.967" transform="translate(47.678 289.394)" fill="#d1d3d4"/>
        <path id="Path_2357" data-name="Path 2357" d="M0,9.82V360.275q1.817,4.933,3.734,9.818V0Q1.819,4.887,0,9.82" transform="translate(32.843 323.45)" fill="#d1d3d4"/>
        <path id="Path_2358" data-name="Path 2358" d="M0,11.282V318.765q1.8,5.671,3.734,11.282V0Q1.8,5.612,0,11.282" transform="translate(25.477 343.474)" fill="#d1d3d4"/>
        <path id="Path_2359" data-name="Path 2359" d="M0,17.881V208.1q1.706,9,3.732,17.881V0Q1.711,8.883,0,17.881" transform="translate(10.642 395.508)" fill="#d1d3d4"/>
        <path id="Path_2360" data-name="Path 2360" d="M1.55,33.523Q.015,53.249,0,73.383,0,93.5,1.55,113.237q1.317,16.925,3.734,33.525V0Q2.877,16.592,1.55,33.523" transform="translate(1.726 435.117)" fill="#d1d3d4"/>
      </g>
    </g>
  </g>
</svg>
